Hack-Italic.ufo
<glyph name="numbersign" format="1">
  <advance width="1233"/>
  <unicode hex="0023"/>
  <outline>
    <contour>
      <point x="250" y="414" type="line" name="hr00"/>
      <point x="-6" y="414" type="line"/>
      <point x="33" y="567" type="line"/>
      <point x="289" y="567" type="line" name="dv01"/>
      <point x="373" y="901" type="line" name="dv02"/>
      <point x="115" y="901" type="line"/>
      <point x="154" y="1055" type="line"/>
      <point x="412" y="1055" type="line" name="dv03"/>
      <point x="516" y="1470" type="line" name="av01"/>
      <point x="676" y="1470" type="line"/>
      <point x="571" y="1055" type="line" name="sv01"/>
      <point x="817" y="1055" type="line"/>
      <point x="922" y="1470" type="line" name="av02"/>
      <point x="1081" y="1470" type="line"/>
      <point x="977" y="1055" type="line" name="sv02"/>
      <point x="1233" y="1055" type="line"/>
      <point x="1194" y="901" type="line" name="sv03"/>
      <point x="938" y="901" type="line"/>
      <point x="854" y="567" type="line" name="sv04"/>
      <point x="1112" y="567" type="line"/>
      <point x="1073" y="414" type="line" name="sv05"/>
      <point x="815" y="414" type="line"/>
      <point x="711" y="0" type="line" name="ab01"/>
      <point x="551" y="0" type="line"/>
      <point x="655" y="414" type="line" name="sv06"/>
      <point x="410" y="414" type="line"/>
      <point x="305" y="0" type="line" name="ab02"/>
      <point x="145" y="0" type="line"/>
    </contour>
    <contour>
      <point x="694" y="567" type="line" name="sv07"/>
      <point x="778" y="901" type="line" name="sv08"/>
      <point x="532" y="901" type="line"/>
      <point x="449" y="567" type="line"/>
    </contour>
  </outline>
</glyph>
<glyph name="dollar" format="1">
  <advance width="1233"/>
  <unicode hex="0024"/>
  <outline>
    <contour>
      <point x="373" y="0" type="line" name="ab01"/>
      <point x="320" y="3"/>
      <point x="222" y="26" type="qcurve"/>
      <point x="171" y="38"/>
      <point x="77" y="71"/>
      <point x="31" y="92" type="qcurve"/>
      <point x="66" y="272" type="line" name="iv01"/>
      <point x="147" y="212"/>
      <point x="242" y="179" type="qcurve"/>
      <point x="338" y="145"/>
      <point x="430" y="141" type="qcurve" name="sv01"/>
      <point x="520" y="606" type="line"/>
      <point x="445" y="623"/>
      <point x="318" y="675"/>
      <point x="275" y="714" type="qcurve"/>
      <point x="237" y="749"/>
      <point x="195" y="844"/>
      <point x="195" y="912" type="qcurve" name="sh01"/>
      <point x="195" y="995"/>
      <point x="261" y="1142"/>
      <point x="328" y="1200" type="qcurve"/>
      <point x="395" y="1258"/>
      <point x="570" y="1318"/>
      <point x="629" y="1321" type="qcurve"/>
      <point x="677" y="1556" type="line" name="at01"/>
      <point x="857" y="1556" type="line" name="hr01"/>
      <point x="810" y="1321" type="line"/>
      <point x="815" y="1318"/>
      <point x="903" y="1306"/>
      <point x="933" y="1300" type="qcurve"/>
      <point x="948" y="1297"/>
      <point x="986" y="1288"/>
      <point x="1027" y="1277"/>
      <point x="1066" y="1266"/>
      <point x="1083" y="1260" type="qcurve"/>
      <point x="1051" y="1087" type="line" name="iv02"/>
      <point x="1019" y="1107"/>
      <point x="941" y="1141"/>
      <point x="909" y="1151" type="qcurve"/>
      <point x="877" y="1161"/>
      <point x="789" y="1178"/>
      <point x="753" y="1182" type="qcurve"/>
      <point x="672" y="756" type="line"/>
      <point x="837" y="721"/>
      <point x="925" y="639" type="qcurve"/>
      <point x="970" y="597"/>
      <point x="1014" y="492"/>
      <point x="1014" y="421" type="qcurve" name="sh02"/>
      <point x="1014" y="333"/>
      <point x="946" y="182"/>
      <point x="877" y="122" type="qcurve"/>
      <point x="740" y="2"/>
      <point x="524" y="2" type="qcurve" name="ab02"/>
      <point x="554" y="2" type="line"/>
      <point x="495" y="-301" type="line" name="av01"/>
      <point x="314" y="-301" type="line"/>
    </contour>
    <contour>
      <point x="633" y="1184" type="line"/>
      <point x="525" y="1177"/>
      <point x="449" y="1108" type="qcurve"/>
      <point x="373" y="1039"/>
      <point x="373" y="941" type="qcurve" name="sh03"/>
      <point x="373" y="871"/>
      <point x="415" y="834" type="qcurve"/>
      <point x="435" y="816"/>
      <point x="506" y="786"/>
      <point x="553" y="774" type="qcurve"/>
    </contour>
    <contour>
      <point x="553" y="145" type="line" name="sv02"/>
      <point x="673" y="145"/>
      <point x="752" y="218" type="qcurve"/>
      <point x="790" y="253"/>
      <point x="831" y="345"/>
      <point x="831" y="402" type="qcurve" name="ah01"/>
      <point x="831" y="446"/>
      <point x="807" y="507"/>
      <point x="784" y="527" type="qcurve"/>
      <point x="738" y="568"/>
      <point x="639" y="588" type="qcurve"/>
    </contour>
  </outline>
</glyph>
<glyph name="ampersand" format="1">
  <advance width="1233"/>
  <unicode hex="0026"/>
  <outline>
    <contour>
      <point x="408" y="-29" type="qcurve" name="dv01"/>
      <point x="314" y="-29"/>
      <point x="154" y="25"/>
      <point x="96" y="78" type="qcurve"/>
      <point x="39" y="129"/>
      <point x="-20" y="272"/>
      <point x="-20" y="362" type="qcurve" name="sh01"/>
      <point x="-20" y="443"/>
      <point x="30" y="602"/>
      <point x="79" y="673" type="qcurve"/>
      <point x="128" y="744"/>
      <point x="273" y="868"/>
      <point x="367" y="920" type="qcurve"/>
      <point x="350" y="952"/>
      <point x="332" y="998"/>
      <point x="324" y="1026" type="qcurve"/>
      <point x="317" y="1052"/>
      <point x="309" y="1103"/>
      <point x="309" y="1135" type="qcurve" name="ah01"/>
      <point x="309" y="1219"/>
      <point x="370" y="1363"/>
      <point x="432" y="1416" type="qcurve"/>
      <point x="492" y="1467"/>
      <point x="660" y="1520"/>
      <point x="761" y="1520" type="qcurve" name="at01"/>
      <point x="827" y="1520"/>
      <point x="889" y="1508" type="qcurve" name="at02"/>
      <point x="949" y="1496"/>
      <point x="1008" y="1473" type="qcurve"/>
      <point x="973" y="1290" type="line" name="hr01"/>
      <point x="931" y="1328"/>
      <point x="870" y="1347" type="qcurve"/>
      <point x="839" y="1357"/>
      <point x="771" y="1366"/>
      <point x="738" y="1366" type="qcurve" name="sv01"/>
      <point x="618" y="1366"/>
      <point x="551" y="1309" type="qcurve"/>
      <point x="517" y="1280"/>
      <point x="483" y="1202"/>
      <point x="483" y="1157" type="qcurve" name="sh02"/>
      <point x="483" y="1134"/>
      <point x="493" y="1080"/>
      <point x="505" y="1045" type="qcurve"/>
      <point x="516" y="1013"/>
      <point x="544" y="948"/>
      <point x="567" y="907" type="qcurve"/>
      <point x="874" y="350" type="line" name="iv01"/>
      <point x="936" y="416"/>
      <point x="973" y="519" type="qcurve"/>
      <point x="992" y="571"/>
      <point x="1016" y="689"/>
      <point x="1022" y="760" type="qcurve"/>
      <point x="1190" y="760" type="line"/>
      <point x="1182" y="675"/>
      <point x="1144" y="527"/>
      <point x="1112" y="458" type="qcurve"/>
      <point x="1050" y="323"/>
      <point x="944" y="221" type="qcurve"/>
      <point x="1067" y="0" type="line" name="ab01"/>
      <point x="868" y="0" type="line"/>
      <point x="809" y="113" type="line"/>
      <point x="760" y="77"/>
      <point x="668" y="26"/>
      <point x="614" y="7" type="qcurve" name="ab02"/>
      <point x="513" y="-29"/>
    </contour>
    <contour>
      <point x="456" y="129" type="qcurve" name="dv02"/>
      <point x="492" y="129"/>
      <point x="560" y="144"/>
      <point x="597" y="158" type="qcurve"/>
      <point x="632" y="172"/>
      <point x="703" y="211"/>
      <point x="741" y="240" type="qcurve"/>
      <point x="432" y="795" type="line"/>
      <point x="297" y="721"/>
      <point x="228" y="624" type="qcurve"/>
      <point x="193" y="574"/>
      <point x="158" y="465"/>
      <point x="158" y="411" type="qcurve" name="sh03"/>
      <point x="158" y="346"/>
      <point x="204" y="245"/>
      <point x="243" y="209" type="qcurve"/>
      <point x="284" y="171"/>
      <point x="393" y="129"/>
    </contour>
  </outline>
</glyph>
<glyph name="quotesingle" format="1">
  <advance width="1233"/>
  <unicode hex="0027"/>
  <note>
	quotesingle
  </note>
  <outline>
    <contour>
      <point x="528" y="938" type="line"/>
      <point x="702" y="938" type="line"/>
      <point x="702" y="1493" type="line"/>
      <point x="528" y="1493" type="line"/>
    </contour>
  </outline>
</glyph>
<glyph name="parenright" format="1">
  <advance width="1233"/>
  <unicode hex="0029"/>
  <outline>
    <contour>
      <point x="320" y="-270" type="line" name="hr00"/>
      <point x="557" y="32"/>
      <point x="676" y="336" type="qcurve"/>
      <point x="736" y="489"/>
      <point x="795" y="792"/>
      <point x="795" y="940" type="qcurve" name="dh01"/>
      <point x="795" y="1014"/>
      <point x="780" y="1167"/>
      <point x="766" y="1241" type="qcurve"/>
      <point x="752" y="1314"/>
      <point x="706" y="1473"/>
      <point x="676" y="1554" type="qcurve" name="at01"/>
      <point x="836" y="1554" type="line"/>
      <point x="915" y="1364"/>
      <point x="952" y="1209" type="qcurve"/>
      <point x="971" y="1130"/>
      <point x="989" y="982"/>
      <point x="989" y="904" type="qcurve" name="dh02"/>
      <point x="989" y="758"/>
      <point x="925" y="457"/>
      <point x="860" y="307" type="qcurve"/>
      <point x="794" y="155"/>
      <point x="605" y="-131"/>
      <point x="479" y="-270" type="qcurve" name="av01"/>
    </contour>
  </outline>
</glyph>
<glyph name="plus" format="1">
  <advance width="1233"/>
  <unicode hex="002B"/>
  <outline>
    <contour>
      <point x="532" y="557" type="line" name="hr00"/>
      <point x="88" y="557" type="line"/>
      <point x="88" y="727" type="line"/>
      <point x="532" y="727" type="line" name="sh01"/>
      <point x="532" y="1171" type="line" name="av02"/>
      <point x="700" y="1171" type="line" name="sh02"/>
      <point x="700" y="727" type="line" name="sv01"/>
      <point x="1145" y="727" type="line"/>
      <point x="1145" y="557" type="line" name="sv02"/>
      <point x="700" y="557" type="line" name="dh01"/>
      <point x="700" y="113" type="line" name="av01"/>
      <point x="532" y="113" type="line"/>
    </contour>
  </outline>
</glyph>
<glyph name="comma" format="1">
  <advance width="1233"/>
  <unicode hex="002C"/>
  <outline>
    <contour>
      <point x="400" y="-283" type="line" name="hr00"/>
      <point x="644" y="-174"/>
      <point x="652" y="51" type="qcurve" name="sh01"/>
      <point x="640" y="49"/>
      <point x="621" y="47"/>
      <point x="612" y="47" type="qcurve" name="dv01"/>
      <point x="580" y="47"/>
      <point x="524" y="66"/>
      <point x="502" y="86" type="qcurve"/>
      <point x="458" y="125"/>
      <point x="458" y="197" type="qcurve" name="dh01"/>
      <point x="458" y="268"/>
      <point x="504" y="308" type="qcurve"/>
      <point x="524" y="326"/>
      <point x="581" y="349"/>
      <point x="619" y="349" type="qcurve" name="dv02"/>
      <point x="705" y="349"/>
      <point x="752" y="281" type="qcurve"/>
      <point x="798" y="214"/>
      <point x="798" y="93" type="qcurve" name="dh02"/>
      <point x="798" y="-78"/>
      <point x="706" y="-202" type="qcurve" name="hr01"/>
      <point x="614" y="-325"/>
      <point x="446" y="-387" type="qcurve" name="av01"/>
    </contour>
  </outline>
</glyph>
<glyph name="hyphen" format="1">
  <advance width="1233"/>
  <unicode hex="002D"/>
  <outline>
    <contour>
      <point x="226" y="683" type="line" name="hr00"/>
      <point x="1048" y="683" type="line" name="dv02"/>
      <point x="1015" y="519" type="line" name="dv01"/>
      <point x="193" y="519" type="line"/>
    </contour>
  </outline>
</glyph>
<glyph name="one" format="1">
  <advance width="1233"/>
  <unicode hex="0031"/>
  <outline>
    <contour>
      <point x="156" y="170" type="line" name="hr00"/>
      <point x="469" y="170" type="line"/>
      <point x="690" y="1311" type="line" name="iv01"/>
      <point x="338" y="1235" type="line" name="iv02"/>
      <point x="373" y="1419" type="line"/>
      <point x="725" y="1493" type="line" name="at01"/>
      <point x="928" y="1493" type="line"/>
      <point x="670" y="170" type="line" name="sv01"/>
      <point x="979" y="170" type="line" name="sv02"/>
      <point x="946" y="0" type="line" name="ab01"/>
      <point x="123" y="0" type="line"/>
    </contour>
  </outline>
</glyph>
<glyph name="two" format="1">
  <advance width="1233"/>
  <unicode hex="0032"/>
  <outline>
    <contour>
      <point x="32" y="136" type="line" name="hr00"/>
      <point x="36" y="156"/>
      <point x="52" y="182"/>
      <point x="65" y="193" type="qcurve"/>
      <point x="350" y="444" type="line"/>
      <point x="389" y="479" type="line"/>
      <point x="520" y="596"/>
      <point x="720" y="794"/>
      <point x="856" y="961"/>
      <point x="926" y="1100"/>
      <point x="926" y="1160" type="qcurve" name="dh01"/>
      <point x="926" y="1202"/>
      <point x="893" y="1273"/>
      <point x="862" y="1299" type="qcurve"/>
      <point x="831" y="1325"/>
      <point x="742" y="1352"/>
      <point x="684" y="1352" type="qcurve" name="sv01"/>
      <point x="636" y="1352"/>
      <point x="534" y="1334"/>
      <point x="486" y="1319" type="qcurve"/>
      <point x="436" y="1303"/>
      <point x="317" y="1251"/>
      <point x="254" y="1217" type="qcurve" name="iv01"/>
      <point x="295" y="1421" type="line"/>
      <point x="355" y="1447"/>
      <point x="465" y="1484"/>
      <point x="512" y="1495" type="qcurve"/>
      <point x="569" y="1509"/>
      <point x="666" y="1520"/>
      <point x="709" y="1520" type="qcurve" name="at01"/>
      <point x="806" y="1520"/>
      <point x="959" y="1470"/>
      <point x="1013" y="1424" type="qcurve"/>
      <point x="1067" y="1378"/>
      <point x="1126" y="1247"/>
      <point x="1126" y="1163" type="qcurve" name="dh02"/>
      <point x="1126" y="1121"/>
      <point x="1110" y="1037"/>
      <point x="1090" y="989" type="qcurve"/>
      <point x="1050" y="892"/>
      <point x="973" y="799" type="qcurve"/>
      <point x="964" y="788"/>
      <point x="943" y="765"/>
      <point x="915" y="736"/>
      <point x="879" y="701"/>
      <point x="854" y="678" type="qcurve"/>
      <point x="755" y="586"/>
      <point x="614" y="465"/>
      <point x="588" y="444" type="qcurve"/>
      <point x="258" y="170" type="line" name="sv02"/>
      <point x="952" y="170" type="line"/>
      <point x="920" y="0" type="line" name="sh01"/>
      <point x="6" y="0" type="line"/>
    </contour>
  </outline>
</glyph>
<glyph name="three" format="1">
  <advance width="1233"/>
  <unicode hex="0033"/>
  <outline>
    <contour>
      <point x="383" y="-29" type="qcurve" name="dv01"/>
      <point x="326" y="-29"/>
      <point x="230" y="-19"/>
      <point x="179" y="-10" type="qcurve"/>
      <point x="125" y="0"/>
      <point x="34" y="25"/>
      <point x="-18" y="45" type="qcurve"/>
      <point x="20" y="246" type="line"/>
      <point x="69" y="218"/>
      <point x="157" y="182"/>
      <point x="206" y="168" type="qcurve"/>
      <point x="255" y="154"/>
      <point x="348" y="141"/>
      <point x="398" y="141" type="qcurve" name="dv02"/>
      <point x="494" y="141"/>
      <point x="638" y="189"/>
      <point x="693" y="235" type="qcurve" name="hr01"/>
      <point x="748" y="281"/>
      <point x="805" y="400"/>
      <point x="805" y="475" type="qcurve" name="dh01"/>
      <point x="805" y="537"/>
      <point x="768" y="626"/>
      <point x="734" y="655" type="qcurve"/>
      <point x="663" y="715"/>
      <point x="524" y="715" type="qcurve" name="dv03"/>
      <point x="371" y="715" type="line"/>
      <point x="403" y="881" type="line"/>
      <point x="557" y="881" type="line" name="dv04"/>
      <point x="633" y="881"/>
      <point x="761" y="918"/>
      <point x="808" y="955" type="qcurve"/>
      <point x="853" y="990"/>
      <point x="901" y="1092"/>
      <point x="901" y="1157" type="qcurve" name="ih01"/>
      <point x="901" y="1210"/>
      <point x="868" y="1281"/>
      <point x="839" y="1303" type="qcurve"/>
      <point x="777" y="1350"/>
      <point x="650" y="1350" type="qcurve" name="sv01"/>
      <point x="607" y="1350"/>
      <point x="519" y="1340"/>
      <point x="470" y="1330" type="qcurve"/>
      <point x="414" y="1319"/>
      <point x="318" y="1290"/>
      <point x="260" y="1270" type="qcurve"/>
      <point x="297" y="1456" type="line"/>
      <point x="325" y="1463"/>
      <point x="385" y="1478"/>
      <point x="443" y="1491"/>
      <point x="496" y="1502"/>
      <point x="517" y="1505" type="qcurve"/>
      <point x="559" y="1512"/>
      <point x="655" y="1520"/>
      <point x="697" y="1520" type="qcurve" name="at01"/>
      <point x="790" y="1520"/>
      <point x="940" y="1477"/>
      <point x="994" y="1433" type="qcurve" name="hr02"/>
      <point x="1046" y="1391"/>
      <point x="1102" y="1268"/>
      <point x="1102" y="1187" type="qcurve" name="sh01"/>
      <point x="1102" y="1115"/>
      <point x="1058" y="988"/>
      <point x="1013" y="936" type="qcurve"/>
      <point x="971" y="887"/>
      <point x="847" y="816"/>
      <point x="762" y="799" type="qcurve" name="iv01"/>
      <point x="875" y="780"/>
      <point x="940" y="697" type="qcurve"/>
      <point x="972" y="655"/>
      <point x="1004" y="553"/>
      <point x="1004" y="484" type="qcurve" name="dh02"/>
      <point x="1004" y="372"/>
      <point x="921" y="185"/>
      <point x="837" y="113" type="qcurve"/>
      <point x="755" y="43"/>
      <point x="533" y="-29"/>
    </contour>
  </outline>
</glyph>
<glyph name="four" format="1">
  <advance width="1233"/>
  <unicode hex="0034"/>
  <outline>
    <contour>
      <point x="659" y="356" type="line" name="hr00"/>
      <point x="25" y="356" type="line"/>
      <point x="61" y="547" type="line"/>
      <point x="846" y="1493" type="line" name="at01"/>
      <point x="1079" y="1493" type="line"/>
      <point x="889" y="520" type="line" name="sv01"/>
      <point x="1087" y="520" type="line"/>
      <point x="1057" y="356" type="line" name="sv02"/>
      <point x="858" y="356" type="line"/>
      <point x="788" y="0" type="line" name="ab01"/>
      <point x="590" y="0" type="line"/>
    </contour>
    <contour>
      <point x="690" y="520" type="line" name="dv01"/>
      <point x="842" y="1282" type="line"/>
      <point x="217" y="520" type="line"/>
    </contour>
  </outline>
</glyph>
<glyph name="five" format="1">
  <advance width="1233"/>
  <unicode hex="0035"/>
  <outline>
    <contour>
      <point x="366" y="-29" type="qcurve" name="hr00"/>
      <point x="318" y="-29"/>
      <point x="217" y="-21"/>
      <point x="170" y="-13" type="qcurve"/>
      <point x="76" y="3"/>
      <point x="4" y="35" type="qcurve"/>
      <point x="45" y="240" type="line"/>
      <point x="91" y="212"/>
      <point x="177" y="175"/>
      <point x="217" y="164" type="qcurve"/>
      <point x="262" y="151"/>
      <point x="353" y="139"/>
      <point x="395" y="139" type="qcurve" name="dv01"/>
      <point x="488" y="139"/>
      <point x="648" y="197"/>
      <point x="708" y="255" type="qcurve"/>
      <point x="763" y="308"/>
      <point x="829" y="458"/>
      <point x="829" y="545" type="qcurve" name="dh01"/>
      <point x="829" y="675"/>
      <point x="749" y="748" type="qcurve"/>
      <point x="669" y="821"/>
      <point x="525" y="821" type="qcurve" name="dv02"/>
      <point x="486" y="821"/>
      <point x="407" y="811"/>
      <point x="365" y="801" type="qcurve"/>
      <point x="323" y="791"/>
      <point x="245" y="762"/>
      <point x="207" y="743" type="qcurve"/>
      <point x="352" y="1493" type="line" name="at01"/>
      <point x="1108" y="1493" type="line"/>
      <point x="1075" y="1323" type="line" name="sv01"/>
      <point x="504" y="1323" type="line"/>
      <point x="432" y="956" type="line" name="iv01"/>
      <point x="478" y="972"/>
      <point x="524" y="980" type="qcurve"/>
      <point x="546" y="984"/>
      <point x="591" y="987"/>
      <point x="612" y="987" type="qcurve" name="dv03"/>
      <point x="708" y="987"/>
      <point x="860" y="929"/>
      <point x="915" y="875" type="qcurve"/>
      <point x="972" y="820"/>
      <point x="1030" y="667"/>
      <point x="1030" y="574" type="qcurve" name="dh02"/>
      <point x="1030" y="450"/>
      <point x="978" y="334" type="qcurve"/>
      <point x="925" y="217"/>
      <point x="829" y="131" type="qcurve"/>
      <point x="786" y="93"/>
      <point x="687" y="32"/>
      <point x="628" y="11" type="qcurve"/>
      <point x="571" y="-9"/>
      <point x="444" y="-29"/>
    </contour>
  </outline>
</glyph>
<glyph name="six" format="1">
  <advance width="1233"/>
  <unicode hex="0036"/>
  <outline>
    <contour>
      <point x="515" y="-29" type="qcurve" name="hr00"/>
      <point x="422" y="-29"/>
      <point x="260" y="27"/>
      <point x="202" y="87" type="qcurve"/>
      <point x="148" y="143"/>
      <point x="92" y="314"/>
      <point x="92" y="433" type="qcurve" name="sh01"/>
      <point x="92" y="502"/>
      <point x="111" y="675"/>
      <point x="131" y="765" type="qcurve"/>
      <point x="150" y="852"/>
      <point x="206" y="1022"/>
      <point x="238" y="1091" type="qcurve"/>
      <point x="289" y="1202"/>
      <point x="416" y="1362"/>
      <point x="489" y="1413" type="qcurve"/>
      <point x="641" y="1520"/>
      <point x="846" y="1520" type="qcurve" name="sh02"/>
      <point x="884" y="1520"/>
      <point x="960" y="1513"/>
      <point x="994" y="1505" type="qcurve"/>
      <point x="1025" y="1498"/>
      <point x="1096" y="1474"/>
      <point x="1128" y="1460" type="qcurve"/>
      <point x="1092" y="1274" type="line"/>
      <point x="1033" y="1311"/>
      <point x="966" y="1331" type="qcurve"/>
      <point x="932" y="1341"/>
      <point x="860" y="1350"/>
      <point x="825" y="1350" type="qcurve" name="sv01"/>
      <point x="725" y="1350"/>
      <point x="568" y="1279"/>
      <point x="505" y="1207" type="qcurve"/>
      <point x="380" y="1064"/>
      <point x="324" y="780" type="qcurve" name="ih01"/>
      <point x="360" y="834"/>
      <point x="439" y="909"/>
      <point x="486" y="935" type="qcurve"/>
      <point x="533" y="961"/>
      <point x="635" y="987"/>
      <point x="696" y="987" type="qcurve" name="dv03"/>
      <point x="784" y="987"/>
      <point x="921" y="936"/>
      <point x="967" y="888" type="qcurve"/>
      <point x="1017" y="837"/>
      <point x="1063" y="693"/>
      <point x="1063" y="603" type="qcurve" name="sh03"/>
      <point x="1063" y="549"/>
      <point x="1045" y="431"/>
      <point x="1023" y="366" type="qcurve"/>
      <point x="1002" y="303"/>
      <point x="948" y="206"/>
      <point x="915" y="164" type="qcurve"/>
      <point x="838" y="67"/>
      <point x="738" y="19" type="qcurve"/>
      <point x="691" y="-4"/>
      <point x="581" y="-29"/>
    </contour>
    <contour>
      <point x="521" y="129" type="qcurve" name="dv01"/>
      <point x="588" y="129"/>
      <point x="714" y="194"/>
      <point x="764" y="263" type="qcurve"/>
      <point x="811" y="329"/>
      <point x="860" y="495"/>
      <point x="860" y="583" type="qcurve" name="ah01"/>
      <point x="860" y="645"/>
      <point x="833" y="737"/>
      <point x="802" y="769" type="qcurve"/>
      <point x="773" y="799"/>
      <point x="688" y="829"/>
      <point x="639" y="829" type="qcurve" name="dv02"/>
      <point x="564" y="829"/>
      <point x="438" y="763"/>
      <point x="391" y="703" type="qcurve"/>
      <point x="342" y="640"/>
      <point x="293" y="479"/>
      <point x="293" y="394" type="qcurve" name="sh04"/>
      <point x="293" y="328"/>
      <point x="323" y="232"/>
      <point x="353" y="198" type="qcurve"/>
      <point x="385" y="163"/>
      <point x="473" y="129"/>
    </contour>
  </outline>
</glyph>
<glyph name="nine" format="1">
  <advance width="1233"/>
  <unicode hex="0039"/>
  <outline>
    <contour>
      <point x="343" y="-29" type="qcurve" name="hr00"/>
      <point x="267" y="-29"/>
      <point x="197" y="-14" type="qcurve"/>
      <point x="165" y="-7"/>
      <point x="98" y="14"/>
      <point x="63" y="31" type="qcurve"/>
      <point x="98" y="217" type="line"/>
      <point x="127" y="198"/>
      <point x="190" y="171"/>
      <point x="224" y="161" type="qcurve"/>
      <point x="293" y="141"/>
      <point x="366" y="141" type="qcurve" name="dv01"/>
      <point x="560" y="141"/>
      <point x="686" y="285" type="qcurve"/>
      <point x="810" y="427"/>
      <point x="866" y="711" type="qcurve" name="ih01"/>
      <point x="799" y="610"/>
      <point x="705" y="557" type="qcurve"/>
      <point x="654" y="528"/>
      <point x="549" y="504"/>
      <point x="492" y="504" type="qcurve" name="dv02"/>
      <point x="405" y="504"/>
      <point x="272" y="555"/>
      <point x="224" y="604" type="qcurve"/>
      <point x="127" y="704"/>
      <point x="127" y="889" type="qcurve" name="sh01"/>
      <point x="127" y="952"/>
      <point x="148" y="1071"/>
      <point x="167" y="1127" type="qcurve"/>
      <point x="187" y="1185"/>
      <point x="242" y="1287"/>
      <point x="274" y="1327" type="qcurve"/>
      <point x="311" y="1373"/>
      <point x="402" y="1448"/>
      <point x="452" y="1472" type="qcurve"/>
      <point x="551" y="1520"/>
      <point x="676" y="1520" type="qcurve" name="at01"/>
      <point x="777" y="1520"/>
      <point x="936" y="1460"/>
      <point x="990" y="1403" type="qcurve"/>
      <point x="1100" y="1287"/>
      <point x="1100" y="1059" type="qcurve" name="sh03"/>
      <point x="1100" y="990"/>
      <point x="1081" y="816"/>
      <point x="1061" y="726" type="qcurve"/>
      <point x="1041" y="635"/>
      <point x="987" y="473"/>
      <point x="954" y="401" type="qcurve"/>
      <point x="902" y="289"/>
      <point x="778" y="132"/>
      <point x="703" y="79" type="qcurve"/>
      <point x="622" y="22"/>
      <point x="443" y="-29"/>
    </contour>
    <contour>
      <point x="551" y="662" type="qcurve" name="dv03"/>
      <point x="626" y="662"/>
      <point x="752" y="728"/>
      <point x="799" y="788" type="qcurve"/>
      <point x="846" y="848"/>
      <point x="897" y="1008"/>
      <point x="897" y="1097" type="qcurve" name="ah01"/>
      <point x="897" y="1166"/>
      <point x="866" y="1263"/>
      <point x="837" y="1295" type="qcurve"/>
      <point x="808" y="1327"/>
      <point x="722" y="1362"/>
      <point x="671" y="1362" type="qcurve" name="sv01"/>
      <point x="599" y="1362"/>
      <point x="474" y="1293"/>
      <point x="427" y="1228" type="qcurve"/>
      <point x="382" y="1165"/>
      <point x="330" y="997"/>
      <point x="330" y="907" type="qcurve" name="sh02"/>
      <point x="330" y="850"/>
      <point x="356" y="755"/>
      <point x="388" y="722" type="qcurve"/>
      <point x="417" y="692"/>
      <point x="502" y="662"/>
    </contour>
  </outline>
</glyph>
<glyph name="semicolon" format="1">
  <advance width="1233"/>
  <unicode hex="003B"/>
  <note>
	semicolon
  </note>
  <outline>
    <contour>
      <point x="774" y="713"/>
      <point x="817" y="732"/>
      <point x="852" y="763" type="curve" smooth="yes"/>
      <point x="889" y="796"/>
      <point x="913" y="839"/>
      <point x="923" y="892" type="curve" smooth="yes"/>
      <point x="925" y="904"/>
      <point x="926" y="915"/>
      <point x="926" y="926" type="curve" smooth="yes"/>
      <point x="926" y="963"/>
      <point x="915" y="995"/>
      <point x="893" y="1020" type="curve" smooth="yes"/>
      <point x="866" y="1051"/>
      <point x="826" y="1068"/>
      <point x="779" y="1068" type="curve" smooth="yes"/>
      <point x="732" y="1068"/>
      <point x="687" y="1050"/>
      <point x="652" y="1019" type="curve" smooth="yes"/>
      <point x="617" y="990"/>
      <point x="592" y="948"/>
      <point x="583" y="892" type="curve"/>
      <point x="580" y="880"/>
      <point x="579" y="868"/>
      <point x="579" y="856" type="curve" smooth="yes"/>
      <point x="579" y="819"/>
      <point x="590" y="788"/>
      <point x="611" y="763" type="curve" smooth="yes"/>
      <point x="638" y="730"/>
      <point x="676" y="713"/>
      <point x="723" y="713" type="curve" smooth="yes"/>
    </contour>
    <contour>
      <point x="371" y="-460" type="line"/>
      <point x="492" y="-419"/>
      <point x="599" y="-348"/>
      <point x="674" y="-267" type="curve" smooth="yes"/>
      <point x="750" y="-184"/>
      <point x="801" y="-79"/>
      <point x="820" y="44" type="curve" smooth="yes"/>
      <point x="824" y="72"/>
      <point x="827" y="109"/>
      <point x="827" y="132" type="curve" smooth="yes"/>
      <point x="827" y="169"/>
      <point x="819" y="210"/>
      <point x="802" y="241" type="curve" smooth="yes"/>
      <point x="776" y="288"/>
      <point x="733" y="312"/>
      <point x="672" y="312" type="curve" smooth="yes"/>
      <point x="629" y="312"/>
      <point x="586" y="300"/>
      <point x="547" y="269" type="curve" smooth="yes"/>
      <point x="508" y="238"/>
      <point x="488" y="200"/>
      <point x="480" y="153" type="curve"/>
      <point x="479" y="144"/>
      <point x="478" y="136"/>
      <point x="478" y="129" type="curve" smooth="yes"/>
      <point x="478" y="120" type="line" smooth="yes"/>
      <point x="478" y="85"/>
      <point x="488" y="57"/>
      <point x="508" y="36" type="curve" smooth="yes"/>
      <point x="535" y="9"/>
      <point x="573" y="-5"/>
      <point x="617" y="-5" type="curve" smooth="yes"/>
      <point x="630" y="-5"/>
      <point x="640" y="-4"/>
      <point x="659" y="0" type="curve"/>
      <point x="629" y="-158"/>
      <point x="522" y="-275"/>
      <point x="339" y="-351" type="curve"/>
    </contour>
  </outline>
</glyph>
<glyph name="question" format="1">
  <advance width="1233"/>
  <unicode hex="003F"/>
  <outline>
    <contour>
      <point x="546" y="583" type="line" name="hr00"/>
      <point x="558" y="661"/>
      <point x="599" y="729" type="qcurve"/>
      <point x="620" y="764"/>
      <point x="684" y="834"/>
      <point x="738" y="880" type="qcurve"/>
      <point x="842" y="969" type="line"/>
      <point x="884" y="1004"/>
      <point x="930" y="1052"/>
      <point x="944" y="1072" type="qcurve"/>
      <point x="976" y="1117"/>
      <point x="983" y="1165" type="qcurve" name="sh01"/>
      <point x="986" y="1183"/>
      <point x="986" y="1199" type="qcurve" name="ah01"/>
      <point x="986" y="1231"/>
      <point x="963" y="1287"/>
      <point x="940" y="1309" type="qcurve"/>
      <point x="913" y="1335"/>
      <point x="830" y="1364"/>
      <point x="775" y="1364" type="qcurve" name="dv03"/>
      <point x="695" y="1364"/>
      <point x="602" y="1330" type="qcurve"/>
      <point x="554" y="1313"/>
      <point x="453" y="1261"/>
      <point x="398" y="1227" type="qcurve"/>
      <point x="428" y="1415" type="line" name="sh03"/>
      <point x="477" y="1442"/>
      <point x="580" y="1486"/>
      <point x="631" y="1500" type="qcurve"/>
      <point x="682" y="1514"/>
      <point x="783" y="1528"/>
      <point x="833" y="1528" type="qcurve" name="dv04"/>
      <point x="924" y="1528"/>
      <point x="1066" y="1482"/>
      <point x="1116" y="1432" type="qcurve"/>
      <point x="1152" y="1396"/>
      <point x="1192" y="1301"/>
      <point x="1192" y="1250" type="qcurve" name="sh04"/>
      <point x="1192" y="1233"/>
      <point x="1188" y="1191"/>
      <point x="1186" y="1175" type="qcurve" name="sh05"/>
      <point x="1181" y="1138"/>
      <point x="1154" y="1069"/>
      <point x="1130" y="1034" type="qcurve"/>
      <point x="1104" y="996"/>
      <point x="1027" y="918"/>
      <point x="978" y="876" type="qcurve" name="sh06"/>
      <point x="876" y="790" type="line"/>
      <point x="833" y="754"/>
      <point x="784" y="702"/>
      <point x="771" y="682" type="qcurve"/>
      <point x="760" y="665"/>
      <point x="742" y="619"/>
      <point x="739" y="599" type="qcurve"/>
      <point x="731" y="552" type="line" name="sh08"/>
      <point x="719" y="472" type="line"/>
      <point x="529" y="472" type="line"/>
    </contour>
    <contour>
      <point x="542" y="-40" type="qcurve" name="dv01"/>
      <point x="516" y="-40"/>
      <point x="472" y="-23"/>
      <point x="454" y="-3" type="qcurve"/>
      <point x="435" y="19"/>
      <point x="421" y="67"/>
      <point x="421" y="93" type="qcurve" name="sh02"/>
      <point x="421" y="133"/>
      <point x="452" y="194"/>
      <point x="476" y="216" type="qcurve"/>
      <point x="500" y="238"/>
      <point x="563" y="264"/>
      <point x="596" y="264" type="qcurve" name="dv02"/>
      <point x="619" y="264"/>
      <point x="669" y="247"/>
      <point x="687" y="227" type="qcurve"/>
      <point x="702" y="210"/>
      <point x="718" y="162"/>
      <point x="718" y="134" type="qcurve" name="sh07"/>
      <point x="718" y="100"/>
      <point x="692" y="35"/>
      <point x="664" y="9" type="qcurve"/>
      <point x="641" y="-12"/>
      <point x="578" y="-40"/>
    </contour>
  </outline>
</glyph>
<glyph name="B" format="1">
  <advance width="1233"/>
  <unicode hex="0042"/>
  <outline>
    <contour>
      <point x="313" y="1493" type="line" name="at01"/>
      <point x="756" y="1493" type="line"/>
      <point x="960" y="1493"/>
      <point x="1063" y="1414" type="qcurve"/>
      <point x="1115" y="1374"/>
      <point x="1167" y="1258"/>
      <point x="1167" y="1178" type="qcurve" name="sh01"/>
      <point x="1167" y="1027"/>
      <point x="1075" y="923" type="qcurve"/>
      <point x="983" y="818"/>
      <point x="827" y="799" type="qcurve" name="iv01"/>
      <point x="951" y="776"/>
      <point x="1019" y="697" type="qcurve"/>
      <point x="1053" y="657"/>
      <point x="1085" y="555"/>
      <point x="1085" y="486" type="qcurve" name="dh02"/>
      <point x="1085" y="377"/>
      <point x="1006" y="196"/>
      <point x="926" y="130" type="qcurve"/>
      <point x="767" y="0"/>
      <point x="475" y="0" type="qcurve" name="ab01"/>
      <point x="23" y="0" type="line"/>
    </contour>
    <contour>
      <point x="639" y="877" type="line" name="hr01"/>
      <point x="791" y="877"/>
      <point x="877" y="950" type="qcurve"/>
      <point x="963" y="1022"/>
      <point x="963" y="1148" type="qcurve" name="ih01"/>
      <point x="963" y="1243"/>
      <point x="908" y="1285" type="qcurve"/>
      <point x="852" y="1327"/>
      <point x="727" y="1327" type="qcurve" name="sv01"/>
      <point x="483" y="1327" type="line"/>
      <point x="395" y="877" type="line" name="hr02"/>
    </contour>
    <contour>
      <point x="506" y="166" type="line" name="sv02"/>
      <point x="690" y="166"/>
      <point x="788" y="253" type="qcurve"/>
      <point x="837" y="297"/>
      <point x="885" y="423"/>
      <point x="885" y="496" type="qcurve" name="dh01"/>
      <point x="885" y="559"/>
      <point x="851" y="636"/>
      <point x="817" y="662" type="qcurve" name="hr03"/>
      <point x="749" y="713"/>
      <point x="606" y="713" type="qcurve" name="dv01"/>
      <point x="365" y="713" type="line"/>
      <point x="258" y="166" type="line"/>
    </contour>
  </outline>
</glyph>
<glyph name="D" format="1">
  <advance width="1233"/>
  <unicode hex="0044"/>
  <outline>
    <contour>
      <point x="283" y="1493" type="line" name="hr00"/>
      <point x="586" y="1493" type="line"/>
      <point x="859" y="1493"/>
      <point x="995" y="1369" type="qcurve"/>
      <point x="1064" y="1306"/>
      <point x="1130" y="1117"/>
      <point x="1130" y="986" type="qcurve" name="dh02"/>
      <point x="1130" y="912"/>
      <point x="1109" y="746"/>
      <point x="1088" y="659" type="qcurve"/>
      <point x="1066" y="569"/>
      <point x="1007" y="414"/>
      <point x="975" y="354" type="qcurve"/>
      <point x="922" y="256"/>
      <point x="791" y="122"/>
      <point x="716" y="82" type="qcurve"/>
      <point x="561" y="0"/>
      <point x="295" y="0" type="qcurve" name="ab01"/>
      <point x="-8" y="0" type="line"/>
    </contour>
    <contour>
      <point x="324" y="166" type="line" name="sv01"/>
      <point x="508" y="166"/>
      <point x="621" y="229" type="qcurve"/>
      <point x="734" y="291"/>
      <point x="801" y="432" type="qcurve"/>
      <point x="826" y="484"/>
      <point x="872" y="624"/>
      <point x="890" y="707" type="qcurve"/>
      <point x="907" y="787"/>
      <point x="924" y="933"/>
      <point x="924" y="993" type="qcurve" name="dh01"/>
      <point x="924" y="1088"/>
      <point x="884" y="1213"/>
      <point x="842" y="1251" type="qcurve"/>
      <point x="760" y="1327"/>
      <point x="567" y="1327" type="qcurve" name="sv02"/>
      <point x="453" y="1327" type="line"/>
      <point x="227" y="166" type="line"/>
    </contour>
  </outline>
</glyph>
<glyph name="E" format="1">
  <advance width="1233"/>
  <unicode hex="0045"/>
  <outline>
    <contour>
      <point x="344" y="1493" type="line" name="hr00"/>
      <point x="1229" y="1493" type="line"/>
      <point x="1196" y="1323" type="line" name="sv01"/>
      <point x="512" y="1323" type="line"/>
      <point x="426" y="881" type="line"/>
      <point x="1079" y="881" type="line" name="dv02"/>
      <point x="1047" y="711" type="line" name="dv01"/>
      <point x="393" y="711" type="line"/>
      <point x="289" y="170" type="line" name="sv02"/>
      <point x="991" y="170" type="line"/>
      <point x="958" y="0" type="line" name="ab01"/>
      <point x="53" y="0" type="line"/>
    </contour>
  </outline>
</glyph>
<glyph name="G" format="1">
  <advance width="1233"/>
  <unicode hex="0047"/>
  <outline>
    <contour>
      <point x="564" y="-29" type="qcurve" name="hr00"/>
      <point x="442" y="-29"/>
      <point x="263" y="40"/>
      <point x="202" y="106" type="qcurve"/>
      <point x="139" y="175"/>
      <point x="78" y="367"/>
      <point x="78" y="488" type="qcurve" name="dh01"/>
      <point x="78" y="535"/>
      <point x="87" y="630"/>
      <point x="95" y="681" type="qcurve"/>
      <point x="103" y="727"/>
      <point x="128" y="842"/>
      <point x="143" y="893" type="qcurve"/>
      <point x="160" y="950"/>
      <point x="202" y="1057"/>
      <point x="225" y="1105" type="qcurve"/>
      <point x="250" y="1155"/>
      <point x="302" y="1234"/>
      <point x="328" y="1267" type="qcurve"/>
      <point x="378" y="1329"/>
      <point x="498" y="1426"/>
      <point x="566" y="1458" type="qcurve"/>
      <point x="696" y="1520"/>
      <point x="854" y="1520" type="qcurve" name="at01"/>
      <point x="900" y="1520"/>
      <point x="980" y="1510"/>
      <point x="1020" y="1499" type="qcurve"/>
      <point x="1101" y="1478"/>
      <point x="1176" y="1438" type="qcurve"/>
      <point x="1135" y="1231" type="line"/>
      <point x="1100" y="1265"/>
      <point x="1030" y="1311"/>
      <point x="999" y="1325" type="qcurve"/>
      <point x="928" y="1356"/>
      <point x="846" y="1356" type="qcurve" name="sv01"/>
      <point x="796" y="1356"/>
      <point x="703" y="1335"/>
      <point x="662" y="1315" type="qcurve"/>
      <point x="620" y="1295"/>
      <point x="540" y="1231"/>
      <point x="508" y="1192" type="qcurve"/>
      <point x="463" y="1138"/>
      <point x="425" y="1062" type="qcurve"/>
      <point x="404" y="1020"/>
      <point x="370" y="933"/>
      <point x="356" y="887" type="qcurve"/>
      <point x="339" y="831"/>
      <point x="313" y="722"/>
      <point x="305" y="673" type="qcurve"/>
      <point x="296" y="621"/>
      <point x="287" y="536"/>
      <point x="287" y="494" type="qcurve" name="dh02"/>
      <point x="287" y="320"/>
      <point x="366" y="228" type="qcurve"/>
      <point x="406" y="181"/>
      <point x="517" y="135"/>
      <point x="592" y="135" type="qcurve" name="dv01"/>
      <point x="628" y="135"/>
      <point x="686" y="145"/>
      <point x="712" y="154" type="qcurve"/>
      <point x="741" y="164"/>
      <point x="784" y="190"/>
      <point x="803" y="207" type="qcurve"/>
      <point x="879" y="600" type="line"/>
      <point x="662" y="600" type="line" name="dv02"/>
      <point x="692" y="766" type="line" name="dv03"/>
      <point x="1102" y="766" type="line"/>
      <point x="969" y="96" type="line"/>
      <point x="883" y="35"/>
      <point x="779" y="3" type="qcurve"/>
      <point x="728" y="-13"/>
      <point x="623" y="-29"/>
    </contour>
  </outline>
</glyph>
<glyph name="J" format="1">
  <advance width="1233"/>
  <unicode hex="004A"/>
  <outline>
    <contour>
      <point x="375" y="-29" type="qcurve" name="hr00"/>
      <point x="321" y="-29"/>
      <point x="225" y="-17"/>
      <point x="174" y="-6" type="qcurve"/>
      <point x="121" y="6"/>
      <point x="25" y="39"/>
      <point x="-25" y="61" type="qcurve"/>
      <point x="20" y="297" type="line"/>
      <point x="58" y="255"/>
      <point x="139" y="197"/>
      <point x="184" y="177" type="qcurve"/>
      <point x="228" y="157"/>
      <point x="322" y="135"/>
      <point x="380" y="135" type="qcurve" name="dv01"/>
      <point x="522" y="135"/>
      <point x="592" y="208" type="qcurve"/>
      <point x="624" y="241"/>
      <point x="680" y="374"/>
      <point x="702" y="487" type="qcurve"/>
      <point x="866" y="1323" type="line" name="sv01"/>
      <point x="485" y="1323" type="line"/>
      <point x="518" y="1493" type="line" name="at01"/>
      <point x="1102" y="1493" type="line"/>
      <point x="905" y="487" type="line"/>
      <point x="876" y="337"/>
      <point x="790" y="143"/>
      <point x="729" y="86" type="qcurve"/>
      <point x="666" y="27"/>
      <point x="493" y="-29"/>
    </contour>
  </outline>
</glyph>
<glyph name="K" format="1">
  <advance width="1233"/>
  <unicode hex="004B"/>
  <outline>
    <contour>
      <point x="283" y="1493" type="line" name="hr00"/>
      <point x="485" y="1493" type="line"/>
      <point x="358" y="846" type="line" name="iv01"/>
      <point x="1100" y="1493" type="line" name="at01"/>
      <point x="1354" y="1493" type="line"/>
      <point x="651" y="874" type="line"/>
      <point x="1079" y="0" type="line" name="ab01"/>
      <point x="860" y="0" type="line"/>
      <point x="500" y="741" type="line" name="iv02"/>
      <point x="307" y="573" type="line"/>
      <point x="195" y="0" type="line" name="ab02"/>
      <point x="-8" y="0" type="line"/>
    </contour>
  </outline>
</glyph>
<glyph name="P" format="1">
  <advance width="1233"/>
  <unicode hex="0050"/>
  <outline>
    <contour>
      <point x="321" y="1493" type="line" name="hr00"/>
      <point x="761" y="1493" type="line"/>
      <point x="864" y="1493"/>
      <point x="1022" y="1446"/>
      <point x="1076" y="1401" type="qcurve"/>
      <point x="1130" y="1356"/>
      <point x="1183" y="1221"/>
      <point x="1183" y="1126" type="qcurve" name="dh02"/>
      <point x="1183" y="1006"/>
      <point x="1101" y="812"/>
      <point x="1023" y="743" type="qcurve"/>
      <point x="945" y="674"/>
      <point x="728" y="600"/>
      <point x="583" y="600" type="qcurve" name="dv01"/>
      <point x="350" y="600" type="line"/>
      <point x="233" y="0" type="line" name="ab01"/>
      <point x="30" y="0" type="line"/>
    </contour>
    <contour>
      <point x="616" y="766" type="line" name="dv02"/>
      <point x="781" y="766"/>
      <point x="880" y="862" type="qcurve"/>
      <point x="929" y="910"/>
      <point x="978" y="1037"/>
      <point x="978" y="1111" type="qcurve" name="dh01"/>
      <point x="978" y="1164"/>
      <point x="950" y="1248"/>
      <point x="916" y="1276" type="qcurve"/>
      <point x="854" y="1327"/>
      <point x="724" y="1327" type="qcurve" name="sv01"/>
      <point x="491" y="1327" type="line"/>
      <point x="382" y="766" type="line"/>
    </contour>
  </outline>
</glyph>
<glyph name="R" format="1">
  <advance width="1233"/>
  <unicode hex="0052"/>
  <outline>
    <contour>
      <point x="281" y="1493" type="line" name="hr00"/>
      <point x="697" y="1493" type="line"/>
      <point x="903" y="1493"/>
      <point x="1018" y="1404" type="qcurve"/>
      <point x="1077" y="1358"/>
      <point x="1131" y="1229"/>
      <point x="1131" y="1144" type="qcurve" name="dh02"/>
      <point x="1131" y="1060"/>
      <point x="1080" y="908"/>
      <point x="1028" y="848" type="qcurve"/>
      <point x="977" y="789"/>
      <point x="837" y="716"/>
      <point x="746" y="705" type="qcurve" name="iv01"/>
      <point x="780" y="699"/>
      <point x="841" y="664"/>
      <point x="862" y="638" type="qcurve"/>
      <point x="882" y="613"/>
      <point x="931" y="502"/>
      <point x="959" y="408" type="qcurve"/>
      <point x="1080" y="0" type="line" name="ih01"/>
      <point x="879" y="0" type="line"/>
      <point x="773" y="377" type="line"/>
      <point x="729" y="532"/>
      <point x="675" y="582" type="qcurve"/>
      <point x="647" y="608"/>
      <point x="562" y="631"/>
      <point x="510" y="631" type="qcurve" name="dv01"/>
      <point x="318" y="631" type="line"/>
      <point x="195" y="0" type="line" name="ab01"/>
      <point x="-8" y="0" type="line"/>
    </contour>
    <contour>
      <point x="570" y="797" type="line" name="dv02"/>
      <point x="733" y="797"/>
      <point x="831" y="883" type="qcurve"/>
      <point x="928" y="968"/>
      <point x="928" y="1109" type="qcurve" name="dh01"/>
      <point x="928" y="1222"/>
      <point x="865" y="1275" type="qcurve"/>
      <point x="803" y="1327"/>
      <point x="666" y="1327" type="qcurve" name="sv01"/>
      <point x="453" y="1327" type="line"/>
      <point x="351" y="797" type="line"/>
    </contour>
  </outline>
</glyph>
<glyph name="T" format="1">
  <advance width="1233"/>
  <unicode hex="0054"/>
  <outline>
    <contour>
      <point x="629" y="1323" type="line" name="hr00"/>
      <point x="160" y="1323" type="line"/>
      <point x="193" y="1493" type="line" name="at01"/>
      <point x="1333" y="1493" type="line"/>
      <point x="1300" y="1323" type="line" name="sv01"/>
      <point x="831" y="1323" type="line" name="sv02"/>
      <point x="575" y="0" type="line" name="ab01"/>
      <point x="371" y="0" type="line"/>
    </contour>
  </outline>
</glyph>
<glyph name="U" format="1">
  <advance width="1233"/>
  <unicode hex="0055"/>
  <outline>
    <contour>
      <point x="477" y="-29" type="qcurve" name="hr00"/>
      <point x="287" y="-29"/>
      <point x="184" y="61" type="qcurve"/>
      <point x="80" y="151"/>
      <point x="80" y="315" type="qcurve" name="dh01"/>
      <point x="80" y="339"/>
      <point x="84" y="383"/>
      <point x="89" y="417" type="qcurve"/>
      <point x="92" y="440"/>
      <point x="97" y="475"/>
      <point x="103" y="510"/>
      <point x="110" y="548"/>
      <point x="115" y="573" type="qcurve"/>
      <point x="293" y="1493" type="line" name="at01"/>
      <point x="496" y="1493" type="line"/>
      <point x="317" y="573" type="line"/>
      <point x="316" y="566"/>
      <point x="312" y="546"/>
      <point x="309" y="532" type="qcurve"/>
      <point x="294" y="458"/>
      <point x="279" y="343"/>
      <point x="279" y="313" type="qcurve" name="dh02"/>
      <point x="279" y="270"/>
      <point x="308" y="203"/>
      <point x="334" y="181" type="qcurve"/>
      <point x="387" y="135"/>
      <point x="501" y="135" type="qcurve" name="dv01"/>
      <point x="546" y="135"/>
      <point x="616" y="149"/>
      <point x="649" y="165" type="qcurve"/>
      <point x="682" y="181"/>
      <point x="736" y="225"/>
      <point x="756" y="254" type="qcurve"/>
      <point x="767" y="270"/>
      <point x="788" y="317"/>
      <point x="801" y="361" type="qcurve"/>
      <point x="812" y="397"/>
      <point x="836" y="504"/>
      <point x="850" y="573" type="qcurve"/>
      <point x="1028" y="1493" type="line" name="at02"/>
      <point x="1231" y="1493" type="line"/>
      <point x="1053" y="573" type="line"/>
      <point x="1041" y="509"/>
      <point x="1018" y="410"/>
      <point x="996" y="333"/>
      <point x="974" y="276"/>
      <point x="964" y="253" type="qcurve"/>
      <point x="939" y="199"/>
      <point x="877" y="118"/>
      <point x="838" y="86" type="qcurve"/>
      <point x="803" y="57"/>
      <point x="719" y="15"/>
      <point x="676" y="1" type="qcurve"/>
      <point x="584" y="-29"/>
    </contour>
  </outline>
</glyph>
<glyph name="V" format="1">
  <advance width="1233"/>
  <unicode hex="0056"/>
  <outline>
    <contour>
      <point x="199" y="1493" type="line" name="hr00"/>
      <point x="397" y="1493" type="line"/>
      <point x="510" y="190" type="line" name="iv01"/>
      <point x="1108" y="1493" type="line" name="at01"/>
      <point x="1323" y="1493" type="line"/>
      <point x="604" y="0" type="line" name="ab01"/>
      <point x="346" y="0" type="line"/>
    </contour>
  </outline>
</glyph>
<glyph name="W" format="1">
  <advance width="1233"/>
  <unicode hex="0057"/>
  <outline>
    <contour>
      <point x="145" y="1493" type="line" name="hr00"/>
      <point x="336" y="1493" type="line"/>
      <point x="246" y="283" type="line" name="iv01"/>
      <point x="575" y="1083" type="line"/>
      <point x="786" y="1083" type="line"/>
      <point x="801" y="281" type="line" name="iv02"/>
      <point x="1178" y="1493" type="line" name="at01"/>
      <point x="1376" y="1493" type="line"/>
      <point x="866" y="0" type="line" name="ab01"/>
      <point x="672" y="0" type="line"/>
      <point x="641" y="870" type="line" name="iv03"/>
      <point x="270" y="0" type="line" name="ab02"/>
      <point x="82" y="0" type="line"/>
    </contour>
  </outline>
</glyph>
<glyph name="X" format="1">
  <advance width="1233"/>
  <unicode hex="0058"/>
  <note>
	X
  </note>
  <outline>
    <contour>
      <point x="-111" y="0" type="line"/>
      <point x="120" y="0" type="line"/>
      <point x="626" y="612" type="line"/>
      <point x="880" y="0" type="line"/>
      <point x="1081" y="0" type="line"/>
      <point x="757" y="774" type="line"/>
      <point x="1353" y="1493" type="line"/>
      <point x="1122" y="1493" type="line"/>
      <point x="682" y="961" type="line"/>
      <point x="458" y="1493" type="line"/>
      <point x="258" y="1493" type="line"/>
      <point x="546" y="797" type="line"/>
    </contour>
  </outline>
</glyph>
<glyph name="Y" format="1">
  <advance width="1233"/>
  <unicode hex="0059"/>
  <outline>
    <contour>
      <point x="508" y="670" type="line" name="hr00"/>
      <point x="195" y="1493" type="line" name="at01"/>
      <point x="397" y="1493" type="line"/>
      <point x="633" y="842" type="line" name="iv01"/>
      <point x="1130" y="1493" type="line" name="at02"/>
      <point x="1348" y="1493" type="line"/>
      <point x="713" y="670" type="line"/>
      <point x="584" y="0" type="line" name="ab01"/>
      <point x="377" y="0" type="line"/>
    </contour>
  </outline>
</glyph>
<glyph name="bracketleft" format="1">
  <advance width="1233"/>
  <unicode hex="005B"/>
  <outline>
    <contour>
      <point x="682" y="1636" type="line" name="hr00"/>
      <point x="1106" y="1636" type="line" name="dv04"/>
      <point x="1083" y="1493" type="line" name="dv03"/>
      <point x="843" y="1493" type="line"/>
      <point x="587" y="-127" type="line"/>
      <point x="827" y="-127" type="line" name="dv02"/>
      <point x="804" y="-270" type="line" name="dv01"/>
      <point x="380" y="-270" type="line"/>
    </contour>
  </outline>
</glyph>
<glyph name="bracketright" format="1">
  <advance width="1233"/>
  <unicode hex="005D"/>
  <outline>
    <contour>
      <point x="366" y="-127" type="line" name="hr00"/>
      <point x="606" y="-127" type="line" name="dv02"/>
      <point x="862" y="1492" type="line" name="dv03"/>
      <point x="622" y="1492" type="line"/>
      <point x="645" y="1635" type="line"/>
      <point x="1069" y="1635" type="line" name="dv04"/>
      <point x="767" y="-270" type="line" name="dv01"/>
      <point x="343" y="-270" type="line"/>
    </contour>
  </outline>
</glyph>
<glyph name="b" format="1">
  <advance width="1233"/>
  <unicode hex="0062"/>
  <outline>
    <contour>
      <point x="535" y="-29" type="qcurve" name="dv01"/>
      <point x="438" y="-29"/>
      <point x="371" y="14" type="qcurve" name="ab01"/>
      <point x="305" y="57"/>
      <point x="270" y="141" type="qcurve" name="iv01"/>
      <point x="224" y="0" type="line" name="ab02"/>
      <point x="59" y="0" type="line"/>
      <point x="362" y="1556" type="line" name="at01"/>
      <point x="547" y="1556" type="line"/>
      <point x="434" y="977" type="line" name="iv02"/>
      <point x="495" y="1060"/>
      <point x="578" y="1104" type="qcurve"/>
      <point x="660" y="1147"/>
      <point x="763" y="1147" type="qcurve" name="at02"/>
      <point x="842" y="1147"/>
      <point x="972" y="1096"/>
      <point x="1018" y="1044" type="qcurve"/>
      <point x="1108" y="942"/>
      <point x="1108" y="748" type="qcurve" name="dh02"/>
      <point x="1108" y="682"/>
      <point x="1087" y="537"/>
      <point x="1067" y="465" type="qcurve"/>
      <point x="1048" y="398"/>
      <point x="993" y="272"/>
      <point x="954" y="213" type="qcurve"/>
      <point x="876" y="97"/>
      <point x="770" y="35" type="qcurve"/>
      <point x="714" y="3"/>
      <point x="596" y="-29"/>
    </contour>
    <contour>
      <point x="540" y="127" type="qcurve" name="dv02"/>
      <point x="623" y="127"/>
      <point x="691" y="172" type="qcurve"/>
      <point x="726" y="195"/>
      <point x="781" y="259"/>
      <point x="805" y="304" type="qcurve"/>
      <point x="830" y="350"/>
      <point x="870" y="459"/>
      <point x="883" y="513" type="qcurve"/>
      <point x="897" y="571"/>
      <point x="911" y="683"/>
      <point x="911" y="733" type="qcurve" name="dh01"/>
      <point x="911" y="795"/>
      <point x="888" y="894"/>
      <point x="861" y="929" type="qcurve"/>
      <point x="810" y="993"/>
      <point x="710" y="993" type="qcurve" name="sv01"/>
      <point x="666" y="993"/>
      <point x="589" y="969"/>
      <point x="557" y="947" type="qcurve"/>
      <point x="525" y="925"/>
      <point x="464" y="857"/>
      <point x="438" y="812" type="qcurve"/>
      <point x="412" y="766"/>
      <point x="375" y="666"/>
      <point x="361" y="611" type="qcurve" name="hr01"/>
      <point x="347" y="552"/>
      <point x="332" y="438"/>
      <point x="332" y="389" type="qcurve"/>
      <point x="332" y="326"/>
      <point x="357" y="229"/>
      <point x="385" y="194" type="qcurve"/>
      <point x="415" y="156"/>
      <point x="496" y="127"/>
    </contour>
  </outline>
</glyph>
<glyph name="d" format="1">
  <advance width="1233"/>
  <unicode hex="0064"/>
  <outline>
    <contour>
      <point x="462" y="-29" type="qcurve" name="dv01"/>
      <point x="377" y="-29"/>
      <point x="254" y="25"/>
      <point x="210" y="76" type="qcurve"/>
      <point x="164" y="129"/>
      <point x="119" y="274"/>
      <point x="119" y="374" type="qcurve" name="dh01"/>
      <point x="119" y="440"/>
      <point x="139" y="584"/>
      <point x="159" y="657" type="qcurve"/>
      <point x="180" y="733"/>
      <point x="236" y="858"/>
      <point x="268" y="909" type="qcurve"/>
      <point x="307" y="971"/>
      <point x="395" y="1058"/>
      <point x="445" y="1087" type="qcurve"/>
      <point x="495" y="1116"/>
      <point x="605" y="1147"/>
      <point x="668" y="1147" type="qcurve" name="at02"/>
      <point x="719" y="1147"/>
      <point x="803" y="1126"/>
      <point x="840" y="1104" type="qcurve"/>
      <point x="913" y="1060"/>
      <point x="954" y="977" type="qcurve" name="iv01"/>
      <point x="1069" y="1556" type="line" name="at01"/>
      <point x="1253" y="1556" type="line"/>
      <point x="950" y="0" type="line" name="ab01"/>
      <point x="786" y="0" type="line"/>
      <point x="793" y="141" type="line" name="iv02"/>
      <point x="729" y="58"/>
      <point x="646" y="14" type="qcurve" name="ab02"/>
      <point x="564" y="-29"/>
    </contour>
    <contour>
      <point x="518" y="127" type="qcurve" name="dv02"/>
      <point x="603" y="127"/>
      <point x="672" y="172" type="qcurve" name="hr01"/>
      <point x="707" y="195"/>
      <point x="763" y="260"/>
      <point x="788" y="305" type="qcurve"/>
      <point x="837" y="392"/>
      <point x="865" y="508" type="qcurve"/>
      <point x="879" y="564"/>
      <point x="893" y="677"/>
      <point x="893" y="727" type="qcurve"/>
      <point x="893" y="859"/>
      <point x="840" y="924" type="qcurve"/>
      <point x="815" y="955"/>
      <point x="736" y="991"/>
      <point x="682" y="991" type="qcurve" name="sv01"/>
      <point x="640" y="991"/>
      <point x="562" y="968"/>
      <point x="531" y="948" type="qcurve"/>
      <point x="499" y="927"/>
      <point x="440" y="859"/>
      <point x="417" y="817" type="qcurve"/>
      <point x="395" y="777"/>
      <point x="356" y="670"/>
      <point x="342" y="613" type="qcurve"/>
      <point x="328" y="556"/>
      <point x="315" y="439"/>
      <point x="315" y="388" type="qcurve" name="dh02"/>
      <point x="315" y="319"/>
      <point x="340" y="223"/>
      <point x="366" y="191" type="qcurve"/>
      <point x="417" y="127"/>
    </contour>
  </outline>
</glyph>
<glyph name="f" format="1">
  <advance width="1233"/>
  <unicode hex="0066"/>
  <outline>
    <contour>
      <point x="523" y="977" type="line" name="hr00"/>
      <point x="224" y="977" type="line" name="sv01"/>
      <point x="253" y="1120" type="line" name="at02"/>
      <point x="550" y="1120" type="line"/>
      <point x="566" y="1198" type="line"/>
      <point x="587" y="1301"/>
      <point x="652" y="1432"/>
      <point x="701" y="1474" type="qcurve"/>
      <point x="751" y="1516"/>
      <point x="890" y="1556"/>
      <point x="984" y="1556" type="qcurve" name="at01"/>
      <point x="1205" y="1556" type="line"/>
      <point x="1174" y="1403" type="line" name="sv02"/>
      <point x="966" y="1403" type="line"/>
      <point x="872" y="1403"/>
      <point x="823" y="1362" type="qcurve"/>
      <point x="797" y="1339"/>
      <point x="766" y="1268"/>
      <point x="755" y="1219" type="qcurve"/>
      <point x="734" y="1120" type="line" name="at03"/>
      <point x="1119" y="1120" type="line"/>
      <point x="1093" y="977" type="line" name="sv03"/>
      <point x="708" y="977" type="line" name="sv04"/>
      <point x="517" y="0" type="line" name="ab01"/>
      <point x="333" y="0" type="line"/>
    </contour>
  </outline>
</glyph>
<glyph name="j" format="1">
  <advance width="1233"/>
  <unicode hex="006A"/>
  <outline>
    <contour>
      <point x="811" y="1323" type="line" name="hr00"/>
      <point x="796" y="1323"/>
      <point x="781" y="1341"/>
      <point x="784" y="1356" type="qcurve"/>
      <point x="818" y="1529" type="line"/>
      <point x="822" y="1556"/>
      <point x="850" y="1556" type="qcurve" name="at01"/>
      <point x="974" y="1556" type="line"/>
      <point x="989" y="1556"/>
      <point x="1004" y="1538"/>
      <point x="1001" y="1523" type="qcurve"/>
      <point x="967" y="1350" type="line"/>
      <point x="962" y="1323"/>
      <point x="935" y="1323" type="qcurve"/>
    </contour>
    <contour>
      <point x="55" y="-270" type="line"/>
      <point x="288" y="-270" type="line" name="dv02"/>
      <point x="333" y="-270"/>
      <point x="410" y="-241"/>
      <point x="438" y="-211" type="qcurve"/>
      <point x="492" y="-153"/>
      <point x="518" y="-20" type="qcurve"/>
      <point x="710" y="977" type="line" name="sv01"/>
      <point x="393" y="977" type="line"/>
      <point x="421" y="1120" type="line" name="at02"/>
      <point x="923" y="1120" type="line"/>
      <point x="702" y="-20" type="line"/>
      <point x="683" y="-117"/>
      <point x="615" y="-277"/>
      <point x="560" y="-330" type="qcurve"/>
      <point x="459" y="-426"/>
      <point x="278" y="-426" type="qcurve" name="dv01"/>
      <point x="24" y="-426" type="line"/>
    </contour>
  </outline>
</glyph>
<glyph name="k" format="1">
  <advance width="1233"/>
  <unicode hex="006B"/>
  <outline>
    <contour>
      <point x="393" y="1556" type="line" name="hr00"/>
      <point x="584" y="1556" type="line"/>
      <point x="414" y="682" type="line" name="iv01"/>
      <point x="963" y="1120" type="line" name="at01"/>
      <point x="1204" y="1120" type="line" name="iv02"/>
      <point x="684" y="698" type="line"/>
      <point x="1057" y="0" type="line" name="ab01"/>
      <point x="844" y="0" type="line"/>
      <point x="537" y="582" type="line"/>
      <point x="369" y="449" type="line"/>
      <point x="281" y="0" type="line" name="ab02"/>
      <point x="90" y="0" type="line"/>
    </contour>
  </outline>
</glyph>
<glyph name="l" format="1">
  <advance width="1233"/>
  <unicode hex="006C"/>
  <outline>
    <contour>
      <point x="739" y="-8" type="line" name="hr00"/>
      <point x="565" y="-8"/>
      <point x="482" y="56" type="qcurve"/>
      <point x="441" y="87"/>
      <point x="397" y="182"/>
      <point x="397" y="248" type="qcurve" name="dh01"/>
      <point x="397" y="265"/>
      <point x="400" y="299"/>
      <point x="402" y="318" type="qcurve" name="sh01"/>
      <point x="404" y="337"/>
      <point x="411" y="378"/>
      <point x="416" y="404" type="qcurve"/>
      <point x="627" y="1412" type="line" name="sv01"/>
      <point x="311" y="1412" type="line"/>
      <point x="340" y="1556" type="line" name="at01"/>
      <point x="840" y="1556" type="line"/>
      <point x="600" y="400" type="line"/>
      <point x="596" y="382"/>
      <point x="593" y="360"/>
      <point x="592" y="347"/>
      <point x="592" y="342"/>
      <point x="592" y="340" type="qcurve" name="sh02"/>
      <point x="592" y="335"/>
      <point x="586" y="320"/>
      <point x="586" y="295" type="qcurve" name="dh02"/>
      <point x="586" y="219"/>
      <point x="630" y="184" type="qcurve"/>
      <point x="675" y="148"/>
      <point x="766" y="148" type="qcurve" name="sv02"/>
      <point x="977" y="148" type="line" name="sv03"/>
      <point x="946" y="-8" type="line" name="ab01"/>
    </contour>
  </outline>
</glyph>
<glyph name="m" format="1">
  <advance width="1233"/>
  <unicode hex="006D"/>
  <outline>
    <contour>
      <point x="203" y="1120" type="line" name="at01"/>
      <point x="351" y="1120" type="line"/>
      <point x="352" y="1024" type="line" name="iv01"/>
      <point x="395" y="1084"/>
      <point x="452" y="1116" type="qcurve" name="at02"/>
      <point x="507" y="1147"/>
      <point x="572" y="1147" type="qcurve" name="at05"/>
      <point x="646" y="1147"/>
      <point x="692" y="1110" type="qcurve" name="at03"/>
      <point x="737" y="1073"/>
      <point x="748" y="1006" type="qcurve" name="iv02"/>
      <point x="768" y="1041"/>
      <point x="821" y="1094"/>
      <point x="850" y="1111" type="qcurve" name="at04"/>
      <point x="881" y="1129"/>
      <point x="952" y="1147"/>
      <point x="987" y="1147" type="qcurve" name="at06"/>
      <point x="1029" y="1147"/>
      <point x="1101" y="1121"/>
      <point x="1127" y="1094" type="qcurve"/>
      <point x="1157" y="1062"/>
      <point x="1178" y="981"/>
      <point x="1178" y="943" type="qcurve"/>
      <point x="1178" y="923"/>
      <point x="1174" y="858"/>
      <point x="1169" y="824" type="qcurve"/>
      <point x="1167" y="806"/>
      <point x="1161" y="770"/>
      <point x="1154" y="729"/>
      <point x="1145" y="680"/>
      <point x="1139" y="649" type="qcurve"/>
      <point x="1012" y="0" type="line" name="ab01"/>
      <point x="844" y="0" type="line"/>
      <point x="969" y="641" type="line"/>
      <point x="972" y="656"/>
      <point x="981" y="702"/>
      <point x="989" y="747"/>
      <point x="996" y="785"/>
      <point x="997" y="792" type="qcurve"/>
      <point x="1002" y="818"/>
      <point x="1006" y="866"/>
      <point x="1006" y="881" type="qcurve"/>
      <point x="1006" y="905"/>
      <point x="994" y="951"/>
      <point x="983" y="965" type="qcurve"/>
      <point x="961" y="993"/>
      <point x="909" y="993" type="qcurve" name="sv01"/>
      <point x="868" y="993"/>
      <point x="813" y="961"/>
      <point x="793" y="929" type="qcurve"/>
      <point x="769" y="891"/>
      <point x="730" y="756"/>
      <point x="707" y="641" type="qcurve"/>
      <point x="582" y="0" type="line" name="ab02"/>
      <point x="414" y="0" type="line"/>
      <point x="539" y="641" type="line"/>
      <point x="542" y="654"/>
      <point x="549" y="694"/>
      <point x="557" y="737"/>
      <point x="565" y="779"/>
      <point x="567" y="795" type="qcurve"/>
      <point x="570" y="815"/>
      <point x="575" y="863"/>
      <point x="575" y="881" type="qcurve"/>
      <point x="575" y="904"/>
      <point x="565" y="946"/>
      <point x="552" y="963" type="qcurve"/>
      <point x="529" y="993"/>
      <point x="478" y="993" type="qcurve" name="sv02"/>
      <point x="443" y="993"/>
      <point x="387" y="966"/>
      <point x="366" y="934" type="qcurve"/>
      <point x="355" y="917"/>
      <point x="334" y="867"/>
      <point x="313" y="797"/>
      <point x="291" y="702"/>
      <point x="279" y="641" type="qcurve"/>
      <point x="154" y="0" type="line" name="hr01"/>
      <point x="-14" y="0" type="line"/>
    </contour>
  </outline>
</glyph>
<glyph name="n" format="1">
  <advance width="1233"/>
  <unicode hex="006E"/>
  <note>
	n
  </note>
  <outline>
    <contour>
      <point x="84" y="0" type="line"/>
      <point x="268" y="0" type="line"/>
      <point x="391" y="633" type="line" smooth="yes"/>
      <point x="413" y="744"/>
      <point x="454" y="831"/>
      <point x="513" y="894" type="curve" smooth="yes"/>
      <point x="572" y="956"/>
      <point x="644" y="987"/>
      <point x="730" y="987" type="curve" smooth="yes"/>
      <point x="788" y="987"/>
      <point x="832" y="973"/>
      <point x="863" y="944" type="curve" smooth="yes"/>
      <point x="894" y="915"/>
      <point x="909" y="876"/>
      <point x="909" y="817" type="curve" smooth="yes"/>
      <point x="909" y="783"/>
      <point x="905" y="764"/>
      <point x="894" y="709" type="curve"/>
      <point x="891" y="701"/>
      <point x="895" y="707"/>
      <point x="891" y="695" type="curve"/>
      <point x="756" y="0" type="line"/>
      <point x="940" y="0" type="line"/>
      <point x="1075" y="694" type="line" smooth="yes"/>
      <point x="1084" y="741"/>
      <point x="1088" y="766"/>
      <point x="1091" y="793" type="curve" smooth="yes"/>
      <point x="1094" y="820"/>
      <point x="1096" y="854"/>
      <point x="1096" y="877" type="curve" smooth="yes"/>
      <point x="1096" y="957"/>
      <point x="1070" y="1028"/>
      <point x="1019" y="1075" type="curve" smooth="yes"/>
      <point x="968" y="1123"/>
      <point x="895" y="1147"/>
      <point x="807" y="1147" type="curve" smooth="yes"/>
      <point x="732" y="1147"/>
      <point x="675" y="1130"/>
      <point x="618" y="1098" type="curve" smooth="yes"/>
      <point x="559" y="1065"/>
      <point x="504" y="1016"/>
      <point x="455" y="952" type="curve"/>
      <point x="467" y="1120" type="line"/>
      <point x="303" y="1120" type="line"/>
    </contour>
  </outline>
</glyph>
<glyph name="p" format="1">
  <advance width="1233"/>
  <unicode hex="0070"/>
  <note>
	p
  </note>
  <outline>
    <contour>
      <point x="-2" y="-426" type="line"/>
      <point x="182" y="-426" type="line"/>
      <point x="293" y="141" type="line"/>
      <point x="322" y="84"/>
      <point x="360" y="42"/>
      <point x="408" y="13" type="curve" smooth="yes"/>
      <point x="455" y="-15"/>
      <point x="511" y="-29"/>
      <point x="578" y="-29" type="curve" smooth="yes"/>
      <point x="660" y="-29"/>
      <point x="735" y="-9"/>
      <point x="802" y="32" type="curve" smooth="yes"/>
      <point x="870" y="73"/>
      <point x="928" y="131"/>
      <point x="979" y="211" type="curve" smooth="yes"/>
      <point x="1020" y="275"/>
      <point x="1061" y="362"/>
      <point x="1089" y="465" type="curve" smooth="yes"/>
      <point x="1116" y="561"/>
      <point x="1128" y="659"/>
      <point x="1128" y="744" type="curve" smooth="yes"/>
      <point x="1128" y="873"/>
      <point x="1100" y="974"/>
      <point x="1040" y="1043" type="curve" smooth="yes"/>
      <point x="979" y="1115"/>
      <point x="889" y="1147"/>
      <point x="788" y="1147" type="curve" smooth="yes"/>
      <point x="721" y="1147"/>
      <point x="659" y="1132"/>
      <point x="602" y="1103" type="curve" smooth="yes"/>
      <point x="545" y="1074"/>
      <point x="496" y="1032"/>
      <point x="455" y="977" type="curve"/>
      <point x="463" y="1120" type="line"/>
      <point x="299" y="1120" type="line"/>
    </contour>
    <contour>
      <point x="500" y="127"/>
      <point x="446" y="150"/>
      <point x="409" y="194" type="curve" smooth="yes"/>
      <point x="373" y="237"/>
      <point x="354" y="300"/>
      <point x="354" y="392" type="curve" smooth="yes"/>
      <point x="354" y="455"/>
      <point x="363" y="535"/>
      <point x="382" y="611" type="curve" smooth="yes"/>
      <point x="399" y="682"/>
      <point x="424" y="752"/>
      <point x="459" y="813" type="curve" smooth="yes"/>
      <point x="492" y="873"/>
      <point x="527" y="914"/>
      <point x="576" y="946" type="curve" smooth="yes"/>
      <point x="622" y="976"/>
      <point x="673" y="991"/>
      <point x="728" y="991" type="curve" smooth="yes"/>
      <point x="793" y="991"/>
      <point x="847" y="972"/>
      <point x="883" y="928" type="curve" smooth="yes"/>
      <point x="915" y="889"/>
      <point x="934" y="828"/>
      <point x="934" y="731" type="curve" smooth="yes"/>
      <point x="934" y="664"/>
      <point x="925" y="586"/>
      <point x="906" y="509" type="curve" smooth="yes"/>
      <point x="889" y="437"/>
      <point x="861" y="361"/>
      <point x="829" y="301" type="curve" smooth="yes"/>
      <point x="798" y="244"/>
      <point x="763" y="203"/>
      <point x="718" y="172" type="curve" smooth="yes"/>
      <point x="675" y="144"/>
      <point x="624" y="127"/>
      <point x="567" y="127" type="curve" smooth="yes"/>
    </contour>
  </outline>
</glyph>
<glyph name="q" format="1">
  <advance width="1233"/>
  <unicode hex="0071"/>
  <outline>
    <contour>
      <point x="774" y="141" type="line" name="iv01"/>
      <point x="712" y="57"/>
      <point x="631" y="14" type="qcurve"/>
      <point x="549" y="-29"/>
      <point x="446" y="-29" type="qcurve" name="dv01"/>
      <point x="365" y="-29"/>
      <point x="236" y="22"/>
      <point x="190" y="73" type="qcurve"/>
      <point x="146" y="122"/>
      <point x="98" y="270"/>
      <point x="98" y="372" type="qcurve" name="dh01"/>
      <point x="98" y="437"/>
      <point x="119" y="579"/>
      <point x="139" y="652" type="qcurve"/>
      <point x="159" y="722"/>
      <point x="215" y="852"/>
      <point x="252" y="909" type="qcurve"/>
      <point x="291" y="970"/>
      <point x="379" y="1057"/>
      <point x="432" y="1087" type="qcurve"/>
      <point x="537" y="1147"/>
      <point x="663" y="1147" type="qcurve" name="at02"/>
      <point x="720" y="1147"/>
      <point x="803" y="1125"/>
      <point x="834" y="1105" type="qcurve"/>
      <point x="902" y="1062"/>
      <point x="936" y="977" type="qcurve" name="iv02"/>
      <point x="983" y="1120" type="line" name="at01"/>
      <point x="1147" y="1120" type="line"/>
      <point x="848" y="-426" type="line" name="av01"/>
      <point x="664" y="-426" type="line"/>
    </contour>
    <contour>
      <point x="496" y="127" type="qcurve" name="hr01"/>
      <point x="581" y="127"/>
      <point x="650" y="173" type="qcurve"/>
      <point x="686" y="197"/>
      <point x="746" y="267"/>
      <point x="768" y="305" type="qcurve"/>
      <point x="816" y="389"/>
      <point x="845" y="508" type="qcurve"/>
      <point x="859" y="567"/>
      <point x="874" y="681"/>
      <point x="874" y="731" type="qcurve" name="hr02"/>
      <point x="874" y="794"/>
      <point x="849" y="892"/>
      <point x="821" y="926" type="qcurve"/>
      <point x="768" y="991"/>
      <point x="667" y="991" type="qcurve" name="sv01"/>
      <point x="583" y="991"/>
      <point x="515" y="947" type="qcurve"/>
      <point x="480" y="924"/>
      <point x="424" y="860"/>
      <point x="401" y="816" type="qcurve"/>
      <point x="376" y="770"/>
      <point x="338" y="663"/>
      <point x="324" y="607" type="qcurve"/>
      <point x="295" y="489"/>
      <point x="295" y="386" type="qcurve" name="dh02"/>
      <point x="295" y="255"/>
      <point x="346" y="191" type="qcurve"/>
      <point x="397" y="127"/>
    </contour>
  </outline>
</glyph>
<glyph name="r" format="1">
  <advance width="1233"/>
  <unicode hex="0072"/>
  <outline>
    <contour>
      <point x="404" y="1120" type="line" name="at01"/>
      <point x="568" y="1120" type="line"/>
      <point x="548" y="901" type="line" name="iv01"/>
      <point x="615" y="1021"/>
      <point x="722" y="1084" type="qcurve"/>
      <point x="828" y="1147"/>
      <point x="961" y="1147" type="qcurve" name="at03"/>
      <point x="996" y="1147"/>
      <point x="1064" y="1138"/>
      <point x="1092" y="1129" type="qcurve" name="at02"/>
      <point x="1117" y="1121"/>
      <point x="1168" y="1093"/>
      <point x="1189" y="1075" type="qcurve"/>
      <point x="1154" y="889" type="line" name="iv02"/>
      <point x="1131" y="911"/>
      <point x="1078" y="944"/>
      <point x="1050" y="955" type="qcurve"/>
      <point x="1020" y="966"/>
      <point x="952" y="977"/>
      <point x="917" y="977" type="qcurve" name="sv01"/>
      <point x="835" y="977"/>
      <point x="691" y="921"/>
      <point x="633" y="864" type="qcurve"/>
      <point x="575" y="807"/>
      <point x="497" y="647"/>
      <point x="478" y="549" type="qcurve"/>
      <point x="371" y="0" type="line" name="hr01"/>
      <point x="187" y="0" type="line"/>
    </contour>
  </outline>
</glyph>
<glyph name="t" format="1">
  <advance width="1233"/>
  <unicode hex="0074"/>
  <outline>
    <contour>
      <point x="682" y="-4" type="line" name="ab01"/>
      <point x="593" y="-4"/>
      <point x="475" y="26"/>
      <point x="437" y="52" type="qcurve"/>
      <point x="397" y="80"/>
      <point x="358" y="162"/>
      <point x="358" y="222" type="qcurve" name="dh01"/>
      <point x="358" y="234"/>
      <point x="360" y="267"/>
      <point x="362" y="284" type="qcurve"/>
      <point x="364" y="297"/>
      <point x="370" y="339"/>
      <point x="375" y="365" type="qcurve"/>
      <point x="494" y="977" type="line" name="sv01"/>
      <point x="195" y="977" type="line" name="sv02"/>
      <point x="223" y="1120" type="line" name="at01"/>
      <point x="522" y="1120" type="line"/>
      <point x="584" y="1438" type="line" name="sv03"/>
      <point x="768" y="1438" type="line"/>
      <point x="707" y="1120" type="line" name="hr01"/>
      <point x="1124" y="1120" type="line"/>
      <point x="1096" y="977" type="line" name="hr02"/>
      <point x="678" y="977" type="line" name="sv04"/>
      <point x="559" y="365" type="line"/>
      <point x="556" y="348"/>
      <point x="553" y="330"/>
      <point x="551" y="320"/>
      <point x="551" y="315"/>
      <point x="550" y="310" type="qcurve" name="sh01"/>
      <point x="547" y="284"/>
      <point x="547" y="263" type="qcurve" name="dh02"/>
      <point x="547" y="196"/>
      <point x="586" y="170" type="qcurve"/>
      <point x="625" y="143"/>
      <point x="727" y="143" type="qcurve" name="sv05"/>
      <point x="934" y="143" type="line" name="sv06"/>
      <point x="905" y="-4" type="line" name="ab02"/>
    </contour>
  </outline>
</glyph>
<glyph name="y" format="1">
  <advance width="1233"/>
  <unicode hex="0079"/>
  <outline>
    <contour>
      <point x="20" y="-272" type="line" name="hr00"/>
      <point x="128" y="-272" type="line" name="dv02"/>
      <point x="211" y="-272"/>
      <point x="268" y="-225" type="qcurve"/>
      <point x="330" y="-175"/>
      <point x="386" y="-66" type="qcurve"/>
      <point x="429" y="18" type="line"/>
      <point x="212" y="1120" type="line" name="at01"/>
      <point x="395" y="1120" type="line"/>
      <point x="567" y="258" type="line"/>
      <point x="1050" y="1120" type="line" name="at02"/>
      <point x="1255" y="1120" type="line"/>
      <point x="816" y="360" type="line"/>
      <point x="783" y="302"/>
      <point x="745" y="238"/>
      <point x="724" y="201"/>
      <point x="713" y="181"/>
      <point x="699" y="156"/>
      <point x="674" y="113"/>
      <point x="651" y="72" type="qcurve"/>
      <point x="600" y="-18"/>
      <point x="533" y="-134"/>
      <point x="488" y="-209"/>
      <point x="457" y="-255"/>
      <point x="442" y="-275" type="qcurve"/>
      <point x="415" y="-310"/>
      <point x="352" y="-369"/>
      <point x="310" y="-389" type="qcurve"/>
      <point x="236" y="-426"/>
      <point x="139" y="-426" type="qcurve" name="dv01"/>
      <point x="-9" y="-426" type="line"/>
    </contour>
  </outline>
</glyph>
<glyph name="braceleft" format="1">
  <advance width="1233"/>
  <unicode hex="007B"/>
  <outline>
    <contour>
      <point x="685" y="-334" type="line" name="hr00"/>
      <point x="498" y="-334"/>
      <point x="417" y="-280" type="qcurve"/>
      <point x="335" y="-225"/>
      <point x="335" y="-102" type="qcurve"/>
      <point x="335" y="-89" type="line" name="dh01"/>
      <point x="334" y="-75"/>
      <point x="336" y="-54"/>
      <point x="338" y="-37" type="qcurve"/>
      <point x="342" y="-8"/>
      <point x="347" y="23"/>
      <point x="349" y="34" type="qcurve"/>
      <point x="394" y="270" type="line"/>
      <point x="396" y="275"/>
      <point x="396" y="280"/>
      <point x="397" y="282" type="qcurve"/>
      <point x="402" y="307"/>
      <point x="407" y="347"/>
      <point x="407" y="372" type="qcurve"/>
      <point x="407" y="421"/>
      <point x="383" y="481"/>
      <point x="358" y="500" type="qcurve"/>
      <point x="309" y="537"/>
      <point x="196" y="537" type="qcurve" name="dv02"/>
      <point x="104" y="537" type="line"/>
      <point x="133" y="684" type="line"/>
      <point x="224" y="684" type="line" name="dv03"/>
      <point x="370" y="684"/>
      <point x="432" y="739" type="qcurve"/>
      <point x="494" y="793"/>
      <point x="525" y="944" type="qcurve"/>
      <point x="575" y="1188" type="line"/>
      <point x="600" y="1312"/>
      <point x="636" y="1382" type="qcurve"/>
      <point x="672" y="1453"/>
      <point x="726" y="1493" type="qcurve"/>
      <point x="748" y="1509"/>
      <point x="803" y="1534"/>
      <point x="843" y="1542" type="qcurve" name="at01"/>
      <point x="877" y="1549"/>
      <point x="975" y="1556"/>
      <point x="1044" y="1556" type="qcurve" name="at02"/>
      <point x="1126" y="1556" type="line"/>
      <point x="1097" y="1413" type="line" name="sv01"/>
      <point x="1012" y="1413" type="line"/>
      <point x="943" y="1413"/>
      <point x="859" y="1394"/>
      <point x="836" y="1374" type="qcurve"/>
      <point x="811" y="1352"/>
      <point x="773" y="1256"/>
      <point x="759" y="1184" type="qcurve"/>
      <point x="708" y="932" type="line"/>
      <point x="693" y="857"/>
      <point x="648" y="740"/>
      <point x="615" y="700" type="qcurve"/>
      <point x="556" y="629"/>
      <point x="444" y="606" type="qcurve" name="ih01"/>
      <point x="516" y="588"/>
      <point x="557" y="537" type="qcurve"/>
      <point x="597" y="485"/>
      <point x="597" y="410" type="qcurve"/>
      <point x="598" y="397"/>
      <point x="597" y="378"/>
      <point x="594" y="353" type="qcurve"/>
      <point x="592" y="337"/>
      <point x="590" y="320"/>
      <point x="588" y="308"/>
      <point x="585" y="295"/>
      <point x="583" y="283" type="qcurve"/>
      <point x="536" y="39" type="line"/>
      <point x="532" y="19"/>
      <point x="529" y="-7"/>
      <point x="528" y="-20" type="qcurve" name="dh02"/>
      <point x="527" y="-37"/>
      <point x="526" y="-54"/>
      <point x="526" y="-63"/>
      <point x="525" y="-67"/>
      <point x="525" y="-70" type="qcurve" name="sh01"/>
      <point x="525" y="-134"/>
      <point x="568" y="-162" type="qcurve"/>
      <point x="611" y="-190"/>
      <point x="708" y="-190" type="qcurve" name="dv01"/>
      <point x="786" y="-190" type="line"/>
      <point x="757" y="-334" type="line" name="sv02"/>
    </contour>
  </outline>
</glyph>
<glyph name="bar" format="1">
  <advance width="1233"/>
  <unicode hex="007C"/>
  <outline>
    <contour>
      <point x="702" y="455" type="line" name="hr00"/>
      <point x="702" y="-483" type="line"/>
      <point x="530" y="-483" type="line"/>
      <point x="530" y="455" type="line"/>
    </contour>
    <contour>
      <point x="530" y="627" type="line"/>
      <point x="530" y="1565" type="line"/>
      <point x="702" y="1565" type="line"/>
      <point x="702" y="627" type="line"/>
    </contour>
  </outline>
</glyph>
<glyph name="currency" format="1">
  <advance width="1233"/>
  <unicode hex="00A4"/>
  <note>
	currency
  </note>
  <outline>
    <contour>
      <point x="297" y="195" type="line"/>
      <point x="461" y="358" type="line"/>
      <point x="500" y="335"/>
      <point x="522" y="327"/>
      <point x="557" y="316" type="curve" smooth="yes"/>
      <point x="592" y="305"/>
      <point x="617" y="301"/>
      <point x="652" y="301" type="curve" smooth="yes"/>
      <point x="685" y="301"/>
      <point x="718" y="306"/>
      <point x="749" y="316" type="curve" smooth="yes"/>
      <point x="779" y="326"/>
      <point x="809" y="341"/>
      <point x="840" y="362" type="curve"/>
      <point x="1006" y="195" type="line"/>
      <point x="1100" y="289" type="line"/>
      <point x="932" y="455" type="line"/>
      <point x="953" y="484"/>
      <point x="968" y="515"/>
      <point x="978" y="546" type="curve" smooth="yes"/>
      <point x="988" y="576"/>
      <point x="993" y="607"/>
      <point x="993" y="640" type="curve" smooth="yes"/>
      <point x="993" y="671"/>
      <point x="988" y="707"/>
      <point x="979" y="736" type="curve" smooth="yes"/>
      <point x="972" y="760"/>
      <point x="954" y="798"/>
      <point x="934" y="831" type="curve"/>
      <point x="1100" y="997" type="line"/>
      <point x="1010" y="1090" type="line"/>
      <point x="844" y="924" type="line"/>
      <point x="812" y="943"/>
      <point x="775" y="960"/>
      <point x="746" y="969" type="curve" smooth="yes"/>
      <point x="717" y="978"/>
      <point x="682" y="983"/>
      <point x="651" y="983" type="curve" smooth="yes"/>
      <point x="618" y="983"/>
      <point x="587" y="978"/>
      <point x="557" y="968" type="curve" smooth="yes"/>
      <point x="526" y="958"/>
      <point x="496" y="943"/>
      <point x="465" y="922" type="curve"/>
      <point x="299" y="1090" type="line"/>
      <point x="205" y="995" type="line"/>
      <point x="373" y="829" type="line"/>
      <point x="353" y="800"/>
      <point x="338" y="770"/>
      <point x="327" y="738" type="curve" smooth="yes"/>
      <point x="316" y="707"/>
      <point x="311" y="679"/>
      <point x="311" y="642" type="curve" smooth="yes"/>
      <point x="311" y="607"/>
      <point x="315" y="581"/>
      <point x="326" y="549" type="curve" smooth="yes"/>
      <point x="337" y="517"/>
      <point x="346" y="492"/>
      <point x="371" y="451" type="curve"/>
      <point x="205" y="285" type="line"/>
    </contour>
    <contour>
      <point x="592" y="426"/>
      <point x="540" y="449"/>
      <point x="500" y="489" type="curve" smooth="yes"/>
      <point x="459" y="532"/>
      <point x="438" y="583"/>
      <point x="438" y="642" type="curve" smooth="yes"/>
      <point x="438" y="706"/>
      <point x="462" y="759"/>
      <point x="501" y="796" type="curve" smooth="yes"/>
      <point x="542" y="836"/>
      <point x="596" y="856"/>
      <point x="653" y="856" type="curve" smooth="yes"/>
      <point x="713" y="856"/>
      <point x="767" y="835"/>
      <point x="807" y="795" type="curve" smooth="yes"/>
      <point x="846" y="756"/>
      <point x="868" y="703"/>
      <point x="868" y="643" type="curve" smooth="yes"/>
      <point x="868" y="583"/>
      <point x="846" y="529"/>
      <point x="806" y="488" type="curve" smooth="yes"/>
      <point x="765" y="447"/>
      <point x="712" y="426"/>
      <point x="653" y="426" type="curve" smooth="yes"/>
    </contour>
  </outline>
</glyph>
<glyph name="logicalnot" format="1">
  <advance width="1233"/>
  <unicode hex="00AC"/>
  <outline>
    <contour>
      <point x="977" y="690" type="line" name="dh01"/>
      <point x="88" y="690" type="line"/>
      <point x="88" y="862" type="line"/>
      <point x="1145" y="862" type="line" name="dh02"/>
      <point x="1145" y="371" type="line" name="hr01"/>
      <point x="977" y="371" type="line"/>
    </contour>
  </outline>
</glyph>
<glyph name="uni00AD" format="1">
  <advance width="1233"/>
  <unicode hex="00AD"/>
  <outline>
    <contour>
      <point x="336" y="643" type="line" name="hr00"/>
      <point x="858" y="643" type="line" name="dv02"/>
      <point x="825" y="479" type="line" name="dv01"/>
      <point x="303" y="479" type="line"/>
    </contour>
  </outline>
</glyph>
<glyph name="registered" format="1">
  <advance width="1233"/>
  <unicode hex="00AE"/>
  <outline>
    <contour>
      <point x="616" y="125" type="qcurve" name="hr00"/>
      <point x="550" y="125"/>
      <point x="436" y="148"/>
      <point x="382" y="171" type="qcurve"/>
      <point x="328" y="194"/>
      <point x="226" y="262"/>
      <point x="181" y="307" type="qcurve"/>
      <point x="137" y="351"/>
      <point x="69" y="452"/>
      <point x="46" y="507" type="qcurve"/>
      <point x="23" y="561"/>
      <point x="0" y="675"/>
      <point x="0" y="741" type="qcurve" name="dh01"/>
      <point x="0" y="869"/>
      <point x="46" y="977" type="qcurve"/>
      <point x="69" y="1031"/>
      <point x="137" y="1132"/>
      <point x="182" y="1178" type="qcurve"/>
      <point x="225" y="1222"/>
      <point x="324" y="1290"/>
      <point x="381" y="1313" type="qcurve"/>
      <point x="490" y="1358"/>
      <point x="616" y="1358" type="qcurve" name="dv03"/>
      <point x="742" y="1358"/>
      <point x="852" y="1313" type="qcurve"/>
      <point x="909" y="1290"/>
      <point x="1009" y="1221"/>
      <point x="1051" y="1178" type="qcurve"/>
      <point x="1100" y="1128"/>
      <point x="1167" y="1025"/>
      <point x="1187" y="977" type="qcurve"/>
      <point x="1233" y="869"/>
      <point x="1233" y="742" type="qcurve" name="dh08"/>
      <point x="1233" y="614"/>
      <point x="1188" y="508" type="qcurve"/>
      <point x="1166" y="456"/>
      <point x="1097" y="352"/>
      <point x="1052" y="307" type="qcurve"/>
      <point x="1010" y="265"/>
      <point x="908" y="195"/>
      <point x="851" y="171" type="qcurve"/>
      <point x="743" y="125"/>
    </contour>
    <contour>
      <point x="617" y="227" type="qcurve" name="dv01"/>
      <point x="721" y="227"/>
      <point x="812" y="265" type="qcurve"/>
      <point x="859" y="285"/>
      <point x="944" y="343"/>
      <point x="979" y="378" type="qcurve"/>
      <point x="1013" y="412"/>
      <point x="1074" y="500"/>
      <point x="1093" y="546" type="qcurve"/>
      <point x="1130" y="635"/>
      <point x="1130" y="741" type="qcurve" name="dh07"/>
      <point x="1130" y="795"/>
      <point x="1111" y="893"/>
      <point x="1092" y="939" type="qcurve"/>
      <point x="1054" y="1031"/>
      <point x="979" y="1106" type="qcurve"/>
      <point x="905" y="1180"/>
      <point x="814" y="1218" type="qcurve"/>
      <point x="724" y="1255"/>
      <point x="616" y="1255" type="qcurve" name="dv02"/>
      <point x="509" y="1255"/>
      <point x="420" y="1218" type="qcurve"/>
      <point x="328" y="1180"/>
      <point x="254" y="1106" type="qcurve"/>
      <point x="178" y="1030"/>
      <point x="141" y="939" type="qcurve"/>
      <point x="102" y="846"/>
      <point x="102" y="742" type="qcurve" name="dh02"/>
      <point x="102" y="688"/>
      <point x="121" y="593"/>
      <point x="141" y="546" type="qcurve"/>
      <point x="165" y="489"/>
      <point x="225" y="408"/>
      <point x="254" y="379" type="qcurve"/>
      <point x="292" y="341"/>
      <point x="373" y="285"/>
      <point x="421" y="265" type="qcurve"/>
      <point x="466" y="246"/>
      <point x="563" y="227"/>
    </contour>
    <contour>
      <point x="362" y="1100" type="line" name="dh03"/>
      <point x="600" y="1100" type="line" name="dv05"/>
      <point x="748" y="1100"/>
      <point x="819" y="1051" type="qcurve"/>
      <point x="891" y="1001"/>
      <point x="891" y="903" type="qcurve" name="dh06"/>
      <point x="891" y="865"/>
      <point x="869" y="807"/>
      <point x="847" y="784" type="qcurve"/>
      <point x="803" y="737"/>
      <point x="723" y="723" type="qcurve" name="ih01"/>
      <point x="733" y="721"/>
      <point x="757" y="701"/>
      <point x="771" y="685" type="qcurve"/>
      <point x="777" y="677"/>
      <point x="795" y="655"/>
      <point x="813" y="629"/>
      <point x="831" y="603"/>
      <point x="838" y="592" type="qcurve"/>
      <point x="952" y="406" type="line" name="ih02"/>
      <point x="809" y="406" type="line"/>
      <point x="702" y="580" type="line"/>
      <point x="678" y="619"/>
      <point x="637" y="671"/>
      <point x="623" y="681" type="qcurve"/>
      <point x="594" y="702"/>
      <point x="547" y="702" type="qcurve"/>
      <point x="492" y="702" type="line" name="sh01"/>
      <point x="492" y="406" type="line"/>
      <point x="362" y="406" type="line"/>
    </contour>
    <contour>
      <point x="594" y="784" type="line"/>
      <point x="683" y="784"/>
      <point x="721" y="811" type="qcurve"/>
      <point x="758" y="838"/>
      <point x="758" y="900" type="qcurve" name="dh05"/>
      <point x="758" y="929"/>
      <point x="741" y="976"/>
      <point x="721" y="990" type="qcurve"/>
      <point x="683" y="1016"/>
      <point x="594" y="1016" type="qcurve" name="dv04"/>
      <point x="492" y="1016" type="line" name="dh04"/>
      <point x="492" y="784" type="line"/>
    </contour>
  </outline>
</glyph>
<glyph name="degree" format="1">
  <advance width="1233"/>
  <unicode hex="00B0"/>
  <outline>
    <contour>
      <point x="612" y="885" type="qcurve" name="hr00"/>
      <point x="549" y="885"/>
      <point x="433" y="930"/>
      <point x="388" y="975" type="qcurve"/>
      <point x="348" y="1015"/>
      <point x="299" y="1129"/>
      <point x="299" y="1199" type="qcurve" name="sh01"/>
      <point x="299" y="1266"/>
      <point x="346" y="1382"/>
      <point x="390" y="1427" type="qcurve"/>
      <point x="433" y="1471"/>
      <point x="548" y="1520"/>
      <point x="615" y="1520" type="qcurve" name="at01"/>
      <point x="645" y="1520"/>
      <point x="710" y="1509"/>
      <point x="740" y="1496" type="qcurve"/>
      <point x="769" y="1484"/>
      <point x="823" y="1445"/>
      <point x="843" y="1425" type="qcurve"/>
      <point x="867" y="1400"/>
      <point x="902" y="1344"/>
      <point x="911" y="1322" type="qcurve"/>
      <point x="934" y="1267"/>
      <point x="934" y="1202" type="qcurve" name="sh02"/>
      <point x="934" y="1136"/>
      <point x="886" y="1019"/>
      <point x="842" y="976" type="qcurve"/>
      <point x="799" y="934"/>
      <point x="680" y="885"/>
    </contour>
    <contour>
      <point x="614" y="1012" type="qcurve" name="dv01"/>
      <point x="655" y="1012"/>
      <point x="727" y="1042"/>
      <point x="752" y="1067" type="qcurve"/>
      <point x="781" y="1096"/>
      <point x="807" y="1166"/>
      <point x="807" y="1201" type="qcurve" name="ah01"/>
      <point x="807" y="1239"/>
      <point x="778" y="1309"/>
      <point x="751" y="1336" type="qcurve"/>
      <point x="728" y="1359"/>
      <point x="658" y="1391"/>
      <point x="616" y="1391" type="qcurve" name="sv01"/>
      <point x="576" y="1391"/>
      <point x="507" y="1362"/>
      <point x="482" y="1337" type="qcurve"/>
      <point x="455" y="1310"/>
      <point x="426" y="1238"/>
      <point x="426" y="1199" type="qcurve" name="sh03"/>
      <point x="426" y="1158"/>
      <point x="455" y="1091"/>
      <point x="481" y="1065" type="qcurve"/>
      <point x="508" y="1039"/>
      <point x="576" y="1012"/>
    </contour>
  </outline>
</glyph>
<glyph name="twosuperior" format="1">
  <advance width="1233"/>
  <unicode hex="00B2"/>
  <outline>
    <contour>
      <point x="328" y="1230" type="line" name="hr00"/>
      <point x="531" y="1397" type="line"/>
      <point x="688" y="1525"/>
      <point x="844" y="1699"/>
      <point x="844" y="1760" type="qcurve" name="dh01"/>
      <point x="844" y="1778"/>
      <point x="829" y="1816"/>
      <point x="795" y="1847"/>
      <point x="742" y="1867"/>
      <point x="704" y="1867" type="qcurve" name="dv03"/>
      <point x="656" y="1867"/>
      <point x="534" y="1830"/>
      <point x="451" y="1789" type="qcurve"/>
      <point x="475" y="1916" type="line"/>
      <point x="560" y="1945"/>
      <point x="683" y="1972"/>
      <point x="737" y="1972" type="qcurve" name="dv04"/>
      <point x="800" y="1972"/>
      <point x="895" y="1939"/>
      <point x="959" y="1885"/>
      <point x="991" y="1817"/>
      <point x="991" y="1781" type="qcurve" name="dh02"/>
      <point x="991" y="1701"/>
      <point x="834" y="1499"/>
      <point x="682" y="1385" type="qcurve"/>
      <point x="662" y="1370" type="line"/>
      <point x="492" y="1234" type="line"/>
      <point x="887" y="1234" type="line" name="dv02"/>
      <point x="864" y="1120" type="line" name="dv01"/>
      <point x="307" y="1120" type="line"/>
    </contour>
  </outline>
</glyph>
<glyph name="threesuperior" format="1">
  <advance width="1233"/>
  <unicode hex="00B3"/>
  <outline>
    <contour>
      <point x="536" y="1103" type="qcurve" name="dv01"/>
      <point x="473" y="1103"/>
      <point x="347" y="1124"/>
      <point x="287" y="1144" type="qcurve"/>
      <point x="311" y="1265" type="line"/>
      <point x="378" y="1236"/>
      <point x="482" y="1210"/>
      <point x="536" y="1210" type="qcurve" name="hr01"/>
      <point x="590" y="1210"/>
      <point x="678" y="1234"/>
      <point x="740" y="1279"/>
      <point x="774" y="1343"/>
      <point x="774" y="1384" type="qcurve" name="dh01"/>
      <point x="774" y="1511"/>
      <point x="600" y="1511" type="qcurve" name="dv03"/>
      <point x="528" y="1511" type="line"/>
      <point x="549" y="1617" type="line"/>
      <point x="621" y="1617" type="line" name="dv04"/>
      <point x="670" y="1617"/>
      <point x="749" y="1638"/>
      <point x="805" y="1676"/>
      <point x="836" y="1729"/>
      <point x="836" y="1760" type="qcurve" name="sh01"/>
      <point x="836" y="1812"/>
      <point x="751" y="1863"/>
      <point x="671" y="1863" type="qcurve" name="dv02"/>
      <point x="621" y="1863"/>
      <point x="524" y="1843"/>
      <point x="461" y="1820" type="qcurve"/>
      <point x="483" y="1935" type="line"/>
      <point x="628" y="1970"/>
      <point x="728" y="1970" type="qcurve" name="hr02"/>
      <point x="853" y="1970"/>
      <point x="983" y="1871"/>
      <point x="983" y="1783" type="qcurve" name="sh02"/>
      <point x="983" y="1700"/>
      <point x="871" y="1585"/>
      <point x="772" y="1566" type="qcurve" name="iv01"/>
      <point x="846" y="1553"/>
      <point x="922" y="1463"/>
      <point x="922" y="1388" type="qcurve" name="dh02"/>
      <point x="922" y="1324"/>
      <point x="868" y="1219"/>
      <point x="767" y="1144"/>
      <point x="624" y="1103"/>
    </contour>
  </outline>
</glyph>
<glyph name="acute" format="1">
  <advance width="1233"/>
  <unicode hex="00B4"/>
  <outline>
    <contour>
      <point x="907" y="1638" type="line" name="hr00"/>
      <point x="1126" y="1638" type="line"/>
      <point x="731" y="1262" type="line" name="av01"/>
      <point x="575" y="1262" type="line"/>
    </contour>
  </outline>
</glyph>
<glyph name="mu" format="1">
  <advance width="1233"/>
  <unicode hex="00B5"/>
  <outline>
    <contour>
      <point x="252" y="1120" type="line" name="hr00"/>
      <point x="439" y="1120" type="line"/>
      <point x="303" y="424" type="line"/>
      <point x="301" y="413"/>
      <point x="296" y="380"/>
      <point x="294" y="366" type="qcurve"/>
      <point x="291" y="339"/>
      <point x="291" y="319" type="qcurve"/>
      <point x="291" y="279"/>
      <point x="316" y="206"/>
      <point x="345" y="180" type="qcurve"/>
      <point x="375" y="153"/>
      <point x="458" y="131"/>
      <point x="503" y="131" type="qcurve" name="dv02"/>
      <point x="638" y="131"/>
      <point x="721" y="214" type="qcurve"/>
      <point x="760" y="253"/>
      <point x="819" y="377"/>
      <point x="836" y="467" type="qcurve"/>
      <point x="963" y="1120" type="line" name="at01"/>
      <point x="1149" y="1120" type="line"/>
      <point x="981" y="258" type="line"/>
      <point x="980" y="254"/>
      <point x="977" y="229"/>
      <point x="977" y="227" type="qcurve"/>
      <point x="976" y="220"/>
      <point x="975" y="209"/>
      <point x="975" y="202" type="qcurve"/>
      <point x="975" y="173"/>
      <point x="988" y="157" type="qcurve"/>
      <point x="993" y="150"/>
      <point x="1010" y="141"/>
      <point x="1022" y="141" type="qcurve" name="sv01"/>
      <point x="1032" y="141"/>
      <point x="1049" y="146" type="qcurve"/>
      <point x="1054" y="148"/>
      <point x="1081" y="157"/>
      <point x="1096" y="164" type="qcurve" name="iv01"/>
      <point x="1067" y="16" type="line"/>
      <point x="1048" y="5"/>
      <point x="1004" y="-14"/>
      <point x="990" y="-18" type="qcurve"/>
      <point x="954" y="-29"/>
      <point x="917" y="-29" type="qcurve" name="sv02"/>
      <point x="886" y="-29"/>
      <point x="835" y="-9"/>
      <point x="814" y="14" type="qcurve"/>
      <point x="795" y="34"/>
      <point x="774" y="88"/>
      <point x="774" y="129" type="qcurve" name="iv02"/>
      <point x="722" y="47"/>
      <point x="652" y="9" type="qcurve"/>
      <point x="581" y="-29"/>
      <point x="486" y="-29" type="qcurve" name="dv01"/>
      <point x="391" y="-29"/>
      <point x="330" y="13" type="qcurve"/>
      <point x="267" y="55"/>
      <point x="236" y="137" type="qcurve" name="iv03"/>
      <point x="127" y="-426" type="line" name="av01"/>
      <point x="-49" y="-426" type="line"/>
    </contour>
  </outline>
</glyph>
<glyph name="paragraph" format="1">
  <advance width="1233"/>
  <unicode hex="00B6"/>
  <outline>
    <contour>
      <point x="506" y="649" type="line" name="hr00"/>
      <point x="329" y="653"/>
      <point x="227" y="748" type="qcurve"/>
      <point x="125" y="842"/>
      <point x="125" y="1004" type="qcurve"/>
      <point x="125" y="1213"/>
      <point x="298" y="1353" type="qcurve"/>
      <point x="471" y="1493"/>
      <point x="735" y="1493" type="qcurve" name="at01"/>
      <point x="1141" y="1493" type="line"/>
      <point x="813" y="-197" type="line" name="av01"/>
      <point x="674" y="-197" type="line"/>
      <point x="977" y="1370" type="line" name="sv01"/>
      <point x="786" y="1370" type="line"/>
      <point x="483" y="-197" type="line" name="av02"/>
      <point x="342" y="-197" type="line"/>
    </contour>
  </outline>
</glyph>
<glyph name="cedilla" format="1">
  <advance width="1233"/>
  <unicode hex="00B8"/>
  <outline>
    <contour>
      <point x="366" y="-395" type="qcurve" name="hr00"/>
      <point x="346" y="-395"/>
      <point x="299" y="-392"/>
      <point x="276" y="-388" type="qcurve"/>
      <point x="231" y="-381"/>
      <point x="182" y="-365" type="qcurve"/>
      <point x="207" y="-236" type="line"/>
      <point x="227" y="-246"/>
      <point x="265" y="-260"/>
      <point x="284" y="-265" type="qcurve"/>
      <point x="320" y="-274"/>
      <point x="352" y="-274" type="qcurve" name="dv01"/>
      <point x="419" y="-274"/>
      <point x="457" y="-244" type="qcurve"/>
      <point x="476" y="-229"/>
      <point x="494" y="-187"/>
      <point x="494" y="-163" type="qcurve" name="dh01"/>
      <point x="494" y="-146"/>
      <point x="486" y="-109"/>
      <point x="480" y="-93" type="qcurve"/>
      <point x="475" y="-81"/>
      <point x="451" y="-28"/>
      <point x="436" y="0" type="qcurve" name="ab01"/>
      <point x="555" y="0" type="line"/>
      <point x="574" y="-32"/>
      <point x="601" y="-88"/>
      <point x="610" y="-111" type="qcurve"/>
      <point x="627" y="-156"/>
      <point x="627" y="-198" type="qcurve" name="dh02"/>
      <point x="627" y="-240"/>
      <point x="592" y="-313"/>
      <point x="557" y="-341" type="qcurve"/>
      <point x="488" y="-395"/>
    </contour>
  </outline>
</glyph>
<glyph name="onesuperior" format="1">
  <advance width="1233"/>
  <unicode hex="00B9"/>
  <outline>
    <contour>
      <point x="369" y="1230" type="line" name="hr00"/>
      <point x="575" y="1230" type="line"/>
      <point x="692" y="1841" type="line"/>
      <point x="461" y="1800" type="line"/>
      <point x="483" y="1916" type="line"/>
      <point x="721" y="1955" type="line" name="av01"/>
      <point x="858" y="1955" type="line"/>
      <point x="717" y="1230" type="line"/>
      <point x="922" y="1230" type="line" name="dv02"/>
      <point x="901" y="1120" type="line" name="dv01"/>
      <point x="348" y="1120" type="line"/>
    </contour>
  </outline>
</glyph>
<glyph name="ordmasculine" format="1">
  <advance width="1233"/>
  <unicode hex="00BA"/>
  <note>
	ordmasculine
  </note>
  <outline>
    <contour>
      <point x="693" y="698"/>
      <point x="752" y="711"/>
      <point x="805" y="737" type="curve" smooth="yes"/>
      <point x="858" y="764"/>
      <point x="906" y="802"/>
      <point x="946" y="850" type="curve" smooth="yes"/>
      <point x="982" y="893"/>
      <point x="1012" y="944"/>
      <point x="1033" y="1003" type="curve" smooth="yes"/>
      <point x="1056" y="1067"/>
      <point x="1065" y="1128"/>
      <point x="1065" y="1184" type="curve" smooth="yes"/>
      <point x="1065" y="1288"/>
      <point x="1034" y="1372"/>
      <point x="979" y="1429" type="curve" smooth="yes"/>
      <point x="921" y="1490"/>
      <point x="843" y="1520"/>
      <point x="744" y="1520" type="curve" smooth="yes"/>
      <point x="680" y="1520"/>
      <point x="625" y="1508"/>
      <point x="570" y="1481" type="curve" smooth="yes"/>
      <point x="517" y="1454"/>
      <point x="467" y="1416"/>
      <point x="428" y="1368" type="curve" smooth="yes"/>
      <point x="401" y="1336"/>
      <point x="363" y="1279"/>
      <point x="339" y="1212" type="curve" smooth="yes"/>
      <point x="319" y="1156"/>
      <point x="307" y="1091"/>
      <point x="307" y="1030" type="curve" smooth="yes"/>
      <point x="307" y="934"/>
      <point x="335" y="849"/>
      <point x="394" y="789" type="curve" smooth="yes"/>
      <point x="450" y="732"/>
      <point x="526" y="698"/>
      <point x="630" y="698" type="curve" smooth="yes"/>
    </contour>
    <contour>
      <point x="593" y="813"/>
      <point x="546" y="833"/>
      <point x="513" y="873" type="curve" smooth="yes"/>
      <point x="480" y="913"/>
      <point x="463" y="965"/>
      <point x="463" y="1041" type="curve" smooth="yes"/>
      <point x="463" y="1134"/>
      <point x="489" y="1226"/>
      <point x="540" y="1298" type="curve" smooth="yes"/>
      <point x="588" y="1366"/>
      <point x="652" y="1405"/>
      <point x="728" y="1405" type="curve" smooth="yes"/>
      <point x="779" y="1405"/>
      <point x="827" y="1388"/>
      <point x="862" y="1345" type="curve" smooth="yes"/>
      <point x="895" y="1306"/>
      <point x="911" y="1250"/>
      <point x="911" y="1179" type="curve" smooth="yes"/>
      <point x="911" y="1086"/>
      <point x="885" y="991"/>
      <point x="834" y="920" type="curve" smooth="yes"/>
      <point x="783" y="848"/>
      <point x="716" y="813"/>
      <point x="645" y="813" type="curve" smooth="yes"/>
    </contour>
    <contour>
      <point x="223" y="469" type="line"/>
      <point x="899" y="469" type="line"/>
      <point x="922" y="592" type="line"/>
      <point x="246" y="592" type="line"/>
    </contour>
  </outline>
</glyph>
<glyph name="onehalf" format="1">
  <advance width="1233"/>
  <unicode hex="00BD"/>
  <outline>
    <contour>
      <point x="111" y="934" type="line" name="hr00"/>
      <point x="317" y="934" type="line"/>
      <point x="434" y="1545" type="line"/>
      <point x="203" y="1504" type="line"/>
      <point x="225" y="1620" type="line"/>
      <point x="463" y="1659" type="line" name="av01"/>
      <point x="600" y="1659" type="line"/>
      <point x="459" y="934" type="line"/>
      <point x="664" y="934" type="line" name="dv06"/>
      <point x="643" y="824" type="line" name="dv05"/>
      <point x="90" y="824" type="line"/>
    </contour>
    <contour>
      <point x="47" y="612" type="line"/>
      <point x="1106" y="870" type="line"/>
      <point x="1133" y="762" type="line"/>
      <point x="70" y="504" type="line"/>
    </contour>
    <contour>
      <point x="482" y="-160" type="line"/>
      <point x="685" y="7" type="line"/>
      <point x="838" y="132"/>
      <point x="998" y="308"/>
      <point x="998" y="370" type="qcurve" name="dh01"/>
      <point x="998" y="390"/>
      <point x="980" y="431"/>
      <point x="961" y="447" type="qcurve"/>
      <point x="925" y="477"/>
      <point x="861" y="477" type="qcurve" name="dv03"/>
      <point x="838" y="477"/>
      <point x="778" y="468"/>
      <point x="749" y="459" type="qcurve"/>
      <point x="722" y="451"/>
      <point x="647" y="419"/>
      <point x="605" y="399" type="qcurve"/>
      <point x="629" y="526" type="line"/>
      <point x="671" y="540"/>
      <point x="744" y="562"/>
      <point x="776" y="569" type="qcurve"/>
      <point x="807" y="576"/>
      <point x="865" y="582"/>
      <point x="892" y="582" type="qcurve" name="dv04"/>
      <point x="954" y="582"/>
      <point x="1045" y="553"/>
      <point x="1077" y="527" type="qcurve"/>
      <point x="1111" y="499"/>
      <point x="1145" y="422"/>
      <point x="1145" y="387" type="qcurve" name="dh02"/>
      <point x="1145" y="348"/>
      <point x="1102" y="256"/>
      <point x="1023" y="155"/>
      <point x="908" y="49"/>
      <point x="836" y="-5" type="qcurve"/>
      <point x="816" y="-20" type="line"/>
      <point x="646" y="-156" type="line"/>
      <point x="1041" y="-156" type="line" name="dv02"/>
      <point x="1018" y="-270" type="line" name="dv01"/>
      <point x="461" y="-270" type="line"/>
    </contour>
  </outline>
</glyph>
<glyph name="Aacute" format="1">
  <advance width="1233"/>
  <unicode hex="00C1"/>
  <outline>
    <contour>
      <point x="885" y="1852" type="line" name="hr00"/>
      <point x="1093" y="1852" type="line"/>
      <point x="786" y="1588" type="line"/>
      <point x="626" y="1588" type="line" name="iv01"/>
    </contour>
    <contour>
      <point x="639" y="1493" type="line" name="at01"/>
      <point x="885" y="1493" type="line"/>
      <point x="1051" y="0" type="line" name="ab01"/>
      <point x="850" y="0" type="line"/>
      <point x="815" y="389" type="line" name="dv01"/>
      <point x="295" y="389" type="line"/>
      <point x="111" y="0" type="line" name="ab02"/>
      <point x="-106" y="0" type="line"/>
    </contour>
    <contour>
      <point x="801" y="551" type="line" name="dv02"/>
      <point x="735" y="1325" type="line"/>
      <point x="371" y="551" type="line"/>
    </contour>
  </outline>
</glyph>
<glyph name="Aring" format="1">
  <advance width="1233"/>
  <unicode hex="00C5"/>
  <outline>
    <contour>
      <point x="600" y="1415" type="line" name="hr00"/>
      <point x="550" y="1449"/>
      <point x="524" y="1504" type="qcurve"/>
      <point x="498" y="1559"/>
      <point x="498" y="1624" type="qcurve" name="sh01"/>
      <point x="498" y="1683"/>
      <point x="539" y="1783"/>
      <point x="577" y="1821" type="qcurve"/>
      <point x="614" y="1859"/>
      <point x="714" y="1901"/>
      <point x="773" y="1901" type="qcurve" name="dv02"/>
      <point x="831" y="1901"/>
      <point x="929" y="1859"/>
      <point x="967" y="1821" type="qcurve"/>
      <point x="1004" y="1784"/>
      <point x="1047" y="1687"/>
      <point x="1047" y="1624" type="qcurve" name="sh02"/>
      <point x="1047" y="1581"/>
      <point x="1026" y="1512"/>
      <point x="1007" y="1482" type="qcurve"/>
      <point x="966" y="1417"/>
      <point x="897" y="1386" type="qcurve"/>
      <point x="1051" y="0" type="line" name="sh03"/>
      <point x="850" y="0" type="line"/>
      <point x="815" y="389" type="line" name="dv03"/>
      <point x="295" y="389" type="line"/>
      <point x="111" y="0" type="line" name="ab01"/>
      <point x="-106" y="0" type="line"/>
    </contour>
    <contour>
      <point x="772" y="1475" type="qcurve"/>
      <point x="805" y="1475"/>
      <point x="860" y="1499"/>
      <point x="880" y="1519" type="qcurve"/>
      <point x="924" y="1563"/>
      <point x="924" y="1626" type="qcurve" name="ah01"/>
      <point x="924" y="1660"/>
      <point x="900" y="1714"/>
      <point x="880" y="1734" type="qcurve"/>
      <point x="857" y="1757"/>
      <point x="800" y="1778"/>
      <point x="771" y="1778" type="qcurve" name="dv01"/>
      <point x="708" y="1778"/>
      <point x="665" y="1735" type="qcurve"/>
      <point x="621" y="1691"/>
      <point x="621" y="1627" type="qcurve" name="sh04"/>
      <point x="621" y="1562"/>
      <point x="665" y="1518" type="qcurve"/>
      <point x="684" y="1499"/>
      <point x="739" y="1475"/>
    </contour>
    <contour>
      <point x="801" y="551" type="line" name="dv04"/>
      <point x="735" y="1325" type="line" name="ih01"/>
      <point x="371" y="551" type="line"/>
    </contour>
  </outline>
</glyph>
<glyph name="AE" format="1">
  <advance width="1233"/>
  <unicode hex="00C6"/>
  <outline>
    <contour>
      <point x="555" y="1493" type="line" name="hr00"/>
      <point x="1307" y="1493" type="line"/>
      <point x="1274" y="1323" type="line" name="sv01"/>
      <point x="936" y="1323" type="line"/>
      <point x="850" y="881" type="line"/>
      <point x="1157" y="881" type="line" name="dv04"/>
      <point x="1124" y="711" type="line" name="dv03"/>
      <point x="817" y="711" type="line"/>
      <point x="711" y="170" type="line" name="sv02"/>
      <point x="1067" y="170" type="line"/>
      <point x="1034" y="0" type="line" name="ab01"/>
      <point x="492" y="0" type="line"/>
      <point x="567" y="383" type="line" name="dv01"/>
      <point x="215" y="383" type="line"/>
      <point x="39" y="0" type="line" name="ab02"/>
      <point x="-145" y="0" type="line"/>
    </contour>
    <contour>
      <point x="600" y="551" type="line" name="dv02"/>
      <point x="750" y="1323" type="line" name="sv03"/>
      <point x="647" y="1323" type="line" name="sv04"/>
      <point x="291" y="551" type="line"/>
    </contour>
  </outline>
</glyph>
<glyph name="Idieresis" format="1">
  <advance width="1233"/>
  <unicode hex="00CF"/>
  <outline>
    <contour>
      <point x="506" y="1627" type="line" name="hr00"/>
      <point x="491" y="1627"/>
      <point x="476" y="1645"/>
      <point x="479" y="1660" type="qcurve"/>
      <point x="507" y="1803" type="line"/>
      <point x="511" y="1830"/>
      <point x="539" y="1830" type="qcurve" name="dv01"/>
      <point x="683" y="1830" type="line"/>
      <point x="710" y="1830"/>
      <point x="710" y="1806" type="qcurve"/>
      <point x="710" y="1800"/>
      <point x="709" y="1797" type="qcurve"/>
      <point x="680" y="1654" type="line"/>
      <point x="674" y="1627"/>
      <point x="648" y="1627" type="qcurve"/>
    </contour>
    <contour>
      <point x="897" y="1627" type="line" name="sv01"/>
      <point x="882" y="1627"/>
      <point x="867" y="1645"/>
      <point x="870" y="1660" type="qcurve"/>
      <point x="898" y="1803" type="line"/>
      <point x="902" y="1830"/>
      <point x="930" y="1830" type="qcurve" name="sv02"/>
      <point x="1073" y="1830" type="line"/>
      <point x="1088" y="1830"/>
      <point x="1103" y="1812"/>
      <point x="1100" y="1797" type="qcurve"/>
      <point x="1072" y="1654" type="line"/>
      <point x="1067" y="1627"/>
      <point x="1040" y="1627" type="qcurve"/>
    </contour>
    <contour>
      <point x="90" y="170" type="line" name="sv03"/>
      <point x="403" y="170" type="line"/>
      <point x="627" y="1323" type="line" name="sv04"/>
      <point x="313" y="1323" type="line"/>
      <point x="346" y="1493" type="line" name="at01"/>
      <point x="1176" y="1493" type="line"/>
      <point x="1143" y="1323" type="line" name="sv05"/>
      <point x="829" y="1323" type="line" name="sv06"/>
      <point x="606" y="170" type="line" name="sv07"/>
      <point x="920" y="170" type="line" name="sv08"/>
      <point x="887" y="0" type="line" name="ab01"/>
      <point x="57" y="0" type="line"/>
    </contour>
  </outline>
</glyph>
<glyph name="Eth" format="1">
  <advance width="1233"/>
  <unicode hex="00D0"/>
  <outline>
    <contour>
      <point x="129" y="709" type="line" name="hr00"/>
      <point x="2" y="709" type="line"/>
      <point x="31" y="858" type="line"/>
      <point x="160" y="858" type="line" name="dv01"/>
      <point x="283" y="1493" type="line" name="at01"/>
      <point x="586" y="1493" type="line"/>
      <point x="859" y="1493"/>
      <point x="995" y="1369" type="qcurve"/>
      <point x="1064" y="1306"/>
      <point x="1130" y="1117"/>
      <point x="1130" y="986" type="qcurve" name="dh02"/>
      <point x="1130" y="912"/>
      <point x="1109" y="746"/>
      <point x="1088" y="659" type="qcurve"/>
      <point x="1066" y="569"/>
      <point x="1007" y="414"/>
      <point x="975" y="354" type="qcurve"/>
      <point x="922" y="256"/>
      <point x="791" y="122"/>
      <point x="716" y="82" type="qcurve"/>
      <point x="561" y="0"/>
      <point x="295" y="0" type="qcurve" name="ab01"/>
      <point x="-8" y="0" type="line"/>
    </contour>
    <contour>
      <point x="324" y="166" type="line" name="sv01"/>
      <point x="423" y="166"/>
      <point x="566" y="199"/>
      <point x="621" y="229" type="qcurve"/>
      <point x="684" y="264"/>
      <point x="767" y="363"/>
      <point x="800" y="432" type="qcurve"/>
      <point x="826" y="485"/>
      <point x="872" y="621"/>
      <point x="890" y="707" type="qcurve"/>
      <point x="907" y="787"/>
      <point x="924" y="933"/>
      <point x="924" y="993" type="qcurve" name="dh01"/>
      <point x="924" y="1088"/>
      <point x="884" y="1213"/>
      <point x="842" y="1251" type="qcurve"/>
      <point x="760" y="1327"/>
      <point x="567" y="1327" type="qcurve" name="sv02"/>
      <point x="453" y="1327" type="line"/>
      <point x="362" y="858" type="line" name="sv03"/>
      <point x="629" y="858" type="line"/>
      <point x="600" y="709" type="line" name="sv04"/>
      <point x="334" y="709" type="line"/>
      <point x="227" y="166" type="line"/>
    </contour>
  </outline>
</glyph>
<glyph name="Ntilde" format="1">
  <advance width="1233"/>
  <unicode hex="00D1"/>
  <outline>
    <contour>
      <point x="438" y="1627" type="line" name="hr00"/>
      <point x="472" y="1734"/>
      <point x="535" y="1791" type="qcurve"/>
      <point x="566" y="1819"/>
      <point x="639" y="1846"/>
      <point x="680" y="1846" type="qcurve" name="dv02"/>
      <point x="700" y="1846"/>
      <point x="731" y="1840"/>
      <point x="747" y="1835" type="qcurve"/>
      <point x="780" y="1824"/>
      <point x="813" y="1799" type="qcurve"/>
      <point x="848" y="1773" type="line"/>
      <point x="867" y="1759"/>
      <point x="884" y="1753" type="qcurve"/>
      <point x="892" y="1750"/>
      <point x="908" y="1746"/>
      <point x="920" y="1746" type="qcurve"/>
      <point x="943" y="1746"/>
      <point x="975" y="1760"/>
      <point x="989" y="1773" type="qcurve"/>
      <point x="1018" y="1800"/>
      <point x="1028" y="1846" type="qcurve" name="sv01"/>
      <point x="1153" y="1846" type="line"/>
      <point x="1122" y="1738"/>
      <point x="1058" y="1682" type="qcurve"/>
      <point x="1029" y="1656"/>
      <point x="953" y="1627"/>
      <point x="907" y="1627" type="qcurve" name="sv02"/>
      <point x="887" y="1627"/>
      <point x="859" y="1633"/>
      <point x="845" y="1638" type="qcurve"/>
      <point x="829" y="1644"/>
      <point x="802" y="1659"/>
      <point x="786" y="1670" type="qcurve"/>
      <point x="752" y="1695" type="line"/>
      <point x="750" y="1696" type="line"/>
      <point x="707" y="1728"/>
      <point x="669" y="1728" type="qcurve"/>
      <point x="635" y="1728"/>
      <point x="609" y="1703" type="qcurve"/>
      <point x="583" y="1679"/>
      <point x="563" y="1627" type="qcurve" name="dv01"/>
    </contour>
    <contour>
      <point x="285" y="1493" type="line" name="at01"/>
      <point x="541" y="1493" type="line"/>
      <point x="805" y="264" type="line" name="iv01"/>
      <point x="1044" y="1493" type="line" name="at02"/>
      <point x="1239" y="1493" type="line"/>
      <point x="948" y="0" type="line" name="ab01"/>
      <point x="692" y="0" type="line"/>
      <point x="428" y="1229" type="line" name="iv02"/>
      <point x="188" y="0" type="line" name="ab02"/>
      <point x="-6" y="0" type="line"/>
    </contour>
  </outline>
</glyph>
<glyph name="multiply" format="1">
  <advance width="1233"/>
  <unicode hex="00D7"/>
  <outline>
    <contour>
      <point x="150" y="293" type="line" name="hr00"/>
      <point x="500" y="641" type="line"/>
      <point x="150" y="991" type="line"/>
      <point x="266" y="1108" type="line" name="av03"/>
      <point x="616" y="758" type="line"/>
      <point x="967" y="1108" type="line" name="av04"/>
      <point x="1083" y="991" type="line"/>
      <point x="733" y="641" type="line"/>
      <point x="1081" y="293" type="line"/>
      <point x="965" y="174" type="line" name="av01"/>
      <point x="616" y="524" type="line"/>
      <point x="268" y="174" type="line" name="av02"/>
    </contour>
  </outline>
</glyph>
<glyph name="Thorn" format="1">
  <advance width="1233"/>
  <unicode hex="00DE"/>
  <outline>
    <contour>
      <point x="342" y="1493" type="line" name="at01"/>
      <point x="545" y="1491" type="line"/>
      <point x="494" y="1217" type="line"/>
      <point x="735" y="1217" type="line" name="sv02"/>
      <point x="942" y="1217"/>
      <point x="1051" y="1129" type="qcurve"/>
      <point x="1105" y="1085"/>
      <point x="1159" y="958"/>
      <point x="1159" y="867" type="qcurve" name="dh02"/>
      <point x="1159" y="756"/>
      <point x="1079" y="571"/>
      <point x="998" y="502" type="qcurve"/>
      <point x="837" y="365"/>
      <point x="557" y="365" type="qcurve" name="dv01"/>
      <point x="326" y="365" type="line"/>
      <point x="254" y="0" type="line" name="ab01"/>
      <point x="51" y="0" type="line"/>
    </contour>
    <contour>
      <point x="590" y="522" type="line" name="dv02"/>
      <point x="753" y="522"/>
      <point x="853" y="614" type="qcurve"/>
      <point x="903" y="660"/>
      <point x="952" y="782"/>
      <point x="952" y="853" type="qcurve" name="dh01"/>
      <point x="952" y="913"/>
      <point x="919" y="987"/>
      <point x="890" y="1010" type="qcurve" name="hr01"/>
      <point x="829" y="1059"/>
      <point x="698" y="1059" type="qcurve" name="sv01"/>
      <point x="461" y="1059" type="line"/>
      <point x="356" y="522" type="line"/>
    </contour>
  </outline>
</glyph>
<glyph name="germandbls" format="1">
  <advance width="1233"/>
  <unicode hex="00DF"/>
  <outline>
    <contour>
      <point x="599" y="-29" type="qcurve" name="dv01"/>
      <point x="561" y="-29"/>
      <point x="498" y="-23"/>
      <point x="462" y="-16" type="qcurve"/>
      <point x="421" y="-9"/>
      <point x="363" y="8"/>
      <point x="330" y="20" type="qcurve"/>
      <point x="360" y="184" type="line" name="iv01"/>
      <point x="418" y="152"/>
      <point x="486" y="136" type="qcurve"/>
      <point x="554" y="119"/>
      <point x="623" y="119" type="qcurve" name="dv02"/>
      <point x="753" y="119"/>
      <point x="830" y="182" type="qcurve"/>
      <point x="866" y="212"/>
      <point x="905" y="295"/>
      <point x="905" y="348" type="qcurve" name="ah01"/>
      <point x="905" y="379"/>
      <point x="892" y="425"/>
      <point x="878" y="445" type="qcurve"/>
      <point x="861" y="470"/>
      <point x="808" y="517"/>
      <point x="766" y="549" type="qcurve"/>
      <point x="705" y="596" type="line"/>
      <point x="662" y="629"/>
      <point x="605" y="681"/>
      <point x="587" y="710" type="qcurve"/>
      <point x="559" y="756"/>
      <point x="559" y="820" type="qcurve" name="sh01"/>
      <point x="559" y="950"/>
      <point x="661" y="1046" type="qcurve"/>
      <point x="708" y="1091"/>
      <point x="844" y="1159"/>
      <point x="940" y="1178" type="qcurve"/>
      <point x="942" y="1186"/>
      <point x="944" y="1200"/>
      <point x="945" y="1208" type="qcurve"/>
      <point x="946" y="1215"/>
      <point x="946" y="1225"/>
      <point x="946" y="1227" type="qcurve" name="hr01"/>
      <point x="946" y="1267"/>
      <point x="924" y="1336"/>
      <point x="895" y="1361" type="qcurve" name="sh02"/>
      <point x="871" y="1381"/>
      <point x="797" y="1405"/>
      <point x="747" y="1405" type="qcurve" name="sh04"/>
      <point x="690" y="1405"/>
      <point x="593" y="1372"/>
      <point x="558" y="1338" type="qcurve" name="sh05"/>
      <point x="526" y="1307"/>
      <point x="475" y="1207"/>
      <point x="461" y="1133" type="qcurve"/>
      <point x="242" y="0" type="line" name="ab01"/>
      <point x="55" y="0" type="line"/>
      <point x="276" y="1137" type="line"/>
      <point x="296" y="1242"/>
      <point x="378" y="1401"/>
      <point x="438" y="1453" type="qcurve"/>
      <point x="501" y="1507"/>
      <point x="663" y="1556"/>
      <point x="758" y="1556" type="qcurve" name="at01"/>
      <point x="849" y="1556"/>
      <point x="987" y="1514"/>
      <point x="1032" y="1476" type="qcurve"/>
      <point x="1126" y="1396"/>
      <point x="1126" y="1244" type="qcurve"/>
      <point x="1126" y="1230"/>
      <point x="1124" y="1196"/>
      <point x="1122" y="1179" type="qcurve"/>
      <point x="1120" y="1162"/>
      <point x="1113" y="1126"/>
      <point x="1108" y="1108" type="qcurve"/>
      <point x="934" y="1087"/>
      <point x="834" y="1020" type="qcurve"/>
      <point x="733" y="952"/>
      <point x="733" y="857" type="qcurve" name="sh03"/>
      <point x="733" y="836"/>
      <point x="743" y="804"/>
      <point x="754" y="788" type="qcurve"/>
      <point x="768" y="768"/>
      <point x="804" y="736"/>
      <point x="834" y="713" type="qcurve" name="hr02"/>
      <point x="885" y="674" type="line"/>
      <point x="939" y="632"/>
      <point x="1018" y="561"/>
      <point x="1041" y="523" type="qcurve"/>
      <point x="1081" y="458"/>
      <point x="1081" y="364" type="qcurve" name="sh06"/>
      <point x="1081" y="280"/>
      <point x="1019" y="135"/>
      <point x="952" y="79" type="qcurve"/>
      <point x="889" y="26"/>
      <point x="714" y="-29"/>
    </contour>
  </outline>
</glyph>
<glyph name="atilde" format="1">
  <advance width="1233"/>
  <unicode hex="00E3"/>
  <note>
	atilde
  </note>
  <outline>
    <contour>
      <point x="953" y="1297"/>
      <point x="1002" y="1320"/>
      <point x="1041" y="1371" type="curve" smooth="yes"/>
      <point x="1080" y="1422"/>
      <point x="1103" y="1497"/>
      <point x="1114" y="1581" type="curve"/>
      <point x="989" y="1581" type="line"/>
      <point x="984" y="1529"/>
      <point x="972" y="1489"/>
      <point x="957" y="1465" type="curve" smooth="yes"/>
      <point x="942" y="1441"/>
      <point x="919" y="1426"/>
      <point x="892" y="1426" type="curve" smooth="yes"/>
      <point x="880" y="1426"/>
      <point x="869" y="1429"/>
      <point x="858" y="1435" type="curve" smooth="yes"/>
      <point x="843" y="1443"/>
      <point x="840" y="1446"/>
      <point x="821" y="1465" type="curve" smooth="yes"/>
      <point x="774" y="1512" type="line" smooth="yes"/>
      <point x="750" y="1536"/>
      <point x="725" y="1555"/>
      <point x="702" y="1566" type="curve" smooth="yes"/>
      <point x="680" y="1576"/>
      <point x="655" y="1581"/>
      <point x="626" y="1581" type="curve" smooth="yes"/>
      <point x="566" y="1581"/>
      <point x="517" y="1557"/>
      <point x="479" y="1508" type="curve" smooth="yes"/>
      <point x="440" y="1459"/>
      <point x="416" y="1389"/>
      <point x="405" y="1299" type="curve"/>
      <point x="530" y="1299" type="line"/>
      <point x="535" y="1351"/>
      <point x="545" y="1390"/>
      <point x="562" y="1415" type="curve"/>
      <point x="581" y="1446"/>
      <point x="605" y="1452"/>
      <point x="625" y="1452" type="curve" smooth="yes"/>
      <point x="638" y="1452"/>
      <point x="651" y="1449"/>
      <point x="662" y="1443" type="curve" smooth="yes"/>
      <point x="675" y="1436"/>
      <point x="691" y="1422"/>
      <point x="698" y="1415" type="curve" smooth="yes"/>
      <point x="745" y="1366" type="line" smooth="yes"/>
      <point x="773" y="1337"/>
      <point x="798" y="1321"/>
      <point x="818" y="1312" type="curve" smooth="yes"/>
      <point x="840" y="1302"/>
      <point x="865" y="1297"/>
      <point x="894" y="1297" type="curve" smooth="yes"/>
    </contour>
    <contour>
      <point x="483" y="-29"/>
      <point x="549" y="-13"/>
      <point x="616" y="22" type="curve" smooth="yes"/>
      <point x="681" y="55"/>
      <point x="738" y="103"/>
      <point x="786" y="166" type="curve"/>
      <point x="774" y="0" type="line"/>
      <point x="938" y="0" type="line"/>
      <point x="1063" y="639" type="line" smooth="yes"/>
      <point x="1070" y="676"/>
      <point x="1076" y="711"/>
      <point x="1081" y="754" type="curve" smooth="yes"/>
      <point x="1085" y="789"/>
      <point x="1087" y="817"/>
      <point x="1087" y="839" type="curve" smooth="yes"/>
      <point x="1087" y="935"/>
      <point x="1050" y="1013"/>
      <point x="985" y="1065" type="curve" smooth="yes"/>
      <point x="916" y="1121"/>
      <point x="816" y="1147"/>
      <point x="693" y="1147" type="curve" smooth="yes"/>
      <point x="636" y="1147"/>
      <point x="573" y="1141"/>
      <point x="508" y="1128" type="curve" smooth="yes"/>
      <point x="443" y="1115"/>
      <point x="375" y="1096"/>
      <point x="303" y="1069" type="curve"/>
      <point x="268" y="889" type="line"/>
      <point x="343" y="924"/>
      <point x="411" y="949"/>
      <point x="479" y="966" type="curve" smooth="yes"/>
      <point x="546" y="983"/>
      <point x="608" y="991"/>
      <point x="665" y="991" type="curve" smooth="yes"/>
      <point x="748" y="991"/>
      <point x="805" y="974"/>
      <point x="844" y="946" type="curve" smooth="yes"/>
      <point x="880" y="919"/>
      <point x="907" y="880"/>
      <point x="907" y="804" type="curve" smooth="yes"/>
      <point x="907" y="801"/>
      <point x="907" y="794"/>
      <point x="906" y="787" type="curve" smooth="yes"/>
      <point x="903" y="768" type="line"/>
      <point x="891" y="707" type="line"/>
      <point x="645" y="707" type="line" smooth="yes"/>
      <point x="470" y="707"/>
      <point x="327" y="667"/>
      <point x="226" y="590" type="curve" smooth="yes"/>
      <point x="125" y="513"/>
      <point x="72" y="403"/>
      <point x="72" y="280" type="curve" smooth="yes"/>
      <point x="72" y="188"/>
      <point x="100" y="111"/>
      <point x="164" y="54" type="curve" smooth="yes"/>
      <point x="225" y="-2"/>
      <point x="308" y="-29"/>
      <point x="407" y="-29" type="curve" smooth="yes"/>
    </contour>
    <contour>
      <point x="394" y="125"/>
      <point x="348" y="143"/>
      <point x="316" y="174" type="curve" smooth="yes"/>
      <point x="288" y="201"/>
      <point x="264" y="243"/>
      <point x="264" y="307" type="curve" smooth="yes"/>
      <point x="264" y="356"/>
      <point x="278" y="401"/>
      <point x="305" y="442" type="curve" smooth="yes"/>
      <point x="338" y="493"/>
      <point x="379" y="515"/>
      <point x="414" y="530" type="curve" smooth="yes"/>
      <point x="441" y="541"/>
      <point x="476" y="551"/>
      <point x="515" y="556" type="curve" smooth="yes"/>
      <point x="554" y="561"/>
      <point x="612" y="563"/>
      <point x="692" y="563" type="curve" smooth="yes"/>
      <point x="864" y="563" type="line"/>
      <point x="856" y="522" type="line" smooth="yes"/>
      <point x="833" y="407"/>
      <point x="786" y="307"/>
      <point x="711" y="232" type="curve" smooth="yes"/>
      <point x="640" y="161"/>
      <point x="557" y="125"/>
      <point x="461" y="125" type="curve" smooth="yes"/>
    </contour>
  </outline>
</glyph>
<glyph name="ae" format="1">
  <advance width="1233"/>
  <unicode hex="00E6"/>
  <outline>
    <contour>
      <point x="234" y="-29" type="qcurve" name="hr00"/>
      <point x="166" y="-29"/>
      <point x="61" y="11"/>
      <point x="28" y="43" type="qcurve"/>
      <point x="-13" y="81"/>
      <point x="-47" y="189"/>
      <point x="-47" y="252" type="qcurve" name="sh01"/>
      <point x="-47" y="339"/>
      <point x="13" y="494"/>
      <point x="74" y="549" type="qcurve"/>
      <point x="194" y="657"/>
      <point x="418" y="657" type="qcurve" name="sv01"/>
      <point x="535" y="657" type="line"/>
      <point x="553" y="745" type="line"/>
      <point x="556" y="759"/>
      <point x="558" y="774"/>
      <point x="559" y="787" type="qcurve"/>
      <point x="560" y="798"/>
      <point x="561" y="821"/>
      <point x="561" y="832" type="qcurve"/>
      <point x="561" y="874"/>
      <point x="539" y="933"/>
      <point x="519" y="953" type="qcurve"/>
      <point x="500" y="972"/>
      <point x="440" y="995"/>
      <point x="400" y="995" type="qcurve" name="sv02"/>
      <point x="373" y="995"/>
      <point x="314" y="984"/>
      <point x="284" y="974" type="qcurve"/>
      <point x="252" y="963"/>
      <point x="178" y="931"/>
      <point x="141" y="911" type="qcurve" name="ih01"/>
      <point x="176" y="1079" type="line"/>
      <point x="220" y="1098"/>
      <point x="290" y="1122"/>
      <point x="324" y="1130" type="qcurve"/>
      <point x="359" y="1138"/>
      <point x="421" y="1147"/>
      <point x="450" y="1147" type="qcurve" name="at01"/>
      <point x="531" y="1147"/>
      <point x="590" y="1114" type="qcurve"/>
      <point x="648" y="1081"/>
      <point x="680" y="1018" type="qcurve" name="ih02"/>
      <point x="703" y="1047"/>
      <point x="765" y="1097"/>
      <point x="800" y="1114" type="qcurve"/>
      <point x="836" y="1131"/>
      <point x="913" y="1147"/>
      <point x="950" y="1147" type="qcurve" name="at02"/>
      <point x="1009" y="1147"/>
      <point x="1107" y="1109"/>
      <point x="1143" y="1070" type="qcurve"/>
      <point x="1178" y="1032"/>
      <point x="1214" y="927"/>
      <point x="1214" y="867" type="qcurve" name="sh02"/>
      <point x="1214" y="846"/>
      <point x="1210" y="789"/>
      <point x="1206" y="760" type="qcurve" name="sh03"/>
      <point x="1204" y="749"/>
      <point x="1199" y="710"/>
      <point x="1191" y="666"/>
      <point x="1183" y="622"/>
      <point x="1180" y="604" type="qcurve"/>
      <point x="1163" y="514" type="line" name="dv03"/>
      <point x="668" y="514" type="line"/>
      <point x="656" y="457"/>
      <point x="645" y="394"/>
      <point x="641" y="368" type="qcurve"/>
      <point x="637" y="340"/>
      <point x="633" y="302"/>
      <point x="633" y="285" type="qcurve"/>
      <point x="633" y="244"/>
      <point x="659" y="183"/>
      <point x="682" y="163" type="qcurve"/>
      <point x="731" y="119"/>
      <point x="815" y="119" type="qcurve" name="dv02"/>
      <point x="884" y="119"/>
      <point x="957" y="148" type="qcurve"/>
      <point x="1027" y="176"/>
      <point x="1081" y="227" type="qcurve" name="ih03"/>
      <point x="1047" y="55" type="line" name="sh04"/>
      <point x="1019" y="35"/>
      <point x="952" y="2"/>
      <point x="922" y="-8" type="qcurve"/>
      <point x="857" y="-29"/>
      <point x="785" y="-29" type="qcurve" name="dv01"/>
      <point x="732" y="-29"/>
      <point x="642" y="-7"/>
      <point x="608" y="13" type="qcurve"/>
      <point x="574" y="33"/>
      <point x="526" y="93"/>
      <point x="514" y="131" type="qcurve" name="ih04"/>
      <point x="467" y="51"/>
      <point x="397" y="11" type="qcurve"/>
      <point x="362" y="-9"/>
      <point x="279" y="-29"/>
    </contour>
    <contour>
      <point x="1024" y="657" type="line" name="dv04"/>
      <point x="1040" y="731" type="line" name="sh05"/>
      <point x="1044" y="748"/>
      <point x="1048" y="777"/>
      <point x="1049" y="786" type="qcurve" name="sh06"/>
      <point x="1050" y="797"/>
      <point x="1051" y="833"/>
      <point x="1051" y="844" type="qcurve" name="ah01"/>
      <point x="1051" y="883"/>
      <point x="1033" y="938"/>
      <point x="1016" y="957" type="qcurve"/>
      <point x="983" y="995"/>
      <point x="922" y="995" type="qcurve" name="sv03"/>
      <point x="887" y="995"/>
      <point x="817" y="967"/>
      <point x="788" y="932" type="qcurve"/>
      <point x="759" y="897"/>
      <point x="725" y="803"/>
      <point x="711" y="739" type="qcurve"/>
      <point x="694" y="657" type="line"/>
    </contour>
    <contour>
      <point x="267" y="123" type="qcurve" name="sv04"/>
      <point x="350" y="123"/>
      <point x="401" y="191" type="qcurve"/>
      <point x="414" y="209"/>
      <point x="437" y="255"/>
      <point x="458" y="316"/>
      <point x="477" y="393"/>
      <point x="487" y="442" type="qcurve"/>
      <point x="502" y="514" type="line" name="sv05"/>
      <point x="453" y="514" type="line"/>
      <point x="386" y="514"/>
      <point x="306" y="507"/>
      <point x="276" y="498" type="qcurve"/>
      <point x="245" y="489"/>
      <point x="205" y="464"/>
      <point x="188" y="444" type="qcurve"/>
      <point x="170" y="424"/>
      <point x="149" y="385"/>
      <point x="141" y="362" type="qcurve"/>
      <point x="123" y="311"/>
      <point x="123" y="267" type="qcurve" name="sh07"/>
      <point x="123" y="240"/>
      <point x="140" y="184"/>
      <point x="161" y="162" type="qcurve"/>
      <point x="183" y="140"/>
      <point x="239" y="123"/>
    </contour>
  </outline>
</glyph>
<glyph name="ecircumflex" format="1">
  <advance width="1233"/>
  <unicode hex="00EA"/>
  <outline>
    <contour>
      <point x="717" y="1673" type="line" name="hr00"/>
      <point x="864" y="1673" type="line"/>
      <point x="1028" y="1297" type="line" name="ih01"/>
      <point x="895" y="1297" type="line"/>
      <point x="778" y="1538" type="line" name="ih02"/>
      <point x="553" y="1297" type="line"/>
      <point x="397" y="1297" type="line" name="ih03"/>
    </contour>
    <contour>
      <point x="558" y="-29" type="qcurve" name="dv01"/>
      <point x="438" y="-29"/>
      <point x="269" y="29"/>
      <point x="213" y="83" type="qcurve"/>
      <point x="98" y="195"/>
      <point x="98" y="410" type="qcurve" name="sh02"/>
      <point x="98" y="564"/>
      <point x="158" y="714" type="qcurve"/>
      <point x="218" y="864"/>
      <point x="324" y="973" type="qcurve"/>
      <point x="369" y="1020"/>
      <point x="459" y="1082"/>
      <point x="508" y="1104" type="qcurve"/>
      <point x="559" y="1127"/>
      <point x="662" y="1149"/>
      <point x="719" y="1149" type="qcurve" name="dv05"/>
      <point x="814" y="1149"/>
      <point x="962" y="1089"/>
      <point x="1015" y="1035" type="qcurve"/>
      <point x="1070" y="978"/>
      <point x="1126" y="821"/>
      <point x="1126" y="729" type="qcurve" name="sh01"/>
      <point x="1126" y="708"/>
      <point x="1123" y="670"/>
      <point x="1121" y="645" type="qcurve" name="sh03"/>
      <point x="1119" y="629"/>
      <point x="1112" y="564"/>
      <point x="1104" y="516" type="qcurve" name="dv03"/>
      <point x="297" y="516" type="line" name="sh05"/>
      <point x="291" y="486"/>
      <point x="288" y="458" type="qcurve" name="sh06"/>
      <point x="285" y="432"/>
      <point x="285" y="409" type="qcurve" name="sh04"/>
      <point x="285" y="274"/>
      <point x="362" y="200" type="qcurve"/>
      <point x="400" y="163"/>
      <point x="512" y="127"/>
      <point x="584" y="127" type="qcurve" name="dv02"/>
      <point x="631" y="127"/>
      <point x="726" y="142"/>
      <point x="779" y="156" type="qcurve"/>
      <point x="884" y="185"/>
      <point x="997" y="240" type="qcurve" name="ih04"/>
      <point x="961" y="57" type="line" name="sh07"/>
      <point x="904" y="34"/>
      <point x="808" y="4"/>
      <point x="756" y="-7" type="qcurve"/>
      <point x="706" y="-18"/>
      <point x="612" y="-29"/>
    </contour>
    <contour>
      <point x="938" y="659" type="line" name="sh08"/>
      <point x="941" y="673"/>
      <point x="945" y="695"/>
      <point x="946" y="704" type="qcurve" name="sh09"/>
      <point x="947" y="712"/>
      <point x="948" y="729"/>
      <point x="948" y="741" type="qcurve" name="ah01"/>
      <point x="948" y="856"/>
      <point x="883" y="924" type="qcurve"/>
      <point x="851" y="958"/>
      <point x="760" y="991"/>
      <point x="706" y="991" type="qcurve" name="dv04"/>
      <point x="646" y="991"/>
      <point x="530" y="949"/>
      <point x="477" y="901" type="qcurve"/>
      <point x="431" y="859"/>
      <point x="354" y="737"/>
      <point x="332" y="659" type="qcurve"/>
    </contour>
  </outline>
</glyph>
<glyph name="idieresis" format="1">
  <advance width="1233"/>
  <unicode hex="00EF"/>
  <outline>
    <contour>
      <point x="380" y="1350" type="line" name="hr00"/>
      <point x="365" y="1350"/>
      <point x="350" y="1368"/>
      <point x="353" y="1383" type="qcurve"/>
      <point x="381" y="1525" type="line"/>
      <point x="385" y="1552"/>
      <point x="413" y="1552" type="qcurve" name="dv01"/>
      <point x="556" y="1552" type="line"/>
      <point x="571" y="1552"/>
      <point x="586" y="1534"/>
      <point x="583" y="1519" type="qcurve"/>
      <point x="555" y="1377" type="line"/>
      <point x="550" y="1350"/>
      <point x="523" y="1350" type="qcurve"/>
    </contour>
    <contour>
      <point x="771" y="1350" type="line" name="sv01"/>
      <point x="756" y="1350"/>
      <point x="741" y="1368"/>
      <point x="744" y="1383" type="qcurve"/>
      <point x="772" y="1525" type="line"/>
      <point x="776" y="1552"/>
      <point x="804" y="1552" type="qcurve" name="sv02"/>
      <point x="947" y="1552" type="line"/>
      <point x="962" y="1552"/>
      <point x="977" y="1534"/>
      <point x="974" y="1519" type="qcurve"/>
      <point x="946" y="1377" type="line"/>
      <point x="941" y="1350"/>
      <point x="914" y="1350" type="qcurve"/>
    </contour>
    <contour>
      <point x="749" y="-4" type="line" name="ab01"/>
      <point x="575" y="-4"/>
      <point x="492" y="60" type="qcurve"/>
      <point x="407" y="124"/>
      <point x="407" y="252" type="qcurve" name="dh01"/>
      <point x="407" y="269"/>
      <point x="410" y="302"/>
      <point x="412" y="322" type="qcurve" name="sh01"/>
      <point x="414" y="342"/>
      <point x="421" y="386"/>
      <point x="426" y="408" type="qcurve"/>
      <point x="559" y="976" type="line" name="sv03"/>
      <point x="313" y="976" type="line"/>
      <point x="342" y="1120" type="line" name="at01"/>
      <point x="772" y="1120" type="line"/>
      <point x="610" y="404" type="line"/>
      <point x="606" y="388"/>
      <point x="601" y="350"/>
      <point x="600" y="342" type="qcurve"/>
      <point x="598" y="326"/>
      <point x="596" y="307"/>
      <point x="596" y="297" type="qcurve" name="dh02"/>
      <point x="596" y="223"/>
      <point x="640" y="188" type="qcurve"/>
      <point x="685" y="152"/>
      <point x="776" y="152" type="qcurve" name="sv04"/>
      <point x="987" y="152" type="line"/>
      <point x="956" y="-4" type="line"/>
    </contour>
  </outline>
</glyph>
<glyph name="eth" format="1">
  <advance width="1233"/>
  <unicode hex="00F0"/>
  <outline>
    <contour>
      <point x="516" y="-29" type="qcurve" name="hr00"/>
      <point x="323" y="-29"/>
      <point x="221" y="79" type="qcurve"/>
      <point x="167" y="136"/>
      <point x="119" y="291"/>
      <point x="119" y="389" type="qcurve" name="sh01"/>
      <point x="119" y="514"/>
      <point x="157" y="637" type="qcurve"/>
      <point x="177" y="703"/>
      <point x="237" y="822"/>
      <point x="266" y="864" type="qcurve"/>
      <point x="343" y="976"/>
      <point x="458" y="1037" type="qcurve"/>
      <point x="516" y="1068"/>
      <point x="641" y="1098"/>
      <point x="697" y="1098" type="qcurve" name="dv03"/>
      <point x="715" y="1098"/>
      <point x="749" y="1095"/>
      <point x="772" y="1093" type="qcurve" name="sv01"/>
      <point x="805" y="1090" type="line" name="ih01"/>
      <point x="785" y="1127"/>
      <point x="760" y="1171" type="qcurve"/>
      <point x="755" y="1178"/>
      <point x="740" y="1203"/>
      <point x="721" y="1231"/>
      <point x="701" y="1260"/>
      <point x="692" y="1272" type="qcurve"/>
      <point x="395" y="1178" type="line"/>
      <point x="365" y="1270" type="line"/>
      <point x="639" y="1356" type="line" name="ih02"/>
      <point x="498" y="1556" type="line" name="ih03"/>
      <point x="711" y="1556" type="line"/>
      <point x="815" y="1411" type="line"/>
      <point x="1102" y="1499" type="line" name="sh03"/>
      <point x="1130" y="1407" type="line"/>
      <point x="870" y="1327" type="line" name="ih04"/>
      <point x="932" y="1241"/>
      <point x="1022" y="1080"/>
      <point x="1050" y="1007" type="qcurve"/>
      <point x="1106" y="860"/>
      <point x="1106" y="701" type="qcurve" name="sh02"/>
      <point x="1106" y="637"/>
      <point x="1088" y="505"/>
      <point x="1069" y="440" type="qcurve"/>
      <point x="1032" y="311"/>
      <point x="961" y="207" type="qcurve"/>
      <point x="919" y="146"/>
      <point x="828" y="61"/>
      <point x="771" y="31" type="qcurve"/>
      <point x="657" y="-29"/>
    </contour>
    <contour>
      <point x="534" y="127" type="qcurve" name="dv01"/>
      <point x="613" y="127"/>
      <point x="753" y="208"/>
      <point x="806" y="288" type="qcurve"/>
      <point x="859" y="369"/>
      <point x="911" y="580"/>
      <point x="911" y="702" type="qcurve" name="ah01"/>
      <point x="911" y="738"/>
      <point x="907" y="794"/>
      <point x="902" y="820" type="qcurve" name="sh04"/>
      <point x="893" y="871"/>
      <point x="874" y="907" type="qcurve"/>
      <point x="837" y="926"/>
      <point x="797" y="935" type="qcurve"/>
      <point x="756" y="944"/>
      <point x="714" y="944" type="qcurve" name="dv02"/>
      <point x="620" y="944"/>
      <point x="475" y="862"/>
      <point x="424" y="789" type="qcurve"/>
      <point x="396" y="749"/>
      <point x="354" y="655"/>
      <point x="327" y="554"/>
      <point x="313" y="449"/>
      <point x="313" y="398" type="qcurve" name="sh05"/>
      <point x="313" y="331"/>
      <point x="338" y="227"/>
      <point x="370" y="192" type="qcurve"/>
      <point x="396" y="163"/>
      <point x="479" y="127"/>
    </contour>
  </outline>
</glyph>
<glyph name="ntilde" format="1">
  <advance width="1233"/>
  <unicode hex="00F1"/>
  <note>
	ntilde
  </note>
  <outline>
    <contour>
      <point x="949" y="1297"/>
      <point x="998" y="1320"/>
      <point x="1037" y="1371" type="curve" smooth="yes"/>
      <point x="1076" y="1422"/>
      <point x="1099" y="1497"/>
      <point x="1110" y="1581" type="curve"/>
      <point x="985" y="1581" type="line"/>
      <point x="980" y="1529"/>
      <point x="968" y="1489"/>
      <point x="953" y="1465" type="curve" smooth="yes"/>
      <point x="938" y="1441"/>
      <point x="915" y="1426"/>
      <point x="888" y="1426" type="curve" smooth="yes"/>
      <point x="876" y="1426"/>
      <point x="865" y="1429"/>
      <point x="854" y="1435" type="curve" smooth="yes"/>
      <point x="839" y="1443"/>
      <point x="836" y="1446"/>
      <point x="817" y="1465" type="curve" smooth="yes"/>
      <point x="770" y="1512" type="line" smooth="yes"/>
      <point x="746" y="1536"/>
      <point x="721" y="1555"/>
      <point x="698" y="1566" type="curve" smooth="yes"/>
      <point x="676" y="1576"/>
      <point x="651" y="1581"/>
      <point x="622" y="1581" type="curve" smooth="yes"/>
      <point x="562" y="1581"/>
      <point x="513" y="1557"/>
      <point x="475" y="1508" type="curve" smooth="yes"/>
      <point x="436" y="1459"/>
      <point x="412" y="1389"/>
      <point x="401" y="1299" type="curve"/>
      <point x="526" y="1299" type="line"/>
      <point x="531" y="1351"/>
      <point x="541" y="1390"/>
      <point x="558" y="1415" type="curve"/>
      <point x="577" y="1446"/>
      <point x="601" y="1452"/>
      <point x="621" y="1452" type="curve" smooth="yes"/>
      <point x="634" y="1452"/>
      <point x="647" y="1449"/>
      <point x="658" y="1443" type="curve" smooth="yes"/>
      <point x="671" y="1436"/>
      <point x="687" y="1422"/>
      <point x="694" y="1415" type="curve" smooth="yes"/>
      <point x="741" y="1366" type="line" smooth="yes"/>
      <point x="769" y="1337"/>
      <point x="794" y="1321"/>
      <point x="814" y="1312" type="curve" smooth="yes"/>
      <point x="836" y="1302"/>
      <point x="861" y="1297"/>
      <point x="890" y="1297" type="curve" smooth="yes"/>
    </contour>
    <contour>
      <point x="84" y="0" type="line"/>
      <point x="268" y="0" type="line"/>
      <point x="391" y="633" type="line" smooth="yes"/>
      <point x="413" y="744"/>
      <point x="454" y="831"/>
      <point x="513" y="894" type="curve" smooth="yes"/>
      <point x="572" y="956"/>
      <point x="644" y="987"/>
      <point x="730" y="987" type="curve" smooth="yes"/>
      <point x="788" y="987"/>
      <point x="832" y="973"/>
      <point x="863" y="944" type="curve" smooth="yes"/>
      <point x="894" y="915"/>
      <point x="909" y="876"/>
      <point x="909" y="817" type="curve" smooth="yes"/>
      <point x="909" y="783"/>
      <point x="905" y="764"/>
      <point x="894" y="709" type="curve"/>
      <point x="891" y="701"/>
      <point x="895" y="707"/>
      <point x="891" y="695" type="curve"/>
      <point x="756" y="0" type="line"/>
      <point x="940" y="0" type="line"/>
      <point x="1075" y="694" type="line" smooth="yes"/>
      <point x="1084" y="741"/>
      <point x="1088" y="766"/>
      <point x="1091" y="793" type="curve" smooth="yes"/>
      <point x="1094" y="820"/>
      <point x="1096" y="854"/>
      <point x="1096" y="877" type="curve" smooth="yes"/>
      <point x="1096" y="957"/>
      <point x="1070" y="1028"/>
      <point x="1019" y="1075" type="curve" smooth="yes"/>
      <point x="968" y="1123"/>
      <point x="895" y="1147"/>
      <point x="807" y="1147" type="curve" smooth="yes"/>
      <point x="732" y="1147"/>
      <point x="675" y="1130"/>
      <point x="618" y="1098" type="curve" smooth="yes"/>
      <point x="559" y="1065"/>
      <point x="504" y="1016"/>
      <point x="455" y="952" type="curve"/>
      <point x="467" y="1120" type="line"/>
      <point x="303" y="1120" type="line"/>
    </contour>
  </outline>
</glyph>
<glyph name="odieresis" format="1">
  <advance width="1233"/>
  <unicode hex="00F6"/>
  <outline>
    <contour>
      <point x="469" y="1350" type="line" name="hr00"/>
      <point x="454" y="1350"/>
      <point x="439" y="1368"/>
      <point x="442" y="1383" type="qcurve"/>
      <point x="470" y="1525" type="line"/>
      <point x="474" y="1552"/>
      <point x="502" y="1552" type="qcurve" name="dv03"/>
      <point x="645" y="1552" type="line"/>
      <point x="660" y="1552"/>
      <point x="675" y="1534"/>
      <point x="672" y="1519" type="qcurve"/>
      <point x="644" y="1377" type="line"/>
      <point x="639" y="1350"/>
      <point x="612" y="1350" type="qcurve"/>
    </contour>
    <contour>
      <point x="860" y="1350" type="line" name="sv01"/>
      <point x="845" y="1350"/>
      <point x="830" y="1368"/>
      <point x="833" y="1383" type="qcurve"/>
      <point x="861" y="1525" type="line"/>
      <point x="865" y="1552"/>
      <point x="893" y="1552" type="qcurve" name="sv02"/>
      <point x="1036" y="1552" type="line"/>
      <point x="1051" y="1552"/>
      <point x="1066" y="1534"/>
      <point x="1063" y="1519" type="qcurve"/>
      <point x="1035" y="1377" type="line"/>
      <point x="1030" y="1350"/>
      <point x="1003" y="1350" type="qcurve"/>
    </contour>
    <contour>
      <point x="510" y="-29" type="qcurve" name="dv01"/>
      <point x="418" y="-29"/>
      <point x="270" y="23"/>
      <point x="218" y="80" type="qcurve"/>
      <point x="171" y="131"/>
      <point x="117" y="287"/>
      <point x="117" y="396" type="qcurve" name="sh01"/>
      <point x="117" y="526"/>
      <point x="158" y="663" type="qcurve"/>
      <point x="177" y="726"/>
      <point x="234" y="852"/>
      <point x="274" y="910" type="qcurve"/>
      <point x="355" y="1028"/>
      <point x="464" y="1087" type="qcurve"/>
      <point x="576" y="1147"/>
      <point x="717" y="1147" type="qcurve" name="at01"/>
      <point x="808" y="1147"/>
      <point x="959" y="1095"/>
      <point x="1012" y="1040" type="qcurve"/>
      <point x="1114" y="933"/>
      <point x="1114" y="726" type="qcurve" name="sh02"/>
      <point x="1114" y="591"/>
      <point x="1073" y="453" type="qcurve"/>
      <point x="1050" y="378"/>
      <point x="990" y="254"/>
      <point x="958" y="207" type="qcurve"/>
      <point x="916" y="146"/>
      <point x="823" y="59"/>
      <point x="766" y="30" type="qcurve"/>
      <point x="709" y="1"/>
      <point x="580" y="-29"/>
    </contour>
    <contour>
      <point x="533" y="127" type="qcurve" name="dv02"/>
      <point x="620" y="127"/>
      <point x="761" y="217"/>
      <point x="812" y="298" type="qcurve"/>
      <point x="839" y="340"/>
      <point x="879" y="439"/>
      <point x="906" y="547"/>
      <point x="920" y="661"/>
      <point x="920" y="718" type="qcurve" name="ah01"/>
      <point x="920" y="790"/>
      <point x="895" y="892"/>
      <point x="864" y="927" type="qcurve"/>
      <point x="834" y="961"/>
      <point x="751" y="991"/>
      <point x="702" y="991" type="qcurve" name="sv03"/>
      <point x="612" y="991"/>
      <point x="473" y="901"/>
      <point x="422" y="820" type="qcurve"/>
      <point x="372" y="741"/>
      <point x="313" y="523"/>
      <point x="313" y="402" type="qcurve" name="sh03"/>
      <point x="313" y="330"/>
      <point x="338" y="226"/>
      <point x="369" y="191" type="qcurve"/>
      <point x="398" y="159"/>
      <point x="483" y="127"/>
    </contour>
  </outline>
</glyph>
<glyph name="oslash" format="1">
  <advance width="1233"/>
  <unicode hex="00F8"/>
  <note>
	oslash
  </note>
  <outline>
    <contour>
      <point x="139" y="-96" type="line"/>
      <point x="258" y="45" type="line"/>
      <point x="297" y="17"/>
      <point x="334" y="1"/>
      <point x="371" y="-10" type="curve" smooth="yes"/>
      <point x="414" y="-23"/>
      <point x="454" y="-29"/>
      <point x="507" y="-29" type="curve" smooth="yes"/>
      <point x="604" y="-29"/>
      <point x="691" y="-9"/>
      <point x="766" y="30" type="curve" smooth="yes"/>
      <point x="842" y="69"/>
      <point x="902" y="126"/>
      <point x="958" y="207" type="curve" smooth="yes"/>
      <point x="1005" y="276"/>
      <point x="1045" y="360"/>
      <point x="1073" y="453" type="curve" smooth="yes"/>
      <point x="1100" y="545"/>
      <point x="1114" y="636"/>
      <point x="1114" y="726" type="curve" smooth="yes"/>
      <point x="1114" y="781"/>
      <point x="1110" y="834"/>
      <point x="1099" y="875" type="curve" smooth="yes"/>
      <point x="1090" y="912"/>
      <point x="1074" y="954"/>
      <point x="1051" y="989" type="curve"/>
      <point x="1174" y="1135" type="line"/>
      <point x="1081" y="1212" type="line"/>
      <point x="969" y="1075" type="line"/>
      <point x="938" y="1099"/>
      <point x="902" y="1117"/>
      <point x="863" y="1129" type="curve" smooth="yes"/>
      <point x="823" y="1141"/>
      <point x="777" y="1147"/>
      <point x="724" y="1147" type="curve" smooth="yes"/>
      <point x="628" y="1147"/>
      <point x="542" y="1128"/>
      <point x="467" y="1089" type="curve" smooth="yes"/>
      <point x="391" y="1050"/>
      <point x="325" y="985"/>
      <point x="274" y="912" type="curve" smooth="yes"/>
      <point x="223" y="839"/>
      <point x="184" y="750"/>
      <point x="159" y="666" type="curve" smooth="yes"/>
      <point x="132" y="575"/>
      <point x="119" y="483"/>
      <point x="119" y="391" type="curve" smooth="yes"/>
      <point x="119" y="334"/>
      <point x="124" y="288"/>
      <point x="133" y="245" type="curve" smooth="yes"/>
      <point x="142" y="202"/>
      <point x="157" y="165"/>
      <point x="176" y="133" type="curve"/>
      <point x="47" y="-20" type="line"/>
    </contour>
    <contour>
      <point x="319" y="302" type="line"/>
      <point x="315" y="340" type="line" smooth="yes"/>
      <point x="314" y="353"/>
      <point x="313" y="361"/>
      <point x="313" y="388" type="curve" smooth="yes"/>
      <point x="313" y="559"/>
      <point x="354" y="712"/>
      <point x="422" y="820" type="curve" smooth="yes"/>
      <point x="490" y="928"/>
      <point x="584" y="991"/>
      <point x="701" y="991" type="curve" smooth="yes"/>
      <point x="730" y="991"/>
      <point x="760" y="987"/>
      <point x="784" y="979" type="curve" smooth="yes"/>
      <point x="809" y="971"/>
      <point x="833" y="955"/>
      <point x="852" y="938" type="curve"/>
    </contour>
    <contour>
      <point x="498" y="127"/>
      <point x="471" y="133"/>
      <point x="446" y="142" type="curve" smooth="yes"/>
      <point x="418" y="153"/>
      <point x="397" y="166"/>
      <point x="377" y="186" type="curve"/>
      <point x="911" y="825" type="line"/>
      <point x="915" y="810"/>
      <point x="917" y="795"/>
      <point x="918" y="782" type="curve" smooth="yes"/>
      <point x="919" y="770"/>
      <point x="920" y="752"/>
      <point x="920" y="725" type="curve" smooth="yes"/>
      <point x="920" y="550"/>
      <point x="878" y="404"/>
      <point x="811" y="299" type="curve" smooth="yes"/>
      <point x="739" y="184"/>
      <point x="645" y="127"/>
      <point x="534" y="127" type="curve" smooth="yes"/>
    </contour>
  </outline>
</glyph>
<glyph name="ugrave" format="1">
  <advance width="1233"/>
  <unicode hex="00F9"/>
  <outline>
    <contour>
      <point x="449" y="1648" type="line" name="av01"/>
      <point x="647" y="1648" type="line"/>
      <point x="844" y="1272" type="line" name="iv01"/>
      <point x="701" y="1272" type="line" name="hr01"/>
    </contour>
    <contour>
      <point x="409" y="-27" type="qcurve" name="ab02"/>
      <point x="344" y="-27"/>
      <point x="239" y="9"/>
      <point x="201" y="46" type="qcurve"/>
      <point x="162" y="84"/>
      <point x="125" y="187"/>
      <point x="125" y="248" type="qcurve" name="dh01"/>
      <point x="125" y="266"/>
      <point x="128" y="309"/>
      <point x="130" y="332" type="qcurve" name="sh01"/>
      <point x="133" y="362"/>
      <point x="138" y="401"/>
      <point x="143" y="426" type="qcurve"/>
      <point x="276" y="1120" type="line" name="hr02"/>
      <point x="461" y="1120" type="line"/>
      <point x="326" y="426" type="line"/>
      <point x="325" y="420"/>
      <point x="322" y="400"/>
      <point x="319" y="379"/>
      <point x="316" y="361"/>
      <point x="315" y="355" type="qcurve"/>
      <point x="313" y="338"/>
      <point x="311" y="308"/>
      <point x="311" y="298" type="qcurve" name="dh02"/>
      <point x="311" y="261"/>
      <point x="333" y="198"/>
      <point x="358" y="175" type="qcurve"/>
      <point x="381" y="154"/>
      <point x="448" y="133"/>
      <point x="489" y="133" type="qcurve" name="sv01"/>
      <point x="549" y="133"/>
      <point x="659" y="178"/>
      <point x="704" y="225" type="qcurve"/>
      <point x="749" y="273"/>
      <point x="809" y="406"/>
      <point x="825" y="487" type="qcurve"/>
      <point x="948" y="1120" type="line" name="at01"/>
      <point x="1133" y="1120" type="line"/>
      <point x="915" y="0" type="line" name="ab01"/>
      <point x="751" y="0" type="line"/>
      <point x="764" y="168" type="line" name="iv02"/>
      <point x="690" y="70"/>
      <point x="602" y="22" type="qcurve"/>
      <point x="555" y="-4"/>
      <point x="460" y="-27"/>
    </contour>
  </outline>
</glyph>
<glyph name="ydieresis" format="1">
  <advance width="1233"/>
  <unicode hex="00FF"/>
  <outline>
    <contour>
      <point x="509" y="1320" type="line" name="hr00"/>
      <point x="494" y="1320"/>
      <point x="479" y="1338"/>
      <point x="482" y="1353" type="qcurve"/>
      <point x="510" y="1495" type="line"/>
      <point x="514" y="1522"/>
      <point x="542" y="1522" type="qcurve" name="dv03"/>
      <point x="685" y="1522" type="line"/>
      <point x="700" y="1522"/>
      <point x="715" y="1504"/>
      <point x="712" y="1489" type="qcurve"/>
      <point x="684" y="1347" type="line"/>
      <point x="679" y="1320"/>
      <point x="652" y="1320" type="qcurve"/>
    </contour>
    <contour>
      <point x="900" y="1320" type="line" name="sv01"/>
      <point x="885" y="1320"/>
      <point x="870" y="1338"/>
      <point x="873" y="1353" type="qcurve"/>
      <point x="901" y="1495" type="line"/>
      <point x="905" y="1522"/>
      <point x="933" y="1522" type="qcurve" name="sv02"/>
      <point x="1076" y="1522" type="line"/>
      <point x="1091" y="1522"/>
      <point x="1106" y="1504"/>
      <point x="1103" y="1489" type="qcurve"/>
      <point x="1075" y="1347" type="line"/>
      <point x="1070" y="1320"/>
      <point x="1043" y="1320" type="qcurve"/>
    </contour>
    <contour>
      <point x="20" y="-272" type="line"/>
      <point x="128" y="-272" type="line" name="dv02"/>
      <point x="211" y="-272"/>
      <point x="268" y="-225" type="qcurve"/>
      <point x="330" y="-175"/>
      <point x="386" y="-66" type="qcurve"/>
      <point x="429" y="18" type="line"/>
      <point x="212" y="1120" type="line" name="at01"/>
      <point x="395" y="1120" type="line"/>
      <point x="567" y="258" type="line"/>
      <point x="1050" y="1120" type="line" name="at02"/>
      <point x="1255" y="1120" type="line"/>
      <point x="816" y="360" type="line"/>
      <point x="783" y="302"/>
      <point x="745" y="238"/>
      <point x="724" y="201"/>
      <point x="713" y="181"/>
      <point x="699" y="156"/>
      <point x="674" y="113"/>
      <point x="651" y="72" type="qcurve"/>
      <point x="600" y="-18"/>
      <point x="533" y="-134"/>
      <point x="488" y="-209"/>
      <point x="457" y="-255"/>
      <point x="442" y="-275" type="qcurve"/>
      <point x="415" y="-310"/>
      <point x="352" y="-369"/>
      <point x="310" y="-389" type="qcurve"/>
      <point x="236" y="-426"/>
      <point x="139" y="-426" type="qcurve" name="dv01"/>
      <point x="-9" y="-426" type="line"/>
    </contour>
  </outline>
</glyph>
<glyph name="Amacron" format="1">
  <advance width="1233"/>
  <unicode hex="0100"/>
  <outline>
    <contour>
      <point x="531" y="1800" type="line" name="hr00"/>
      <point x="1129" y="1800" type="line" name="dv02"/>
      <point x="1100" y="1652" type="line" name="dv01"/>
      <point x="502" y="1652" type="line"/>
    </contour>
    <contour>
      <point x="639" y="1493" type="line" name="at01"/>
      <point x="885" y="1493" type="line"/>
      <point x="1051" y="0" type="line" name="ab01"/>
      <point x="850" y="0" type="line"/>
      <point x="815" y="389" type="line" name="dv03"/>
      <point x="295" y="389" type="line"/>
      <point x="111" y="0" type="line" name="ab02"/>
      <point x="-106" y="0" type="line"/>
    </contour>
    <contour>
      <point x="801" y="551" type="line" name="dv04"/>
      <point x="735" y="1325" type="line"/>
      <point x="371" y="551" type="line"/>
    </contour>
  </outline>
</glyph>
<glyph name="Aogonek" format="1">
  <advance width="1233"/>
  <unicode hex="0104"/>
  <note>
	Aogonek
  </note>
  <outline>
    <contour>
      <point x="879" y="-272"/>
      <point x="847" y="-247"/>
      <point x="847" y="-200" type="curve" smooth="yes"/>
      <point x="847" y="-144"/>
      <point x="891" y="-77"/>
      <point x="972" y="0" type="curve"/>
      <point x="1051" y="0" type="line"/>
      <point x="885" y="1493" type="line"/>
      <point x="639" y="1493" type="line"/>
      <point x="-106" y="0" type="line"/>
      <point x="111" y="0" type="line"/>
      <point x="295" y="389" type="line"/>
      <point x="815" y="389" type="line"/>
      <point x="850" y="0" type="line"/>
      <point x="853" y="0" type="line"/>
      <point x="749" y="-93"/>
      <point x="701" y="-170"/>
      <point x="701" y="-245" type="curve" smooth="yes"/>
      <point x="701" y="-338"/>
      <point x="775" y="-395"/>
      <point x="906" y="-395" type="curve" smooth="yes"/>
      <point x="953" y="-395"/>
      <point x="999" y="-388"/>
      <point x="1045" y="-375" type="curve"/>
      <point x="1070" y="-242" type="line"/>
      <point x="1027" y="-262"/>
      <point x="982" y="-272"/>
      <point x="943" y="-272" type="curve" smooth="yes"/>
    </contour>
    <contour>
      <point x="371" y="551" type="line"/>
      <point x="735" y="1325" type="line"/>
      <point x="801" y="551" type="line"/>
    </contour>
  </outline>
</glyph>
<glyph name="Aogonek" format="1">
  <advance width="1233"/>
  <unicode hex="0104"/>
  <outline>
    <contour>
      <point x="943" y="-272" type="qcurve" name="hr00"/>
      <point x="972" y="-272"/>
      <point x="1038" y="-257"/>
      <point x="1070" y="-242" type="qcurve"/>
      <point x="1045" y="-375" type="line"/>
      <point x="976" y="-395"/>
      <point x="906" y="-395" type="qcurve" name="dv01"/>
      <point x="808" y="-395"/>
      <point x="701" y="-315"/>
      <point x="701" y="-245" type="qcurve" name="dh01"/>
      <point x="701" y="-189"/>
      <point x="775" y="-70"/>
      <point x="853" y="0" type="qcurve" name="ab01"/>
      <point x="850" y="0" type="line" name="sh01"/>
      <point x="815" y="389" type="line" name="dv02"/>
      <point x="295" y="389" type="line"/>
      <point x="111" y="0" type="line" name="ab02"/>
      <point x="-106" y="0" type="line"/>
      <point x="639" y="1493" type="line" name="at01"/>
      <point x="885" y="1493" type="line"/>
      <point x="1051" y="0" type="line" name="ab03"/>
      <point x="972" y="0" type="line"/>
      <point x="911" y="-58"/>
      <point x="847" y="-158"/>
      <point x="847" y="-200" type="qcurve" name="dh02"/>
      <point x="847" y="-235"/>
      <point x="895" y="-272"/>
    </contour>
    <contour>
      <point x="801" y="551" type="line" name="dv03"/>
      <point x="735" y="1325" type="line" name="ih01"/>
      <point x="371" y="551" type="line"/>
    </contour>
  </outline>
</glyph>
<glyph name="aogonek" format="1">
  <advance width="1233"/>
  <unicode hex="0105"/>
  <note>
	aogonek
  </note>
  <outline>
    <contour>
      <point x="938" y="0" type="line"/>
      <point x="1063" y="639" type="line" smooth="yes"/>
      <point x="1079" y="723"/>
      <point x="1087" y="794"/>
      <point x="1087" y="839" type="curve" smooth="yes"/>
      <point x="1087" y="1030"/>
      <point x="942" y="1147"/>
      <point x="693" y="1147" type="curve" smooth="yes"/>
      <point x="574" y="1147"/>
      <point x="448" y="1121"/>
      <point x="303" y="1069" type="curve"/>
      <point x="268" y="889" type="line"/>
      <point x="416" y="957"/>
      <point x="548" y="991"/>
      <point x="665" y="991" type="curve" smooth="yes"/>
      <point x="821" y="991"/>
      <point x="907" y="932"/>
      <point x="907" y="807" type="curve" smooth="yes"/>
      <point x="907" y="794"/>
      <point x="906" y="780"/>
      <point x="903" y="768" type="curve"/>
      <point x="891" y="707" type="line"/>
      <point x="645" y="707" type="line" smooth="yes"/>
      <point x="293" y="707"/>
      <point x="72" y="534"/>
      <point x="72" y="283" type="curve" smooth="yes"/>
      <point x="72" y="90"/>
      <point x="203" y="-29"/>
      <point x="404" y="-29" type="curve" smooth="yes"/>
      <point x="561" y="-29"/>
      <point x="690" y="42"/>
      <point x="786" y="166" type="curve"/>
      <point x="754" y="0" type="line"/>
      <point x="749" y="0" type="line"/>
      <point x="645" y="-93"/>
      <point x="597" y="-170"/>
      <point x="597" y="-245" type="curve" smooth="yes"/>
      <point x="597" y="-338"/>
      <point x="671" y="-395"/>
      <point x="802" y="-395" type="curve" smooth="yes"/>
      <point x="849" y="-395"/>
      <point x="895" y="-388"/>
      <point x="941" y="-375" type="curve"/>
      <point x="966" y="-242" type="line"/>
      <point x="923" y="-262"/>
      <point x="878" y="-272"/>
      <point x="839" y="-272" type="curve" smooth="yes"/>
      <point x="775" y="-272"/>
      <point x="743" y="-247"/>
      <point x="743" y="-200" type="curve" smooth="yes"/>
      <point x="743" y="-144"/>
      <point x="787" y="-77"/>
      <point x="868" y="0" type="curve"/>
    </contour>
    <contour>
      <point x="334" y="125"/>
      <point x="264" y="195"/>
      <point x="264" y="307" type="curve" smooth="yes"/>
      <point x="264" y="411"/>
      <point x="323" y="491"/>
      <point x="414" y="530" type="curve" smooth="yes"/>
      <point x="472" y="555"/>
      <point x="542" y="563"/>
      <point x="692" y="563" type="curve" smooth="yes"/>
      <point x="864" y="563" type="line"/>
      <point x="856" y="522" type="line" smooth="yes"/>
      <point x="805" y="269"/>
      <point x="640" y="125"/>
      <point x="461" y="125" type="curve" smooth="yes"/>
    </contour>
  </outline>
</glyph>
<glyph name="Cacute" format="1">
  <advance width="1233"/>
  <unicode hex="0106"/>
  <note>
	Cacute
  </note>
  <outline>
    <contour>
      <point x="749" y="1595" type="line"/>
      <point x="909" y="1595" type="line"/>
      <point x="1216" y="1859" type="line"/>
      <point x="1008" y="1859" type="line"/>
    </contour>
    <contour>
      <point x="661" y="-29"/>
      <point x="724" y="-21"/>
      <point x="775" y="-9" type="curve" smooth="yes"/>
      <point x="832" y="6"/>
      <point x="888" y="26"/>
      <point x="944" y="53" type="curve"/>
      <point x="983" y="260" type="line"/>
      <point x="924" y="219"/>
      <point x="864" y="188"/>
      <point x="805" y="167" type="curve" smooth="yes"/>
      <point x="744" y="146"/>
      <point x="685" y="135"/>
      <point x="628" y="135" type="curve" smooth="yes"/>
      <point x="521" y="135"/>
      <point x="449" y="174"/>
      <point x="404" y="226" type="curve" smooth="yes"/>
      <point x="352" y="286"/>
      <point x="326" y="378"/>
      <point x="326" y="503" type="curve" smooth="yes"/>
      <point x="326" y="614"/>
      <point x="346" y="745"/>
      <point x="390" y="878" type="curve" smooth="yes"/>
      <point x="431" y="1003"/>
      <point x="489" y="1112"/>
      <point x="557" y="1192" type="curve" smooth="yes"/>
      <point x="605" y="1248"/>
      <point x="656" y="1289"/>
      <point x="709" y="1316" type="curve" smooth="yes"/>
      <point x="762" y="1343"/>
      <point x="821" y="1356"/>
      <point x="884" y="1356" type="curve" smooth="yes"/>
      <point x="939" y="1356"/>
      <point x="990" y="1346"/>
      <point x="1036" y="1325" type="curve" smooth="yes"/>
      <point x="1083" y="1304"/>
      <point x="1128" y="1272"/>
      <point x="1171" y="1231" type="curve"/>
      <point x="1212" y="1438" type="line"/>
      <point x="1163" y="1465"/>
      <point x="1111" y="1485"/>
      <point x="1058" y="1499" type="curve" smooth="yes"/>
      <point x="1005" y="1514"/>
      <point x="954" y="1520"/>
      <point x="893" y="1520" type="curve" smooth="yes"/>
      <point x="788" y="1520"/>
      <point x="693" y="1499"/>
      <point x="606" y="1458" type="curve" smooth="yes"/>
      <point x="519" y="1417"/>
      <point x="444" y="1358"/>
      <point x="369" y="1266" type="curve" smooth="yes"/>
      <point x="292" y="1170"/>
      <point x="232" y="1060"/>
      <point x="185" y="913" type="curve" smooth="yes"/>
      <point x="138" y="769"/>
      <point x="115" y="624"/>
      <point x="115" y="492" type="curve" smooth="yes"/>
      <point x="115" y="313"/>
      <point x="158" y="188"/>
      <point x="241" y="103" type="curve" smooth="yes"/>
      <point x="321" y="20"/>
      <point x="440" y="-29"/>
      <point x="597" y="-29" type="curve" smooth="yes"/>
    </contour>
  </outline>
</glyph>
<glyph name="Ccircumflex" format="1">
  <advance width="1233"/>
  <unicode hex="0108"/>
  <outline>
    <contour>
      <point x="699" y="1595" type="line" name="hr00"/>
      <point x="908" y="1773" type="line"/>
      <point x="1047" y="1595" type="line"/>
      <point x="1180" y="1595" type="line"/>
      <point x="1022" y="1861" type="line"/>
      <point x="809" y="1861" type="line"/>
      <point x="547" y="1595" type="line"/>
    </contour>
    <contour>
      <point x="944" y="53" type="qcurve"/>
      <point x="983" y="260" type="line"/>
      <point x="804" y="135"/>
      <point x="628" y="135" type="qcurve"/>
      <point x="555" y="135"/>
      <point x="442" y="182"/>
      <point x="404" y="226" type="qcurve"/>
      <point x="326" y="316"/>
      <point x="326" y="503" type="qcurve"/>
      <point x="326" y="592"/>
      <point x="358" y="784"/>
      <point x="390" y="878" type="qcurve"/>
      <point x="452" y="1066"/>
      <point x="557" y="1192" type="qcurve"/>
      <point x="629" y="1276"/>
      <point x="789" y="1356"/>
      <point x="884" y="1356" type="qcurve"/>
      <point x="964" y="1356"/>
      <point x="1104" y="1294"/>
      <point x="1171" y="1231" type="qcurve"/>
      <point x="1212" y="1438" type="line"/>
      <point x="1063" y="1520"/>
      <point x="893" y="1520" type="qcurve" name="hr01"/>
      <point x="741" y="1520"/>
      <point x="606" y="1458" type="qcurve"/>
      <point x="476" y="1398"/>
      <point x="369" y="1266" type="qcurve"/>
      <point x="308" y="1189"/>
      <point x="218" y="1018"/>
      <point x="185" y="913" type="qcurve"/>
      <point x="115" y="702"/>
      <point x="115" y="492" type="qcurve"/>
      <point x="115" y="230"/>
      <point x="241" y="103" type="qcurve"/>
      <point x="302" y="39"/>
      <point x="484" y="-29"/>
      <point x="597" y="-29" type="qcurve"/>
      <point x="776" y="-29"/>
    </contour>
  </outline>
</glyph>
<glyph name="ccircumflex" format="1">
  <advance width="1233"/>
  <unicode hex="0109"/>
  <outline>
    <contour>
      <point x="603" y="1297" type="line" name="hr00"/>
      <point x="828" y="1538" type="line"/>
      <point x="945" y="1297" type="line"/>
      <point x="1078" y="1297" type="line"/>
      <point x="914" y="1673" type="line"/>
      <point x="767" y="1673" type="line"/>
      <point x="447" y="1297" type="line"/>
    </contour>
    <contour>
      <point x="930" y="51" type="qcurve"/>
      <point x="969" y="252" type="line"/>
      <point x="890" y="192"/>
      <point x="708" y="127"/>
      <point x="615" y="127" type="qcurve"/>
      <point x="340" y="127"/>
      <point x="340" y="418" type="qcurve"/>
      <point x="340" y="518"/>
      <point x="404" y="732"/>
      <point x="459" y="813" type="qcurve"/>
      <point x="577" y="991"/>
      <point x="800" y="991" type="qcurve"/>
      <point x="884" y="991"/>
      <point x="1025" y="937"/>
      <point x="1090" y="879" type="qcurve"/>
      <point x="1127" y="1061" type="line"/>
      <point x="969" y="1147"/>
      <point x="794" y="1147" type="qcurve"/>
      <point x="654" y="1147"/>
      <point x="549" y="1098" type="qcurve"/>
      <point x="492" y="1074"/>
      <point x="386" y="998"/>
      <point x="344" y="950" type="qcurve"/>
      <point x="253" y="849"/>
      <point x="199" y="709" type="qcurve"/>
      <point x="146" y="571"/>
      <point x="146" y="412" type="qcurve"/>
      <point x="146" y="198"/>
      <point x="376" y="-29"/>
      <point x="597" y="-29" type="qcurve"/>
      <point x="781" y="-29"/>
    </contour>
  </outline>
</glyph>
<glyph name="Cdotaccent" format="1">
  <advance width="1233"/>
  <unicode hex="010A"/>
  <outline>
    <contour>
      <point x="808" y="1627" type="line" name="hr00"/>
      <point x="792" y="1627"/>
      <point x="773" y="1649"/>
      <point x="776" y="1666" type="qcurve"/>
      <point x="803" y="1809" type="line"/>
      <point x="805" y="1820"/>
      <point x="821" y="1832"/>
      <point x="832" y="1832" type="qcurve" name="dv03"/>
      <point x="973" y="1832" type="line"/>
      <point x="989" y="1832"/>
      <point x="1009" y="1810"/>
      <point x="1006" y="1793" type="qcurve"/>
      <point x="978" y="1650" type="line"/>
      <point x="976" y="1639"/>
      <point x="960" y="1627"/>
      <point x="949" y="1627" type="qcurve"/>
    </contour>
    <contour>
      <point x="598" y="-29" type="qcurve" name="dv01"/>
      <point x="483" y="-29"/>
      <point x="303" y="36"/>
      <point x="180" y="168"/>
      <point x="115" y="366"/>
      <point x="115" y="499" type="qcurve" name="dh01"/>
      <point x="115" y="601"/>
      <point x="152" y="814"/>
      <point x="219" y="1015"/>
      <point x="313" y="1195"/>
      <point x="369" y="1266" type="qcurve"/>
      <point x="471" y="1394"/>
      <point x="736" y="1520"/>
      <point x="892" y="1520" type="qcurve" name="at01"/>
      <point x="978" y="1520"/>
      <point x="1131" y="1480"/>
      <point x="1212" y="1438" type="qcurve"/>
      <point x="1171" y="1231" type="line"/>
      <point x="1045" y="1356"/>
      <point x="884" y="1356" type="qcurve" name="sv01"/>
      <point x="787" y="1356"/>
      <point x="625" y="1273"/>
      <point x="557" y="1192" type="qcurve"/>
      <point x="506" y="1131"/>
      <point x="421" y="970"/>
      <point x="360" y="789"/>
      <point x="326" y="598"/>
      <point x="326" y="508" type="qcurve" name="dh02"/>
      <point x="326" y="317"/>
      <point x="481" y="135"/>
      <point x="626" y="135" type="qcurve" name="dv02"/>
      <point x="714" y="135"/>
      <point x="895" y="199"/>
      <point x="983" y="260" type="qcurve"/>
      <point x="944" y="53" type="line"/>
      <point x="777" y="-29"/>
    </contour>
  </outline>
</glyph>
<glyph name="cdotaccent" format="1">
  <advance width="1233"/>
  <unicode hex="010B"/>
  <outline>
    <contour>
      <point x="739" y="1348" type="line" name="hr00"/>
      <point x="712" y="1348"/>
      <point x="712" y="1372" type="qcurve"/>
      <point x="712" y="1378"/>
      <point x="713" y="1381" type="qcurve"/>
      <point x="742" y="1525" type="line"/>
      <point x="746" y="1552"/>
      <point x="774" y="1552" type="qcurve" name="dv03"/>
      <point x="919" y="1552" type="line"/>
      <point x="946" y="1552"/>
      <point x="946" y="1528" type="qcurve"/>
      <point x="946" y="1522"/>
      <point x="945" y="1519" type="qcurve"/>
      <point x="916" y="1375" type="line"/>
      <point x="910" y="1348"/>
      <point x="884" y="1348" type="qcurve"/>
    </contour>
    <contour>
      <point x="606" y="-29" type="qcurve" name="dv01"/>
      <point x="385" y="-29"/>
      <point x="156" y="194"/>
      <point x="156" y="414" type="qcurve" name="dh01"/>
      <point x="156" y="489"/>
      <point x="183" y="636"/>
      <point x="234" y="774"/>
      <point x="307" y="898"/>
      <point x="354" y="950" type="qcurve"/>
      <point x="442" y="1047"/>
      <point x="670" y="1147"/>
      <point x="805" y="1147" type="qcurve" name="at01"/>
      <point x="979" y="1147"/>
      <point x="1137" y="1061" type="qcurve"/>
      <point x="1100" y="879" type="line"/>
      <point x="1034" y="937"/>
      <point x="894" y="991"/>
      <point x="808" y="991" type="qcurve" name="sv01"/>
      <point x="693" y="991"/>
      <point x="529" y="900"/>
      <point x="469" y="813" type="qcurve"/>
      <point x="441" y="772"/>
      <point x="397" y="677"/>
      <point x="366" y="575"/>
      <point x="350" y="469"/>
      <point x="350" y="418" type="qcurve" name="dh02"/>
      <point x="350" y="269"/>
      <point x="487" y="127"/>
      <point x="627" y="127" type="qcurve" name="dv02"/>
      <point x="719" y="127"/>
      <point x="895" y="189"/>
      <point x="979" y="252" type="qcurve"/>
      <point x="940" y="51" type="line"/>
      <point x="867" y="12"/>
      <point x="701" y="-29"/>
    </contour>
  </outline>
</glyph>
<glyph name="Ccaron" format="1">
  <advance width="1233"/>
  <unicode hex="010C"/>
  <outline>
    <contour>
      <point x="616" y="1861" type="line" name="hr00"/>
      <point x="752" y="1861" type="line" name="sv02"/>
      <point x="891" y="1683" type="line"/>
      <point x="1100" y="1861" type="line" name="sv03"/>
      <point x="1251" y="1861" type="line"/>
      <point x="987" y="1595" type="line"/>
      <point x="774" y="1595" type="line"/>
    </contour>
    <contour>
      <point x="597" y="-29" type="qcurve" name="dv01"/>
      <point x="479" y="-29"/>
      <point x="301" y="41"/>
      <point x="241" y="103" type="qcurve"/>
      <point x="179" y="167"/>
      <point x="115" y="358"/>
      <point x="115" y="492" type="qcurve" name="dh01"/>
      <point x="115" y="591"/>
      <point x="150" y="805"/>
      <point x="185" y="913" type="qcurve"/>
      <point x="220" y="1023"/>
      <point x="311" y="1194"/>
      <point x="369" y="1266" type="qcurve"/>
      <point x="425" y="1335"/>
      <point x="541" y="1427"/>
      <point x="606" y="1458" type="qcurve"/>
      <point x="736" y="1520"/>
      <point x="893" y="1520" type="qcurve" name="at01"/>
      <point x="939" y="1520"/>
      <point x="1018" y="1510"/>
      <point x="1058" y="1499" type="qcurve"/>
      <point x="1138" y="1478"/>
      <point x="1212" y="1438" type="qcurve"/>
      <point x="1171" y="1231" type="line"/>
      <point x="1107" y="1293"/>
      <point x="1036" y="1325" type="qcurve"/>
      <point x="967" y="1356"/>
      <point x="884" y="1356" type="qcurve" name="sv01"/>
      <point x="789" y="1356"/>
      <point x="709" y="1316" type="qcurve"/>
      <point x="629" y="1276"/>
      <point x="557" y="1192" type="qcurve"/>
      <point x="506" y="1132"/>
      <point x="421" y="972"/>
      <point x="390" y="878" type="qcurve"/>
      <point x="357" y="778"/>
      <point x="326" y="586"/>
      <point x="326" y="503" type="qcurve" name="dh02"/>
      <point x="326" y="316"/>
      <point x="404" y="226" type="qcurve"/>
      <point x="438" y="187"/>
      <point x="548" y="135"/>
      <point x="628" y="135" type="qcurve" name="dv02"/>
      <point x="714" y="135"/>
      <point x="805" y="167" type="qcurve" name="hr01"/>
      <point x="894" y="198"/>
      <point x="983" y="260" type="qcurve"/>
      <point x="944" y="53" type="line"/>
      <point x="902" y="33"/>
      <point x="818" y="2"/>
      <point x="775" y="-9" type="qcurve"/>
      <point x="737" y="-18"/>
      <point x="645" y="-29"/>
    </contour>
  </outline>
</glyph>
<glyph name="ccaron" format="1">
  <advance width="1233"/>
  <unicode hex="010D"/>
  <outline>
    <contour>
      <point x="561" y="1673" type="line" name="hr00"/>
      <point x="692" y="1673" type="line"/>
      <point x="811" y="1430" type="line" name="iv01"/>
      <point x="1036" y="1673" type="line" name="av01"/>
      <point x="1192" y="1673" type="line"/>
      <point x="872" y="1297" type="line"/>
      <point x="725" y="1297" type="line"/>
    </contour>
    <contour>
      <point x="607" y="-29" type="qcurve" name="dv01"/>
      <point x="492" y="-29"/>
      <point x="326" y="30"/>
      <point x="271" y="84" type="qcurve"/>
      <point x="213" y="141"/>
      <point x="156" y="306"/>
      <point x="156" y="412" type="qcurve" name="dh01"/>
      <point x="156" y="487"/>
      <point x="183" y="640"/>
      <point x="209" y="709" type="qcurve"/>
      <point x="235" y="778"/>
      <point x="309" y="900"/>
      <point x="354" y="950" type="qcurve"/>
      <point x="402" y="1003"/>
      <point x="511" y="1077"/>
      <point x="559" y="1098" type="qcurve"/>
      <point x="669" y="1147"/>
      <point x="804" y="1147" type="qcurve" name="at01"/>
      <point x="892" y="1147"/>
      <point x="975" y="1126" type="qcurve"/>
      <point x="1013" y="1116"/>
      <point x="1097" y="1083"/>
      <point x="1137" y="1061" type="qcurve"/>
      <point x="1100" y="879" type="line"/>
      <point x="1035" y="937"/>
      <point x="964" y="964" type="qcurve"/>
      <point x="893" y="991"/>
      <point x="810" y="991" type="qcurve" name="sv01"/>
      <point x="699" y="991"/>
      <point x="614" y="947" type="qcurve"/>
      <point x="572" y="925"/>
      <point x="499" y="858"/>
      <point x="469" y="813" type="qcurve"/>
      <point x="443" y="775"/>
      <point x="398" y="680"/>
      <point x="382" y="626" type="qcurve"/>
      <point x="350" y="518"/>
      <point x="350" y="418" type="qcurve" name="dh02"/>
      <point x="350" y="349"/>
      <point x="383" y="238"/>
      <point x="418" y="200" type="qcurve"/>
      <point x="450" y="165"/>
      <point x="551" y="127"/>
      <point x="625" y="127" type="qcurve" name="dv02"/>
      <point x="670" y="127"/>
      <point x="763" y="142"/>
      <point x="808" y="158" type="qcurve"/>
      <point x="855" y="175"/>
      <point x="941" y="223"/>
      <point x="979" y="252" type="qcurve"/>
      <point x="940" y="51" type="line"/>
      <point x="897" y="28"/>
      <point x="822" y="1"/>
      <point x="784" y="-8" type="qcurve"/>
      <point x="740" y="-19"/>
      <point x="655" y="-29"/>
    </contour>
  </outline>
</glyph>
<glyph name="Dcroat" format="1">
  <advance width="1233"/>
  <unicode hex="0110"/>
  <note>
	Dcroat
  </note>
  <outline>
    <contour>
      <point x="-8" y="0" type="line"/>
      <point x="295" y="0" type="line" smooth="yes"/>
      <point x="641" y="0"/>
      <point x="839" y="98"/>
      <point x="975" y="354" type="curve" smooth="yes"/>
      <point x="1071" y="538"/>
      <point x="1130" y="783"/>
      <point x="1130" y="983" type="curve" smooth="yes"/>
      <point x="1130" y="1328"/>
      <point x="955" y="1493"/>
      <point x="586" y="1493" type="curve" smooth="yes"/>
      <point x="283" y="1493" type="line"/>
      <point x="160" y="858" type="line"/>
      <point x="31" y="858" type="line"/>
      <point x="2" y="709" type="line"/>
      <point x="129" y="709" type="line"/>
    </contour>
    <contour>
      <point x="227" y="166" type="line"/>
      <point x="334" y="709" type="line"/>
      <point x="600" y="709" type="line"/>
      <point x="629" y="858" type="line"/>
      <point x="362" y="858" type="line"/>
      <point x="453" y="1327" type="line"/>
      <point x="567" y="1327" type="line" smooth="yes"/>
      <point x="825" y="1327"/>
      <point x="924" y="1233"/>
      <point x="924" y="996" type="curve" smooth="yes"/>
      <point x="924" y="820"/>
      <point x="870" y="576"/>
      <point x="801" y="432" type="curve" smooth="yes"/>
      <point x="713" y="246"/>
      <point x="571" y="166"/>
      <point x="324" y="166" type="curve" smooth="yes"/>
    </contour>
  </outline>
</glyph>
<glyph name="Dcroat" format="1">
  <advance width="1233"/>
  <unicode hex="0110"/>
  <outline>
    <contour>
      <point x="129" y="709" type="line" name="hr00"/>
      <point x="2" y="709" type="line"/>
      <point x="31" y="858" type="line"/>
      <point x="160" y="858" type="line" name="dv01"/>
      <point x="283" y="1493" type="line" name="at01"/>
      <point x="586" y="1493" type="line"/>
      <point x="863" y="1493"/>
      <point x="1130" y="1242"/>
      <point x="1130" y="983" type="qcurve" name="dh02"/>
      <point x="1130" y="908"/>
      <point x="1109" y="745"/>
      <point x="1069" y="580"/>
      <point x="1011" y="423"/>
      <point x="975" y="354" type="qcurve"/>
      <point x="924" y="258"/>
      <point x="796" y="123"/>
      <point x="631" y="39"/>
      <point x="425" y="0"/>
      <point x="295" y="0" type="qcurve" name="ab01"/>
      <point x="-8" y="0" type="line"/>
    </contour>
    <contour>
      <point x="324" y="166" type="line" name="sv01"/>
      <point x="417" y="166"/>
      <point x="564" y="197"/>
      <point x="680" y="262"/>
      <point x="768" y="362"/>
      <point x="801" y="432" type="qcurve"/>
      <point x="827" y="486"/>
      <point x="872" y="626"/>
      <point x="905" y="778"/>
      <point x="924" y="930"/>
      <point x="924" y="996" type="qcurve" name="dh01"/>
      <point x="924" y="1085"/>
      <point x="885" y="1211"/>
      <point x="799" y="1290"/>
      <point x="664" y="1327"/>
      <point x="567" y="1327" type="qcurve" name="sv02"/>
      <point x="453" y="1327" type="line"/>
      <point x="362" y="858" type="line" name="sv03"/>
      <point x="629" y="858" type="line"/>
      <point x="600" y="709" type="line" name="sv04"/>
      <point x="334" y="709" type="line"/>
      <point x="227" y="166" type="line"/>
    </contour>
  </outline>
</glyph>
<glyph name="Edotaccent" format="1">
  <advance width="1233"/>
  <unicode hex="0116"/>
  <outline>
    <contour>
      <point x="751" y="1627" type="line" name="hr00"/>
      <point x="735" y="1627"/>
      <point x="716" y="1649"/>
      <point x="719" y="1666" type="qcurve"/>
      <point x="746" y="1809" type="line"/>
      <point x="748" y="1820"/>
      <point x="764" y="1832"/>
      <point x="775" y="1832" type="qcurve" name="dv01"/>
      <point x="916" y="1832" type="line"/>
      <point x="932" y="1832"/>
      <point x="952" y="1810"/>
      <point x="949" y="1793" type="qcurve"/>
      <point x="921" y="1650" type="line"/>
      <point x="919" y="1639"/>
      <point x="903" y="1627"/>
      <point x="892" y="1627" type="qcurve"/>
    </contour>
    <contour>
      <point x="344" y="1493" type="line" name="at01"/>
      <point x="1229" y="1493" type="line"/>
      <point x="1196" y="1323" type="line" name="sv01"/>
      <point x="512" y="1323" type="line"/>
      <point x="426" y="881" type="line"/>
      <point x="1079" y="881" type="line" name="dv03"/>
      <point x="1047" y="711" type="line" name="dv02"/>
      <point x="393" y="711" type="line"/>
      <point x="289" y="170" type="line" name="sv02"/>
      <point x="991" y="170" type="line"/>
      <point x="958" y="0" type="line" name="ab01"/>
      <point x="53" y="0" type="line"/>
    </contour>
  </outline>
</glyph>
<glyph name="edotaccent" format="1">
  <advance width="1233"/>
  <unicode hex="0117"/>
  <outline>
    <contour>
      <point x="678" y="1349" type="line" name="hr00"/>
      <point x="651" y="1349"/>
      <point x="651" y="1373" type="qcurve"/>
      <point x="651" y="1379"/>
      <point x="652" y="1382" type="qcurve"/>
      <point x="681" y="1526" type="line"/>
      <point x="685" y="1553"/>
      <point x="713" y="1553" type="qcurve" name="dv03"/>
      <point x="858" y="1553" type="line"/>
      <point x="885" y="1553"/>
      <point x="885" y="1529" type="qcurve"/>
      <point x="885" y="1523"/>
      <point x="884" y="1520" type="qcurve"/>
      <point x="855" y="1376" type="line"/>
      <point x="849" y="1349"/>
      <point x="823" y="1349" type="qcurve"/>
    </contour>
    <contour>
      <point x="556" y="-29" type="qcurve" name="dv01"/>
      <point x="329" y="-29"/>
      <point x="98" y="193"/>
      <point x="98" y="407" type="qcurve" name="sh01"/>
      <point x="98" y="485"/>
      <point x="129" y="641"/>
      <point x="187" y="787"/>
      <point x="271" y="919"/>
      <point x="324" y="973" type="qcurve"/>
      <point x="408" y="1060"/>
      <point x="607" y="1149"/>
      <point x="719" y="1149" type="qcurve" name="dv06"/>
      <point x="811" y="1149"/>
      <point x="961" y="1089"/>
      <point x="1068" y="980"/>
      <point x="1126" y="825"/>
      <point x="1126" y="731" type="qcurve" name="sh02"/>
      <point x="1126" y="695"/>
      <point x="1116" y="594"/>
      <point x="1104" y="516" type="qcurve" name="dv04"/>
      <point x="297" y="516" type="line" name="sh04"/>
      <point x="291" y="484"/>
      <point x="285" y="432"/>
      <point x="285" y="406" type="qcurve" name="sh03"/>
      <point x="285" y="273"/>
      <point x="437" y="127"/>
      <point x="584" y="127" type="qcurve" name="dv02"/>
      <point x="674" y="127"/>
      <point x="882" y="183"/>
      <point x="997" y="240" type="qcurve" name="ih01"/>
      <point x="961" y="57" type="line" name="sh05"/>
      <point x="855" y="14"/>
      <point x="656" y="-29"/>
    </contour>
    <contour>
      <point x="938" y="659" type="line" name="sh06"/>
      <point x="944" y="686"/>
      <point x="948" y="722"/>
      <point x="948" y="739" type="qcurve" name="ah01"/>
      <point x="948" y="798"/>
      <point x="914" y="892"/>
      <point x="851" y="957"/>
      <point x="762" y="991"/>
      <point x="707" y="991" type="qcurve" name="dv05"/>
      <point x="642" y="991"/>
      <point x="525" y="944"/>
      <point x="428" y="857"/>
      <point x="354" y="734"/>
      <point x="332" y="659" type="qcurve"/>
    </contour>
  </outline>
</glyph>
<glyph name="Eogonek" format="1">
  <advance width="1233"/>
  <unicode hex="0118"/>
  <outline>
    <contour>
      <point x="512" y="1323" type="line" name="hr00"/>
      <point x="426" y="881" type="line"/>
      <point x="1079" y="881" type="line" name="dv04"/>
      <point x="1047" y="711" type="line" name="dv03"/>
      <point x="393" y="711" type="line"/>
      <point x="289" y="170" type="line" name="sv01"/>
      <point x="991" y="170" type="line" name="sv02"/>
      <point x="958" y="0" type="line" name="ab01"/>
      <point x="862" y="0" type="line"/>
      <point x="801" y="-58"/>
      <point x="737" y="-158"/>
      <point x="737" y="-200" type="qcurve" name="dh02"/>
      <point x="737" y="-235"/>
      <point x="785" y="-272"/>
      <point x="833" y="-272" type="qcurve" name="dv02"/>
      <point x="862" y="-272"/>
      <point x="928" y="-257"/>
      <point x="960" y="-242" type="qcurve"/>
      <point x="935" y="-375" type="line"/>
      <point x="866" y="-395"/>
      <point x="796" y="-395" type="qcurve" name="dv01"/>
      <point x="698" y="-395"/>
      <point x="591" y="-315"/>
      <point x="591" y="-245" type="qcurve" name="dh01"/>
      <point x="591" y="-189"/>
      <point x="665" y="-70"/>
      <point x="743" y="0" type="qcurve" name="ab02"/>
      <point x="53" y="0" type="line"/>
      <point x="344" y="1493" type="line" name="at01"/>
      <point x="1229" y="1493" type="line"/>
      <point x="1196" y="1323" type="line"/>
    </contour>
  </outline>
</glyph>
<glyph name="eogonek" format="1">
  <advance width="1233"/>
  <unicode hex="0119"/>
  <outline>
    <contour>
      <point x="297" y="516" type="line" name="hr00"/>
      <point x="291" y="484"/>
      <point x="285" y="432"/>
      <point x="285" y="406" type="qcurve" name="dh02"/>
      <point x="285" y="273"/>
      <point x="437" y="127"/>
      <point x="584" y="127" type="qcurve" name="dv06"/>
      <point x="674" y="127"/>
      <point x="882" y="183"/>
      <point x="997" y="240" type="qcurve" name="ih01"/>
      <point x="961" y="57" type="line"/>
      <point x="872" y="21"/>
      <point x="787" y="0" type="qcurve"/>
      <point x="726" y="-58"/>
      <point x="662" y="-158"/>
      <point x="662" y="-200" type="qcurve" name="dh04"/>
      <point x="662" y="-235"/>
      <point x="710" y="-272"/>
      <point x="758" y="-272" type="qcurve" name="dv02"/>
      <point x="787" y="-272"/>
      <point x="853" y="-257"/>
      <point x="885" y="-242" type="qcurve" name="ih02"/>
      <point x="860" y="-375" type="line"/>
      <point x="791" y="-395"/>
      <point x="721" y="-395" type="qcurve" name="dv01"/>
      <point x="623" y="-395"/>
      <point x="516" y="-315"/>
      <point x="516" y="-245" type="qcurve" name="dh03"/>
      <point x="516" y="-194"/>
      <point x="577" y="-87"/>
      <point x="641" y="-25" type="qcurve" name="ih03"/>
      <point x="620" y="-27"/>
      <point x="577" y="-29"/>
      <point x="556" y="-29" type="qcurve" name="dv05"/>
      <point x="329" y="-29"/>
      <point x="98" y="193"/>
      <point x="98" y="407" type="qcurve" name="dh01"/>
      <point x="98" y="485"/>
      <point x="129" y="641"/>
      <point x="187" y="787"/>
      <point x="271" y="919"/>
      <point x="324" y="973" type="qcurve"/>
      <point x="408" y="1060"/>
      <point x="607" y="1149"/>
      <point x="719" y="1149" type="qcurve" name="dv04"/>
      <point x="811" y="1149"/>
      <point x="961" y="1089"/>
      <point x="1068" y="980"/>
      <point x="1126" y="825"/>
      <point x="1126" y="731" type="qcurve" name="dh06"/>
      <point x="1126" y="695"/>
      <point x="1116" y="594"/>
      <point x="1104" y="516" type="qcurve"/>
    </contour>
    <contour>
      <point x="707" y="991" type="qcurve" name="dv03"/>
      <point x="642" y="991"/>
      <point x="525" y="944"/>
      <point x="428" y="857"/>
      <point x="354" y="734"/>
      <point x="332" y="659" type="qcurve" name="ih04"/>
      <point x="938" y="659" type="line"/>
      <point x="944" y="686"/>
      <point x="948" y="722"/>
      <point x="948" y="739" type="qcurve" name="dh05"/>
      <point x="948" y="798"/>
      <point x="914" y="892"/>
      <point x="851" y="957"/>
      <point x="762" y="991"/>
    </contour>
  </outline>
</glyph>
